{
.appVersion = "3151";
classes = (
{
automatic = 1;
code = "A Aogonek AE B C D Eth E Eogonek F G H Hbar I Iogonek I_J.loclNLD J K L Lcaron Ldot Lslash M N Eng O Oslash Ohorn Oogonek OE P Thorn Q R S Germandbls Schwa T Tbar U Uogonek Uhorn V W X Y Z Aacute Abreve Abreveacute Abrevedotbelow Abrevegrave Abrevehookabove Abrevetilde Acircumflex Acircumflexacute Acircumflexdotbelow Acircumflexgrave Acircumflexhookabove Acircumflextilde Adblgrave Adieresis Adotbelow Agrave Ahookabove Ainvertedbreve Amacron Aring Aringacute Atilde AEacute Cacute Ccaron Ccedilla Ccircumflex Cdotaccent DZcaron Dcaron Dcroat Dzcaron Eacute Ebreve Ecaron Ecircumflex Ecircumflexacute Ecircumflexdotbelow Ecircumflexgrave Ecircumflexhookabove Ecircumflextilde Edblgrave Edieresis Edotaccent Edotbelow Egrave Ehookabove Einvertedbreve Emacron Etilde Gbreve Gcaron Gcircumflex Gcommaaccent Gdotaccent Hcircumflex Iacute Ibreve Icircumflex Idblgrave Idieresis Idotaccent Idotbelow Igrave Ihookabove Iinvertedbreve Imacron Itilde Jcircumflex Kcommaaccent LJ Lacute Lcommaaccent Lj NJ Nacute Ncaron Ncommaaccent Nj Ntilde Oacute Obreve Ocircumflex Ocircumflexacute Ocircumflexdotbelow Ocircumflexgrave Ocircumflexhookabove Ocircumflextilde Odblgrave Odieresis Odieresismacron Odotaccentmacron Odotbelow Ograve Ohookabove Ohornacute Ohorndotbelow Ohorngrave Ohornhookabove Ohorntilde Ohungarumlaut Oinvertedbreve Omacron Oslashacute Otilde Otildemacron Racute Rcaron Rcommaaccent Rdblgrave Rinvertedbreve Sacute Scaron Scedilla Scircumflex Scommaaccent Tcaron Tcedilla Tcommaaccent Uacute Ubreve Ucircumflex Udblgrave Udieresis Udotbelow Ugrave Uhookabove Uhornacute Uhorndotbelow Uhorngrave Uhornhookabove Uhorntilde Uhungarumlaut Uinvertedbreve Umacron Uring Utilde Wacute Wcircumflex Wdieresis Wgrave Yacute Ycircumflex Ydieresis Ydotbelow Ygrave Yhookabove Ymacron Ytilde Zacute Zcaron Zdotaccent Iacute_J.loclNLD Omega";
name = Uppercase;
}
);

glyphs = (
{
color = 3;
glyphname = A;
lastChange = "2023-02-01 10:33:45 +0000";
layers = (
{
anchors = (
{
name = bottom;
position = "{361, 0}";
},
{
name = ogonek;
position = "{717, 0}";
},
{
name = top;
position = "{356, 688}";
}
);
background = {
anchors = (
{
name = bottom;
position = "{361, 0}";
},
{
name = ogonek;
position = "{707, 0}";
},
{
name = top;
position = "{356, 688}";
}
);
paths = (
{
closed = 1;
nodes = (
"239 0 LINE",
"268 132 LINE",
"446 132 LINE",
"472 0 LINE",
"707 0 LINE",
"508 688 LINE",
"204 688 LINE",
"14 0 LINE"
);
},
{
closed = 1;
nodes = (
"357 556 LINE",
"422 255 LINE",
"289 255 LINE"
);
}
);
};
layerId = UUID0;
paths = (
{
closed = 1;
nodes = (
"239 0 LINE",
"268 132 LINE",
"446 132 LINE",
"472 0 LINE",
"717 0 LINE",
"518 688 LINE",
"194 688 LINE",
"4 0 LINE"
);
},
{
closed = 1;
nodes = (
"357 556 LINE",
"422 255 LINE",
"289 255 LINE"
);
}
);
width = 716;
}
);
leftKerningGroup = A;
rightKerningGroup = A;
unicode = 0041;
},
{
color = 3;
glyphname = AE;
lastChange = "2023-02-01 10:33:45 +0000";
layers = (
{
anchors = (
{
name = bottom;
position = "{485, 0}";
},
{
name = top;
position = "{485, 688}";
}
);
background = {
anchors = (
{
name = bottom;
position = "{485, 0}";
},
{
name = top;
position = "{485, 688}";
}
);
paths = (
{
closed = 1;
nodes = (
"233 0 LINE",
"274 132 LINE",
"443 132 LINE",
"465 0 LINE",
"944 0 LINE",
"918 152 LINE",
"649 152 LINE",
"627 285 LINE",
"872 285 LINE",
"851 411 LINE",
"605 411 LINE",
"584 536 LINE",
"852 536 LINE",
"826 688 LINE",
"249 688 LINE",
"14 0 LINE"
);
},
{
closed = 1;
nodes = (
"378 506 LINE",
"419 255 LINE",
"311 255 LINE"
);
}
);
};
guideLines = (
{
angle = 99.6865;
position = "{921, 0}";
}
);
layerId = UUID0;
paths = (
{
closed = 1;
nodes = (
"611 285 LINE",
"872 285 LINE",
"851 411 LINE",
"589 411 LINE"
);
},
{
closed = 1;
nodes = (
"465 0 LINE",
"944 0 LINE",
"918 152 LINE",
"649 152 LINE",
"584 536 LINE",
"852 536 LINE",
"826 688 LINE",
"239 688 LINE",
"4 0 LINE",
"233 0 LINE",
"274 132 LINE",
"469 132 LINE",
"445 255 LINE",
"311 255 LINE",
"378 506 LINE"
);
}
);
width = 951;
}
);
leftKerningGroup = A;
rightKerningGroup = E;
unicode = 00C6;
},
{
color = 3;
glyphname = B;
lastChange = "2023-02-02 12:04:26 +0000";
layers = (
{
anchors = (
{
name = bottom;
position = "{355, 0}";
},
{
name = top;
position = "{355, 688}";
}
);
background = {
paths = (
{
closed = 1;
nodes = (
"552 -12 OFFCURVE",
"686 68 OFFCURVE",
"686 209 CURVE SMOOTH",
"686 303 OFFCURVE",
"641 356 OFFCURVE",
"546 374 CURVE",
"619 400 OFFCURVE",
"655 447 OFFCURVE",
"655 517 CURVE SMOOTH",
"655 624 OFFCURVE",
"556 691 OFFCURVE",
"336 691 CURVE SMOOTH",
"258 691 OFFCURVE",
"166 689 OFFCURVE",
"55 685 CURVE",
"55 9 LINE",
"166 -7 OFFCURVE",
"222 -12 OFFCURVE",
"315 -12 CURVE SMOOTH"
);
},
{
closed = 1;
nodes = (
"330 137 OFFCURVE",
"305 139 OFFCURVE",
"277 145 CURVE",
"277 303 LINE",
"363 303 LINE SMOOTH",
"430 303 OFFCURVE",
"467 272 OFFCURVE",
"467 217 CURVE SMOOTH",
"467 166 OFFCURVE",
"426 137 OFFCURVE",
"353 137 CURVE SMOOTH"
);
},
{
closed = 1;
nodes = (
"278 553 LINE",
"305 554 OFFCURVE",
"329 555 OFFCURVE",
"353 555 CURVE SMOOTH",
"415 555 OFFCURVE",
"447 531 OFFCURVE",
"447 484 CURVE SMOOTH",
"447 444 OFFCURVE",
"410 416 OFFCURVE",
"357 416 CURVE SMOOTH",
"278 416 LINE"
);
}
);
};
layerId = UUID0;
paths = (
{
closed = 1;
nodes = (
"552 0 OFFCURVE",
"686 68 OFFCURVE",
"686 209 CURVE SMOOTH",
"686 303 OFFCURVE",
"641 356 OFFCURVE",
"546 374 CURVE",
"619 400 OFFCURVE",
"655 447 OFFCURVE",
"655 517 CURVE SMOOTH",
"655 624 OFFCURVE",
"556 688 OFFCURVE",
"336 688 CURVE SMOOTH",
"55 688 LINE",
"55 0 LINE",
"315 0 LINE"
);
},
{
closed = 1;
nodes = (
"277 141 LINE",
"277 299 LINE",
"363 299 LINE SMOOTH",
"430 299 OFFCURVE",
"467 269 OFFCURVE",
"467 217 CURVE SMOOTH",
"467 169 OFFCURVE",
"430 141 OFFCURVE",
"363 141 CURVE SMOOTH"
);
},
{
closed = 1;
nodes = (
"278 551 LINE",
"353 551 LINE SMOOTH",
"415 551 OFFCURVE",
"447 529 OFFCURVE",
"447 482 CURVE SMOOTH",
"447 442 OFFCURVE",
"410 416 OFFCURVE",
"357 416 CURVE SMOOTH",
"278 416 LINE"
);
}
);
width = 711;
}
);
leftKerningGroup = B;
unicode = 0042;
},
{
color = 3;
glyphname = C;
lastChange = "2023-02-02 11:09:00 +0000";
layers = (
{
anchors = (
{
name = bottom;
position = "{350, 0}";
},
{
name = top;
position = "{350, 688}";
}
);
background = {
anchors = (
{
name = bottom;
position = "{350, 0}";
},
{
name = top;
position = "{350, 688}";
}
);
paths = (
{
closed = 1;
nodes = (
"453 -16 OFFCURVE",
"516 1 OFFCURVE",
"574 35 CURVE",
"546 193 LINE",
"493 171 OFFCURVE",
"463 165 OFFCURVE",
"422 165 CURVE SMOOTH",
"314 165 OFFCURVE",
"250 231 OFFCURVE",
"250 345 CURVE SMOOTH",
"250 461 OFFCURVE",
"309 525 OFFCURVE",
"416 525 CURVE SMOOTH",
"455 525 OFFCURVE",
"498 516 OFFCURVE",
"546 498 CURVE",
"573 653 LINE",
"523 686 OFFCURVE",
"448 703 OFFCURVE",
"378 703 CURVE SMOOTH",
"176 703 OFFCURVE",
"26 550 OFFCURVE",
"26 344 CURVE SMOOTH",
"26 140 OFFCURVE",
"182 -16 OFFCURVE",
"384 -16 CURVE SMOOTH"
);
}
);
};
layerId = UUID0;
paths = (
{
closed = 1;
nodes = (
"453 -16 OFFCURVE",
"516 1 OFFCURVE",
"574 35 CURVE",
"546 193 LINE",
"494 172 OFFCURVE",
"465 165 OFFCURVE",
"422 165 CURVE SMOOTH",
"314 165 OFFCURVE",
"250 231 OFFCURVE",
"250 340 CURVE SMOOTH",
"250 456 OFFCURVE",
"316 525 OFFCURVE",
"426 525 CURVE SMOOTH",
"463 525 OFFCURVE",
"507 517 OFFCURVE",
"546 498 CURVE",
"573 657 LINE",
"528 688 OFFCURVE",
"467 703 OFFCURVE",
"388 703 CURVE SMOOTH",
"176 703 OFFCURVE",
"26 550 OFFCURVE",
"26 334 CURVE SMOOTH",
"26 123 OFFCURVE",
"168 -16 OFFCURVE",
"384 -16 CURVE SMOOTH"
);
}
);
width = 591;
}
);
leftKerningGroup = C;
rightKerningGroup = C;
unicode = 0043;
},
{
color = 3;
glyphname = D;
lastChange = "2023-02-01 10:33:45 +0000";
layers = (
{
anchors = (
{
name = bottom;
position = "{372, 0}";
},
{
name = center;
position = "{372, 344}";
},
{
name = stroke;
position = "{185, 344}";
},
{
name = top;
position = "{372, 688}";
}
);
background = {
paths = (
{
closed = 1;
nodes = (
"155 -2 OFFCURVE",
"234 -2 OFFCURVE",
"284 -2 CURVE SMOOTH",
"578 -2 OFFCURVE",
"722 129 OFFCURVE",
"722 349 CURVE SMOOTH",
"722 550 OFFCURVE",
"594 692 OFFCURVE",
"294 692 CURVE SMOOTH",
"234 692 OFFCURVE",
"155 690 OFFCURVE",
"55 684 CURVE",
"55 7 LINE"
);
},
{
closed = 1;
nodes = (
"276 511 LINE",
"299 513 OFFCURVE",
"317 513 OFFCURVE",
"340 513 CURVE SMOOTH",
"450 513 OFFCURVE",
"498 448 OFFCURVE",
"498 351 CURVE SMOOTH",
"498 245 OFFCURVE",
"447 175 OFFCURVE",
"340 175 CURVE SMOOTH",
"317 175 OFFCURVE",
"299 175 OFFCURVE",
"276 178 CURVE"
);
}
);
};
layerId = UUID0;
paths = (
{
closed = 1;
nodes = (
"284 0 LINE SMOOTH",
"578 0 OFFCURVE",
"722 129 OFFCURVE",
"722 349 CURVE SMOOTH",
"722 550 OFFCURVE",
"594 688 OFFCURVE",
"294 688 CURVE SMOOTH",
"55 688 LINE",
"55 0 LINE"
);
},
{
closed = 1;
nodes = (
"276 513 LINE",
"340 513 LINE SMOOTH",
"450 513 OFFCURVE",
"498 448 OFFCURVE",
"498 351 CURVE SMOOTH",
"498 245 OFFCURVE",
"447 175 OFFCURVE",
"340 175 CURVE SMOOTH",
"276 175 LINE"
);
}
);
width = 748;
}
);
leftKerningGroup = B;
rightKerningGroup = O;
unicode = 0044;
},
{
color = 6;
glyphname = Eth;
lastChange = "2023-02-01 14:43:39 +0000";
layers = (
{
background = {
paths = (
{
closed = 1;
nodes = (
"394 0 LINE SMOOTH",
"617 0 OFFCURVE",
"762 140 OFFCURVE",
"762 349 CURVE SMOOTH",
"762 546 OFFCURVE",
"616 688 OFFCURVE",
"394 688 CURVE SMOOTH",
"95 688 LINE",
"95 387 LINE",
"4 387 LINE",
"4 302 LINE",
"95 302 LINE",
"95 0 LINE"
);
},
{
closed = 1;
nodes = (
"315 302 LINE",
"394 302 LINE",
"394 387 LINE",
"315 387 LINE",
"315 508 LINE",
"383 508 LINE SMOOTH",
"489 508 OFFCURVE",
"537 443 OFFCURVE",
"537 351 CURVE SMOOTH",
"537 254 OFFCURVE",
"487 180 OFFCURVE",
"383 180 CURVE SMOOTH",
"315 180 LINE"
);
}
);
};
components = (
{
name = D;
transform = "{1, 0, 0, 1, 20, 0}";
},
{
name = strokeshortcomb.case;
transform = "{1, 0, 0, 1, 10, -1}";
}
);
layerId = UUID0;
width = 768;
}
);
leftKerningGroup = B;
leftMetricsKey = "=+20";
rightKerningGroup = O;
unicode = 00D0;
},
{
color = 3;
glyphname = E;
lastChange = "2023-02-01 14:44:01 +0000";
layers = (
{
anchors = (
{
name = bottom;
position = "{297, 0}";
},
{
name = ogonek;
position = "{538, 0}";
},
{
name = top;
position = "{297, 688}";
},
{
name = topleft;
position = "{10, 688}";
}
);
background = {
anchors = (
{
name = bottom;
position = "{297, 0}";
},
{
name = ogonek;
position = "{538, 0}";
},
{
name = top;
position = "{297, 688}";
},
{
name = topleft;
position = "{10, 688}";
}
);
paths = (
{
closed = 1;
nodes = (
"538 0 LINE",
"538 152 LINE",
"298 152 LINE",
"298 285 LINE",
"517 285 LINE",
"517 411 LINE",
"298 411 LINE",
"298 536 LINE",
"538 536 LINE",
"538 688 LINE",
"55 688 LINE",
"55 0 LINE"
);
}
);
};
layerId = UUID0;
paths = (
{
closed = 1;
nodes = (
"538 0 LINE",
"538 157 LINE",
"298 157 LINE",
"298 288 LINE",
"517 288 LINE",
"517 414 LINE",
"298 414 LINE",
"298 536 LINE",
"538 536 LINE",
"538 688 LINE",
"55 688 LINE",
"55 0 LINE"
);
}
);
width = 573;
}
);
leftKerningGroup = B;
rightKerningGroup = E;
unicode = 0045;
},
{
color = 3;
glyphname = F;
lastChange = "2023-02-02 11:51:35 +0000";
layers = (
{
anchors = (
{
name = bottom;
position = "{163, 0}";
},
{
name = top;
position = "{292, 688}";
}
);
background = {
anchors = (
{
name = bottom;
position = "{163, 0}";
},
{
name = top;
position = "{292, 688}";
}
);
paths = (
{
closed = 1;
nodes = (
"270 0 LINE",
"270 271 LINE",
"510 271 LINE",
"510 397 LINE",
"270 397 LINE",
"270 536 LINE",
"529 536 LINE",
"529 688 LINE",
"55 688 LINE",
"55 0 LINE"
);
}
);
};
layerId = UUID0;
paths = (
{
closed = 1;
nodes = (
"270 0 LINE",
"270 263 LINE",
"510 263 LINE",
"510 397 LINE",
"270 397 LINE",
"270 536 LINE",
"529 536 LINE",
"529 688 LINE",
"55 688 LINE",
"55 0 LINE"
);
}
);
width = 556;
}
);
leftKerningGroup = B;
unicode = 0046;
},
{
color = 3;
glyphname = G;
lastChange = "2023-02-01 10:33:45 +0000";
layers = (
{
anchors = (
{
name = bottom;
position = "{361, 0}";
},
{
name = top;
position = "{361, 688}";
}
);
background = {
anchors = (
{
name = bottom;
position = "{1251, 0}";
},
{
name = top;
position = "{1251, 688}";
}
);
paths = (
{
closed = 1;
nodes = (
"456 -16 OFFCURVE",
"536 1 OFFCURVE",
"612 36 CURVE",
"612 349 LINE",
"439 329 LINE",
"439 168 LINE",
"427 165 OFFCURVE",
"415 164 OFFCURVE",
"399 164 CURVE SMOOTH",
"309 164 OFFCURVE",
"248 243 OFFCURVE",
"248 347 CURVE SMOOTH",
"248 451 OFFCURVE",
"304 526 OFFCURVE",
"409 526 CURVE SMOOTH",
"453 526 OFFCURVE",
"492 516 OFFCURVE",
"536 498 CURVE",
"602 653 LINE",
"543 686 OFFCURVE",
"467 703 OFFCURVE",
"391 703 CURVE SMOOTH",
"174 703 OFFCURVE",
"26 545 OFFCURVE",
"26 350 CURVE SMOOTH",
"26 146 OFFCURVE",
"175 -16 OFFCURVE",
"381 -16 CURVE SMOOTH"
);
}
);
};
layerId = UUID0;
paths = (
{
closed = 1;
nodes = (
"456 -16 OFFCURVE",
"536 1 OFFCURVE",
"612 36 CURVE",
"612 349 LINE",
"439 329 LINE",
"439 158 LINE",
"427 155 OFFCURVE",
"415 154 OFFCURVE",
"399 154 CURVE SMOOTH",
"311 154 OFFCURVE",
"248 223 OFFCURVE",
"248 340 CURVE SMOOTH",
"248 456 OFFCURVE",
"314 525 OFFCURVE",
"424 525 CURVE SMOOTH",
"469 525 OFFCURVE",
"513 516 OFFCURVE",
"555 498 CURVE",
"585 655 LINE",
"536 688 OFFCURVE",
"473 703 OFFCURVE",
"394 703 CURVE SMOOTH",
"174 703 OFFCURVE",
"26 548 OFFCURVE",
"26 330 CURVE SMOOTH",
"26 126 OFFCURVE",
"165 -16 OFFCURVE",
"381 -16 CURVE SMOOTH"
);
}
);
width = 656;
}
);
leftKerningGroup = C;
rightKerningGroup = G;
unicode = 0047;
},
{
color = 3;
glyphname = H;
lastChange = "2023-02-01 10:33:45 +0000";
layers = (
{
anchors = (
{
name = bottom;
position = "{387, 0}";
},
{
name = center;
position = "{387, 560}";
},
{
name = top;
position = "{387, 688}";
},
{
name = topleft;
position = "{10, 688}";
}
);
background = {
anchors = (
{
name = bottom;
position = "{387, 0}";
},
{
name = center;
position = "{387, 344}";
},
{
name = top;
position = "{387, 688}";
},
{
name = topleft;
position = "{10, 688}";
}
);
paths = (
{
closed = 1;
nodes = (
"280 0 LINE",
"280 270 LINE",
"493 270 LINE",
"493 0 LINE",
"719 0 LINE",
"719 688 LINE",
"493 688 LINE",
"493 414 LINE",
"280 414 LINE",
"280 688 LINE",
"55 688 LINE",
"55 0 LINE"
);
}
);
};
layerId = UUID0;
paths = (
{
closed = 1;
nodes = (
"280 0 LINE",
"280 271 LINE",
"493 271 LINE",
"493 0 LINE",
"719 0 LINE",
"719 688 LINE",
"493 688 LINE",
"493 429 LINE",
"280 429 LINE",
"280 688 LINE",
"55 688 LINE",
"55 0 LINE"
);
}
);
width = 774;
}
);
leftKerningGroup = B;
rightKerningGroup = H;
unicode = 0048;
},
{
color = 6;
glyphname = Hbar;
lastChange = "2023-02-01 14:44:47 +0000";
layers = (
{
background = {
paths = (
{
closed = 1;
nodes = (
"355 0 LINE",
"355 270 LINE",
"568 270 LINE",
"568 0 LINE",
"793 0 LINE",
"793 478 LINE",
"823 478 LINE",
"823 563 LINE",
"793 563 LINE",
"793 672 LINE",
"568 672 LINE",
"568 563 LINE",
"355 563 LINE",
"355 672 LINE",
"130 672 LINE",
"130 563 LINE",
"102 563 LINE",
"102 478 LINE",
"130 478 LINE",
"130 0 LINE"
);
},
{
closed = 1;
nodes = (
"355 478 LINE",
"568 478 LINE",
"568 414 LINE",
"355 414 LINE"
);
}
);
};
components = (
{
name = H;
transform = "{1, 0, 0, 1, 20, 0}";
},
{
name = strokelongcomb.case;
transform = "{1, 0, 0, 1, 5, 39}";
}
);
layerId = UUID0;
width = 814;
}
);
leftKerningGroup = B;
leftMetricsKey = "=+20";
rightKerningGroup = H;
rightMetricsKey = "=+20";
unicode = 0126;
},
{
color = 3;
glyphname = I;
lastChange = "2023-02-01 10:33:45 +0000";
layers = (
{
anchors = (
{
name = bottom;
position = "{168, 0}";
},
{
name = ogonek;
position = "{281, 0}";
},
{
name = top;
position = "{168, 688}";
},
{
name = topleft;
position = "{10, 688}";
}
);
background = {
anchors = (
{
name = bottom;
position = "{171, 0}";
},
{
name = ogonek;
position = "{286, 0}";
},
{
name = top;
position = "{171, 688}";
},
{
name = topleft;
position = "{10, 688}";
}
);
paths = (
{
closed = 1;
nodes = (
"286 0 LINE",
"286 688 LINE",
"55 688 LINE",
"55 0 LINE"
);
}
);
};
layerId = UUID0;
paths = (
{
closed = 1;
nodes = (
"281 0 LINE",
"281 688 LINE",
"55 688 LINE",
"55 0 LINE"
);
}
);
width = 336;
}
);
leftKerningGroup = B;
rightKerningGroup = H;
unicode = 0049;
},
{
color = 3;
glyphname = I_J.loclNLD;
lastChange = "2023-02-01 10:33:45 +0000";
layers = (
{
background = {
paths = (
{
closed = 1;
nodes = (
"567 -16 OFFCURVE",
"681 141 OFFCURVE",
"681 317 CURVE SMOOTH",
"681 688 LINE",
"455 688 LINE",
"455 465 LINE",
"441 406 OFFCURVE",
"411 375 OFFCURVE",
"357 375 CURVE SMOOTH",
"303 375 OFFCURVE",
"267 414 OFFCURVE",
"267 485 CURVE SMOOTH",
"267 688 LINE",
"41 688 LINE",
"41 485 LINE SMOOTH",
"41 321 OFFCURVE",
"154 224 OFFCURVE",
"291 224 CURVE SMOOTH",
"385 224 OFFCURVE",
"441 259 OFFCURVE",
"469 333 CURVE",
"469 320 LINE SMOOTH",
"469 175 OFFCURVE",
"423 151 OFFCURVE",
"308 151 CURVE SMOOTH",
"255 151 OFFCURVE",
"210 170 OFFCURVE",
"161 189 CURVE",
"115 34 LINE",
"172 1 OFFCURVE",
"248 -16 OFFCURVE",
"336 -16 CURVE SMOOTH"
);
}
);
};
layerId = UUID0;
paths = (
{
closed = 1;
nodes = (
"551 -16 OFFCURVE",
"681 106 OFFCURVE",
"681 307 CURVE SMOOTH",
"681 688 LINE",
"455 688 LINE",
"455 528 LINE SMOOTH",
"455 425 OFFCURVE",
"422 375 OFFCURVE",
"353 375 CURVE SMOOTH",
"298 375 OFFCURVE",
"267 413 OFFCURVE",
"267 481 CURVE SMOOTH",
"267 688 LINE",
"41 688 LINE",
"41 475 LINE SMOOTH",
"41 321 OFFCURVE",
"136 224 OFFCURVE",
"287 224 CURVE SMOOTH",
"378 224 OFFCURVE",
"446 265 OFFCURVE",
"469 333 CURVE",
"469 320 LINE SMOOTH",
"469 201 OFFCURVE",
"428 151 OFFCURVE",
"328 151 CURVE SMOOTH",
"269 151 OFFCURVE",
"213 164 OFFCURVE",
"167 189 CURVE",
"113 38 LINE",
"168 1 OFFCURVE",
"241 -16 OFFCURVE",
"339 -16 CURVE SMOOTH"
);
}
);
width = 722;
}
);
leftKerningGroup = U;
rightKerningGroup = U;
},
{
color = 3;
glyphname = J;
lastChange = "2023-02-02 12:03:01 +0000";
layers = (
{
anchors = (
{
name = bottom;
position = "{207, 0}";
},
{
name = top;
position = "{268, 688}";
}
);
background = {
anchors = (
{
name = bottom;
position = "{207, 0}";
},
{
name = top;
position = "{268, 688}";
}
);
paths = (
{
closed = 1;
nodes = (
"289 -45 OFFCURVE",
"375 47 OFFCURVE",
"375 201 CURVE SMOOTH",
"375 688 LINE",
"160 688 LINE",
"160 201 LINE SMOOTH",
"160 146 OFFCURVE",
"138 118 OFFCURVE",
"93 118 CURVE SMOOTH",
"74 118 OFFCURVE",
"51 123 OFFCURVE",
"25 132 CURVE",
"-22 8 LINE",
"31 -27 OFFCURVE",
"88 -45 OFFCURVE",
"150 -45 CURVE SMOOTH"
);
}
);
};
layerId = UUID0;
paths = (
{
closed = 1;
nodes = (
"295 -16 OFFCURVE",
"375 72 OFFCURVE",
"375 240 CURVE SMOOTH",
"375 688 LINE",
"160 688 LINE",
"160 227 LINE SMOOTH",
"160 175 OFFCURVE",
"138 151 OFFCURVE",
"93 151 CURVE SMOOTH",
"72 151 OFFCURVE",
"49 159 OFFCURVE",
"30 167 CURVE",
"-15 35 LINE",
"22 0 OFFCURVE",
"87 -16 OFFCURVE",
"150 -16 CURVE SMOOTH"
);
}
);
width = 426;
}
);
leftKerningGroup = J;
rightKerningGroup = J;
unicode = 004A;
},
{
color = 4;
glyphname = K;
lastChange = "2023-02-02 11:13:21 +0000";
layers = (
{
anchors = (
{
name = bottom;
position = "{384, 0}";
},
{
name = top;
position = "{384, 688}";
}
);
background = {
paths = (
{
closed = 1;
nodes = (
"287 0 LINE",
"287 265 LINE",
"390 265 LINE",
"334 303 LINE",
"503 0 LINE",
"746 0 LINE",
"746 45 LINE",
"565 347 LINE",
"723 643 LINE",
"723 688 LINE",
"492 688 LINE",
"343 384 LINE",
"390 414 LINE",
"287 414 LINE",
"287 688 LINE",
"55 688 LINE",
"55 0 LINE"
);
}
);
};
layerId = UUID0;
paths = (
{
closed = 1;
nodes = (
"287 0 LINE",
"287 265 LINE",
"390 265 LINE",
"334 303 LINE",
"503 0 LINE",
"767 0 LINE",
"560 347 LINE",
"742 688 LINE",
"492 688 LINE",
"343 384 LINE",
"390 414 LINE",
"287 414 LINE",
"287 688 LINE",
"55 688 LINE",
"55 0 LINE"
);
}
);
width = 742;
}
);
leftKerningGroup = B;
rightKerningGroup = K;
unicode = 004B;
},
{
color = 3;
glyphname = L;
lastChange = "2023-02-01 14:47:04 +0000";
layers = (
{
anchors = (
{
name = bottom;
position = "{283, 0}";
},
{
name = center;
position = "{426, 418}";
},
{
name = stroke;
position = "{185, 392}";
},
{
name = top;
position = "{163, 688}";
},
{
name = topright;
position = "{331, 688}";
}
);
background = {
anchors = (
{
name = bottom;
position = "{283, 0}";
},
{
name = center;
position = "{426, 418}";
},
{
name = top;
position = "{163, 688}";
},
{
name = topright;
position = "{331, 688}";
}
);
paths = (
{
closed = 1;
nodes = (
"510 0 LINE",
"510 152 LINE",
"271 152 LINE",
"271 688 LINE",
"55 688 LINE",
"55 0 LINE"
);
}
);
};
layerId = UUID0;
paths = (
{
closed = 1;
nodes = (
"505 0 LINE",
"515 158 LINE",
"271 158 LINE",
"271 688 LINE",
"55 688 LINE",
"55 0 LINE"
);
}
);
width = 536;
}
);
leftKerningGroup = B;
rightKerningGroup = L;
unicode = 004C;
},
{
color = 6;
glyphname = Lslash;
lastChange = "2023-02-01 14:47:17 +0000";
layers = (
{
background = {
paths = (
{
closed = 1;
nodes = (
"577 0 LINE",
"577 152 LINE",
"338 152 LINE",
"338 377 LINE",
"487 416 LINE",
"487 501 LINE",
"338 462 LINE",
"338 688 LINE",
"123 688 LINE",
"123 408 LINE",
"33 385 LINE",
"33 300 LINE",
"123 323 LINE",
"123 0 LINE"
);
}
);
};
components = (
{
name = L;
transform = "{1, 0, 0, 1, 20, 0}";
},
{
name = slashshortcomb.case;
transform = "{1, 0, 0, 1, -25, -9}";
}
);
layerId = UUID0;
width = 556;
}
);
leftKerningGroup = B;
leftMetricsKey = "=+20";
rightKerningGroup = L;
unicode = 0141;
},
{
color = 3;
glyphname = M;
lastChange = "2023-02-01 10:33:45 +0000";
layers = (
{
anchors = (
{
name = bottom;
position = "{433, 0}";
},
{
name = top;
position = "{433, 688}";
}
);
background = {
anchors = (
{
name = bottom;
position = "{433, 0}";
},
{
name = top;
position = "{433, 688}";
}
);
paths = (
{
closed = 1;
nodes = (
"263 0 LINE",
"263 367 LINE",
"391 127 LINE",
"476 127 LINE",
"603 367 LINE",
"603 0 LINE",
"811 0 LINE",
"811 688 LINE",
"603 688 LINE",
"435 354 LINE",
"263 688 LINE",
"55 688 LINE",
"55 0 LINE"
);
}
);
};
layerId = UUID0;
paths = (
{
closed = 1;
nodes = (
"263 0 LINE",
"263 360 LINE",
"391 120 LINE",
"476 120 LINE",
"603 360 LINE",
"603 0 LINE",
"811 0 LINE",
"811 688 LINE",
"603 688 LINE",
"435 354 LINE",
"263 688 LINE",
"55 688 LINE",
"55 0 LINE"
);
}
);
width = 866;
}
);
leftKerningGroup = B;
rightKerningGroup = H;
unicode = 004D;
},
{
color = 3;
glyphname = N;
lastChange = "2023-02-01 10:33:45 +0000";
layers = (
{
anchors = (
{
name = bottom;
position = "{382, 0}";
},
{
name = top;
position = "{382, 688}";
}
);
background = {
anchors = (
{
name = bottom;
position = "{382, 0}";
},
{
name = top;
position = "{382, 688}";
}
);
paths = (
{
closed = 1;
nodes = (
"233 0 LINE",
"233 358 LINE",
"509 0 LINE",
"709 0 LINE",
"709 688 LINE",
"530 688 LINE",
"530 317 LINE",
"256 688 LINE",
"55 688 LINE",
"55 0 LINE"
);
}
);
};
layerId = UUID0;
paths = (
{
closed = 1;
nodes = (
"239 0 LINE",
"239 453 LINE",
"175 433 LINE",
"509 0 LINE",
"709 0 LINE",
"709 688 LINE",
"525 688 LINE",
"525 222 LINE",
"586 241 LINE",
"255 688 LINE",
"55 688 LINE",
"55 0 LINE"
);
}
);
width = 764;
}
);
leftKerningGroup = B;
rightKerningGroup = H;
unicode = 004E;
},
{
color = 3;
glyphname = Eng;
lastChange = "2023-02-01 10:33:45 +0000";
layers = (
{
background = {
paths = (
{
closed = 1;
nodes = (
"638 -248 OFFCURVE",
"709 -155 OFFCURVE",
"709 -3 CURVE SMOOTH",
"709 688 LINE",
"530 688 LINE",
"530 317 LINE",
"256 688 LINE",
"55 688 LINE",
"55 0 LINE",
"233 0 LINE",
"233 358 LINE",
"530 -26 LINE",
"527 -73 OFFCURVE",
"509 -96 OFFCURVE",
"474 -96 CURVE SMOOTH",
"441 -96 OFFCURVE",
"421 -91 OFFCURVE",
"396 -81 CURVE",
"353 -207 LINE",
"401 -234 OFFCURVE",
"459 -248 OFFCURVE",
"522 -248 CURVE SMOOTH"
);
}
);
};
layerId = UUID0;
paths = (
{
closed = 1;
nodes = (
"709 688 LINE",
"525 688 LINE",
"525 222 LINE",
"586 241 LINE",
"255 688 LINE",
"55 688 LINE",
"55 0 LINE",
"239 0 LINE",
"239 453 LINE",
"175 433 LINE",
"544 -42 LINE",
"525 109 LINE",
"525 36 LINE SMOOTH",
"525 -6 OFFCURVE",
"503 -28 OFFCURVE",
"458 -28 CURVE SMOOTH",
"437 -28 OFFCURVE",
"414 -20 OFFCURVE",
"395 -12 CURVE",
"350 -140 LINE",
"384 -169 OFFCURVE",
"444 -185 OFFCURVE",
"502 -185 CURVE SMOOTH",
"635 -185 OFFCURVE",
"709 -97 OFFCURVE",
"709 51 CURVE SMOOTH"
);
}
);
width = 764;
}
);
leftKerningGroup = B;
rightKerningGroup = H;
unicode = 014A;
},
{
color = 3;
glyphname = O;
lastChange = "2023-02-02 12:03:07 +0000";
layers = (
{
anchors = (
{
name = bottom;
position = "{394, 0}";
},
{
name = center;
position = "{394, 344}";
},
{
name = ogonek;
position = "{541, 10}";
},
{
name = top;
position = "{394, 688}";
},
{
name = topleft;
position = "{15, 688}";
},
{
name = topright;
position = "{773, 688}";
}
);
background = {
anchors = (
{
name = bottom;
position = "{394, 0}";
},
{
name = center;
position = "{394, 344}";
},
{
name = ogonek;
position = "{541, 10}";
},
{
name = top;
position = "{394, 688}";
},
{
name = topleft;
position = "{15, 688}";
},
{
name = topright;
position = "{773, 688}";
}
);
paths = (
{
closed = 1;
nodes = (
"612 -16 OFFCURVE",
"762 134 OFFCURVE",
"762 343 CURVE SMOOTH",
"762 557 OFFCURVE",
"612 703 OFFCURVE",
"394 703 CURVE SMOOTH",
"176 703 OFFCURVE",
"26 555 OFFCURVE",
"26 343 CURVE SMOOTH",
"26 133 OFFCURVE",
"176 -16 OFFCURVE",
"394 -16 CURVE SMOOTH"
);
},
{
closed = 1;
nodes = (
"309 166 OFFCURVE",
"250 237 OFFCURVE",
"250 344 CURVE SMOOTH",
"250 451 OFFCURVE",
"309 527 OFFCURVE",
"393 527 CURVE SMOOTH",
"478 527 OFFCURVE",
"538 451 OFFCURVE",
"538 344 CURVE SMOOTH",
"538 237 OFFCURVE",
"478 166 OFFCURVE",
"394 166 CURVE SMOOTH"
);
}
);
};
layerId = UUID0;
paths = (
{
closed = 1;
nodes = (
"612 -16 OFFCURVE",
"762 134 OFFCURVE",
"762 343 CURVE SMOOTH",
"762 557 OFFCURVE",
"612 703 OFFCURVE",
"394 703 CURVE SMOOTH",
"176 703 OFFCURVE",
"26 555 OFFCURVE",
"26 343 CURVE SMOOTH",
"26 133 OFFCURVE",
"176 -16 OFFCURVE",
"394 -16 CURVE SMOOTH"
);
},
{
closed = 1;
nodes = (
"309 166 OFFCURVE",
"250 237 OFFCURVE",
"250 344 CURVE SMOOTH",
"250 453 OFFCURVE",
"309 527 OFFCURVE",
"393 527 CURVE SMOOTH",
"478 527 OFFCURVE",
"538 451 OFFCURVE",
"538 344 CURVE SMOOTH",
"538 237 OFFCURVE",
"478 166 OFFCURVE",
"394 166 CURVE SMOOTH"
);
}
);
width = 788;
}
);
leftKerningGroup = C;
rightKerningGroup = O;
unicode = 004F;
},
{
color = 6;
glyphname = Oslash;
lastChange = "2023-02-01 10:33:45 +0000";
layers = (
{
anchors = (
{
name = bottom;
position = "{400, 0}";
},
{
name = top;
position = "{400, 688}";
}
);
background = {
anchors = (
{
name = bottom;
position = "{400, 0}";
},
{
name = top;
position = "{400, 688}";
}
);
paths = (
{
closed = 1;
nodes = (
"307 -126 LINE",
"340 -12 LINE",
"359 -15 OFFCURVE",
"379 -16 OFFCURVE",
"399 -16 CURVE SMOOTH",
"617 -16 OFFCURVE",
"767 134 OFFCURVE",
"767 343 CURVE SMOOTH",
"767 507 OFFCURVE",
"679 632 OFFCURVE",
"539 680 CURVE",
"577 813 LINE",
"492 813 LINE",
"459 699 LINE",
"440 702 OFFCURVE",
"420 703 OFFCURVE",
"399 703 CURVE SMOOTH",
"181 703 OFFCURVE",
"31 555 OFFCURVE",
"31 343 CURVE SMOOTH",
"31 181 OFFCURVE",
"120 56 OFFCURVE",
"260 7 CURVE",
"222 -126 LINE"
);
},
{
closed = 1;
nodes = (
"277 226 OFFCURVE",
"255 278 OFFCURVE",
"255 344 CURVE SMOOTH",
"255 451 OFFCURVE",
"314 527 OFFCURVE",
"398 527 CURVE SMOOTH",
"410 527 LINE",
"314 195 LINE"
);
},
{
closed = 1;
nodes = (
"485 494 LINE",
"521 462 OFFCURVE",
"543 409 OFFCURVE",
"543 344 CURVE SMOOTH",
"543 237 OFFCURVE",
"483 166 OFFCURVE",
"399 166 CURVE SMOOTH",
"391 166 LINE"
);
}
);
};
components = (
{
name = O;
},
{
name = slashlongcomb;
transform = "{1, 0, 0, 1, -6, 0}";
}
);
layerId = UUID0;
width = 788;
}
);
leftKerningGroup = C;
rightKerningGroup = O;
unicode = 00D8;
},
{
color = 3;
glyphname = Ohorn;
lastChange = "2023-02-01 10:33:45 +0000";
layers = (
{
anchors = (
{
name = bottom;
position = "{394, 0}";
},
{
name = top;
position = "{393, 688}";
}
);
background = {
paths = (
{
closed = 1;
nodes = (
"612 -16 OFFCURVE",
"762 134 OFFCURVE",
"762 343 CURVE SMOOTH",
"762 557 OFFCURVE",
"612 703 OFFCURVE",
"394 703 CURVE SMOOTH",
"176 703 OFFCURVE",
"26 555 OFFCURVE",
"26 343 CURVE SMOOTH",
"26 133 OFFCURVE",
"176 -16 OFFCURVE",
"394 -16 CURVE SMOOTH"
);
},
{
closed = 1;
nodes = (
"309 166 OFFCURVE",
"250 237 OFFCURVE",
"250 344 CURVE SMOOTH",
"250 453 OFFCURVE",
"309 527 OFFCURVE",
"393 527 CURVE SMOOTH",
"478 527 OFFCURVE",
"538 451 OFFCURVE",
"538 344 CURVE SMOOTH",
"538 237 OFFCURVE",
"478 166 OFFCURVE",
"394 166 CURVE SMOOTH"
);
}
);
};
layerId = UUID0;
paths = (
{
closed = 1;
nodes = (
"612 -16 OFFCURVE",
"762 134 OFFCURVE",
"762 343 CURVE SMOOTH",
"762 443 OFFCURVE",
"729 530 OFFCURVE",
"664 599 CURVE",
"748 620 OFFCURVE",
"782 670 OFFCURVE",
"782 792 CURVE",
"665 792 LINE",
"665 703 OFFCURVE",
"646 689 OFFCURVE",
"571 689 CURVE SMOOTH",
"506 689 OFFCURVE",
"471 703 OFFCURVE",
"394 703 CURVE SMOOTH",
"176 703 OFFCURVE",
"26 555 OFFCURVE",
"26 343 CURVE SMOOTH",
"26 133 OFFCURVE",
"176 -16 OFFCURVE",
"394 -16 CURVE SMOOTH"
);
},
{
closed = 1;
nodes = (
"309 166 OFFCURVE",
"250 237 OFFCURVE",
"250 344 CURVE SMOOTH",
"250 451 OFFCURVE",
"309 527 OFFCURVE",
"393 527 CURVE SMOOTH",
"478 527 OFFCURVE",
"538 451 OFFCURVE",
"538 344 CURVE SMOOTH",
"538 237 OFFCURVE",
"478 166 OFFCURVE",
"394 166 CURVE SMOOTH"
);
}
);
width = 788;
}
);
leftKerningGroup = C;
rightKerningGroup = O;
unicode = 01A0;
},
{
color = 3;
glyphname = Oogonek;
lastChange = "2023-02-01 10:33:45 +0000";
layers = (
{
anchors = (
{
name = top;
position = "{394, 688}";
}
);
background = {
anchors = (
{
name = top;
position = "{394, 688}";
}
);
paths = (
{
closed = 1;
nodes = (
"474 -238 OFFCURVE",
"507 -233 OFFCURVE",
"538 -220 CURVE",
"537 -162 LINE",
"519 -168 OFFCURVE",
"502 -171 OFFCURVE",
"490 -171 CURVE SMOOTH",
"458 -171 OFFCURVE",
"442 -157 OFFCURVE",
"442 -130 CURVE SMOOTH",
"442 -91 OFFCURVE",
"467 -41 OFFCURVE",
"599 38 CURVE SMOOTH",
"700 99 OFFCURVE",
"762 209 OFFCURVE",
"762 343 CURVE SMOOTH",
"762 557 OFFCURVE",
"612 703 OFFCURVE",
"394 703 CURVE SMOOTH",
"176 703 OFFCURVE",
"26 555 OFFCURVE",
"26 343 CURVE SMOOTH",
"26 133 OFFCURVE",
"176 -16 OFFCURVE",
"394 -16 CURVE SMOOTH",
"415 -16 LINE",
"342 -56 OFFCURVE",
"314 -102 OFFCURVE",
"314 -148 CURVE SMOOTH",
"314 -202 OFFCURVE",
"359 -238 OFFCURVE",
"445 -238 CURVE SMOOTH"
);
},
{
closed = 1;
nodes = (
"309 166 OFFCURVE",
"250 237 OFFCURVE",
"250 344 CURVE SMOOTH",
"250 451 OFFCURVE",
"309 527 OFFCURVE",
"393 527 CURVE SMOOTH",
"478 527 OFFCURVE",
"538 451 OFFCURVE",
"538 344 CURVE SMOOTH",
"538 237 OFFCURVE",
"478 166 OFFCURVE",
"394 166 CURVE SMOOTH"
);
}
);
};
layerId = UUID0;
paths = (
{
closed = 1;
nodes = (
"474 -238 OFFCURVE",
"507 -233 OFFCURVE",
"538 -220 CURVE",
"537 -162 LINE",
"519 -168 OFFCURVE",
"502 -171 OFFCURVE",
"490 -171 CURVE SMOOTH",
"458 -171 OFFCURVE",
"442 -157 OFFCURVE",
"442 -130 CURVE SMOOTH",
"442 -91 OFFCURVE",
"467 -41 OFFCURVE",
"599 38 CURVE SMOOTH",
"700 99 OFFCURVE",
"762 209 OFFCURVE",
"762 343 CURVE SMOOTH",
"762 557 OFFCURVE",
"612 703 OFFCURVE",
"394 703 CURVE SMOOTH",
"176 703 OFFCURVE",
"26 555 OFFCURVE",
"26 343 CURVE SMOOTH",
"26 133 OFFCURVE",
"176 -16 OFFCURVE",
"394 -16 CURVE SMOOTH",
"415 -16 LINE",
"342 -56 OFFCURVE",
"314 -102 OFFCURVE",
"314 -148 CURVE SMOOTH",
"314 -202 OFFCURVE",
"359 -238 OFFCURVE",
"445 -238 CURVE SMOOTH"
);
},
{
closed = 1;
nodes = (
"309 166 OFFCURVE",
"250 237 OFFCURVE",
"250 344 CURVE SMOOTH",
"250 451 OFFCURVE",
"309 527 OFFCURVE",
"393 527 CURVE SMOOTH",
"478 527 OFFCURVE",
"538 451 OFFCURVE",
"538 344 CURVE SMOOTH",
"538 237 OFFCURVE",
"478 166 OFFCURVE",
"394 166 CURVE SMOOTH"
);
}
);
width = 788;
}
);
leftKerningGroup = C;
rightKerningGroup = O;
unicode = 01EA;
},
{
color = 3;
glyphname = OE;
lastChange = "2023-02-01 14:44:10 +0000";
layers = (
{
anchors = (
{
name = bottom;
position = "{507, 0}";
},
{
name = top;
position = "{507, 688}";
}
);
background = {
anchors = (
{
name = bottom;
position = "{1707, 0}";
},
{
name = top;
position = "{1707, 688}";
}
);
paths = (
{
closed = 1;
nodes = (
"1584 -16 OFFCURVE",
"1646 2 OFFCURVE",
"1690 33 CURVE",
"1690 0 LINE",
"2171 0 LINE",
"2171 150 LINE",
"1931 150 LINE",
"1931 285 LINE",
"2150 285 LINE",
"2150 411 LINE",
"1931 411 LINE",
"1931 536 LINE",
"2171 536 LINE",
"2171 688 LINE",
"1693 688 LINE",
"1693 655 LINE",
"1651 687 OFFCURVE",
"1601 703 OFFCURVE",
"1543 703 CURVE SMOOTH",
"1357 703 OFFCURVE",
"1226 547 OFFCURVE",
"1226 342 CURVE SMOOTH",
"1226 137 OFFCURVE",
"1357 -16 OFFCURVE",
"1535 -16 CURVE SMOOTH"
);
},
{
closed = 1;
nodes = (
"1502 165 OFFCURVE",
"1450 232 OFFCURVE",
"1450 344 CURVE SMOOTH",
"1450 456 OFFCURVE",
"1502 526 OFFCURVE",
"1582 526 CURVE SMOOTH",
"1618 526 OFFCURVE",
"1651 518 OFFCURVE",
"1690 500 CURVE",
"1690 191 LINE",
"1651 172 OFFCURVE",
"1618 165 OFFCURVE",
"1582 165 CURVE SMOOTH"
);
},
{
closed = 1;
nodes = (
"973 0 LINE",
"973 157 LINE",
"733 157 LINE",
"733 288 LINE",
"952 288 LINE",
"952 414 LINE",
"733 414 LINE",
"733 536 LINE",
"973 536 LINE",
"973 688 LINE",
"490 688 LINE",
"490 0 LINE"
);
}
);
};
layerId = UUID0;
paths = (
{
closed = 1;
nodes = (
"384 -16 OFFCURVE",
"446 2 OFFCURVE",
"490 33 CURVE",
"490 0 LINE",
"973 0 LINE",
"973 157 LINE",
"733 157 LINE",
"733 288 LINE",
"952 288 LINE",
"952 414 LINE",
"733 414 LINE",
"733 536 LINE",
"973 536 LINE",
"973 688 LINE",
"493 688 LINE",
"493 655 LINE",
"451 687 OFFCURVE",
"401 703 OFFCURVE",
"343 703 CURVE SMOOTH",
"157 703 OFFCURVE",
"26 547 OFFCURVE",
"26 342 CURVE SMOOTH",
"26 137 OFFCURVE",
"147 -16 OFFCURVE",
"335 -16 CURVE SMOOTH"
);
},
{
closed = 1;
nodes = (
"302 165 OFFCURVE",
"250 232 OFFCURVE",
"250 344 CURVE SMOOTH",
"250 456 OFFCURVE",
"312 526 OFFCURVE",
"402 526 CURVE SMOOTH",
"428 526 OFFCURVE",
"461 518 OFFCURVE",
"490 500 CURVE",
"490 191 LINE",
"461 172 OFFCURVE",
"428 165 OFFCURVE",
"392 165 CURVE SMOOTH"
);
}
);
width = 1008;
}
);
leftKerningGroup = C;
rightKerningGroup = E;
rightMetricsKey = E;
unicode = 0152;
},
{
color = 3;
glyphname = P;
lastChange = "2023-02-01 10:33:45 +0000";
layers = (
{
anchors = (
{
name = bottom;
position = "{315, 0}";
},
{
name = top;
position = "{315, 688}";
}
);
background = {
anchors = (
{
name = bottom;
position = "{315, 0}";
},
{
name = top;
position = "{315, 688}";
}
);
paths = (
{
closed = 1;
nodes = (
"271 0 LINE",
"271 235 LINE",
"313 235 LINE SMOOTH",
"487 235 OFFCURVE",
"626 320 OFFCURVE",
"626 460 CURVE SMOOTH",
"626 604 OFFCURVE",
"509 688 OFFCURVE",
"303 688 CURVE SMOOTH",
"55 688 LINE",
"55 0 LINE"
);
},
{
closed = 1;
nodes = (
"295 374 OFFCURVE",
"281 375 OFFCURVE",
"271 376 CURVE",
"271 544 LINE",
"314 544 LINE SMOOTH",
"386 544 OFFCURVE",
"425 516 OFFCURVE",
"425 460 CURVE SMOOTH",
"425 403 OFFCURVE",
"383 374 OFFCURVE",
"314 374 CURVE SMOOTH"
);
}
);
};
layerId = UUID0;
paths = (
{
closed = 1;
nodes = (
"276 0 LINE",
"276 235 LINE",
"328 235 LINE SMOOTH",
"512 235 OFFCURVE",
"631 320 OFFCURVE",
"631 470 CURVE SMOOTH",
"631 614 OFFCURVE",
"514 689 OFFCURVE",
"288 689 CURVE SMOOTH",
"55 689 LINE",
"55 0 LINE"
);
},
{
closed = 1;
nodes = (
"276 374 LINE",
"276 544 LINE",
"321 544 LINE",
"391 544 OFFCURVE",
"430 516 OFFCURVE",
"430 462 CURVE SMOOTH",
"430 403 OFFCURVE",
"390 374 OFFCURVE",
"319 374 CURVE"
);
}
);
width = 647;
}
);
leftKerningGroup = B;
unicode = 0050;
},
{
color = 3;
glyphname = Thorn;
lastChange = "2023-02-01 14:50:17 +0000";
layers = (
{
background = {
paths = (
{
closed = 1;
nodes = (
"276 0 LINE",
"276 145 LINE",
"328 145 LINE SMOOTH",
"512 145 OFFCURVE",
"631 230 OFFCURVE",
"631 380 CURVE SMOOTH",
"631 524 OFFCURVE",
"514 599 OFFCURVE",
"288 599 CURVE SMOOTH",
"55 599 LINE",
"55 0 LINE"
);
},
{
closed = 1;
nodes = (
"276 284 LINE",
"276 454 LINE",
"321 454 LINE",
"391 454 OFFCURVE",
"430 426 OFFCURVE",
"430 372 CURVE SMOOTH",
"430 313 OFFCURVE",
"390 284 OFFCURVE",
"319 284 CURVE"
);
}
);
};
layerId = UUID0;
paths = (
{
closed = 1;
nodes = (
"276 599 LINE",
"276 688 LINE",
"55 688 LINE",
"55 0 LINE",
"276 0 LINE",
"276 145 LINE",
"328 145 LINE SMOOTH",
"512 145 OFFCURVE",
"631 230 OFFCURVE",
"631 380 CURVE SMOOTH",
"631 524 OFFCURVE",
"514 599 OFFCURVE",
"288 599 CURVE SMOOTH"
);
},
{
closed = 1;
nodes = (
"276 284 LINE",
"276 454 LINE",
"321 454 LINE SMOOTH",
"391 454 OFFCURVE",
"430 426 OFFCURVE",
"430 372 CURVE SMOOTH",
"430 313 OFFCURVE",
"390 284 OFFCURVE",
"319 284 CURVE SMOOTH"
);
}
);
width = 647;
}
);
leftKerningGroup = B;
unicode = 00DE;
},
{
color = 3;
glyphname = Q;
lastChange = "2023-02-02 12:03:34 +0000";
layers = (
{
anchors = (
{
name = bottom;
position = "{394, 0}";
},
{
name = top;
position = "{394, 688}";
}
);
background = {
paths = (
{
closed = 1;
nodes = (
"794 -82 LINE",
"794 -44 LINE",
"634 61 LINE",
"718 131 OFFCURVE",
"762 233 OFFCURVE",
"762 343 CURVE SMOOTH",
"762 557 OFFCURVE",
"612 703 OFFCURVE",
"394 703 CURVE SMOOTH",
"176 703 OFFCURVE",
"26 555 OFFCURVE",
"26 343 CURVE SMOOTH",
"26 133 OFFCURVE",
"176 -16 OFFCURVE",
"393 -16 CURVE SMOOTH",
"399 -16 OFFCURVE",
"409 -15 OFFCURVE",
"415 -14 CURVE",
"668 -180 LINE"
);
},
{
closed = 1;
nodes = (
"309 166 OFFCURVE",
"250 237 OFFCURVE",
"250 344 CURVE SMOOTH",
"250 453 OFFCURVE",
"309 527 OFFCURVE",
"393 527 CURVE SMOOTH",
"478 527 OFFCURVE",
"538 451 OFFCURVE",
"538 344 CURVE SMOOTH",
"538 237 OFFCURVE",
"478 166 OFFCURVE",
"394 166 CURVE SMOOTH"
);
}
);
};
layerId = UUID0;
paths = (
{
closed = 1;
nodes = (
"821 -61 LINE",
"634 61 LINE",
"718 131 OFFCURVE",
"762 233 OFFCURVE",
"762 343 CURVE SMOOTH",
"762 557 OFFCURVE",
"612 703 OFFCURVE",
"394 703 CURVE SMOOTH",
"176 703 OFFCURVE",
"26 555 OFFCURVE",
"26 343 CURVE SMOOTH",
"26 133 OFFCURVE",
"176 -16 OFFCURVE",
"393 -16 CURVE SMOOTH",
"399 -16 OFFCURVE",
"409 -15 OFFCURVE",
"415 -14 CURVE",
"668 -180 LINE"
);
},
{
closed = 1;
nodes = (
"309 166 OFFCURVE",
"250 237 OFFCURVE",
"250 344 CURVE SMOOTH",
"250 453 OFFCURVE",
"309 527 OFFCURVE",
"393 527 CURVE SMOOTH",
"478 527 OFFCURVE",
"538 451 OFFCURVE",
"538 344 CURVE SMOOTH",
"538 237 OFFCURVE",
"478 166 OFFCURVE",
"394 166 CURVE SMOOTH"
);
}
);
width = 788;
}
);
leftKerningGroup = C;
rightKerningGroup = O;
unicode = 0051;
},
{
color = 4;
glyphname = R;
lastChange = "2023-02-02 11:52:14 +0000";
layers = (
{
anchors = (
{
name = bottom;
position = "{339, 0}";
},
{
name = top;
position = "{339, 688}";
}
);
background = {
paths = (
{
closed = 1;
nodes = (
"615 -16 OFFCURVE",
"643 -8 OFFCURVE",
"670 3 CURVE",
"658 167 LINE",
"643 163 OFFCURVE",
"629 161 OFFCURVE",
"614 161 CURVE SMOOTH",
"569 161 OFFCURVE",
"545 177 OFFCURVE",
"528 225 CURVE SMOOTH",
"520 248 OFFCURVE",
"517 263 OFFCURVE",
"512 292 CURVE",
"607 333 OFFCURVE",
"647 396 OFFCURVE",
"647 475 CURVE SMOOTH",
"647 606 OFFCURVE",
"557 688 OFFCURVE",
"338 688 CURVE SMOOTH",
"55 688 LINE",
"55 0 LINE",
"274 0 LINE",
"274 264 LINE",
"321 264 LINE",
"326 229 OFFCURVE",
"331 190 OFFCURVE",
"339 158 CURVE SMOOTH",
"368 42 OFFCURVE",
"447 -16 OFFCURVE",
"576 -16 CURVE SMOOTH"
);
},
{
closed = 1;
nodes = (
"274 539 LINE",
"343 539 LINE SMOOTH",
"415 539 OFFCURVE",
"447 519 OFFCURVE",
"447 474 CURVE SMOOTH",
"447 421 OFFCURVE",
"411 401 OFFCURVE",
"312 401 CURVE SMOOTH",
"274 401 LINE"
);
}
);
};
layerId = UUID0;
paths = (
{
closed = 1;
nodes = (
"615 -16 OFFCURVE",
"643 -8 OFFCURVE",
"670 3 CURVE",
"658 167 LINE",
"643 163 OFFCURVE",
"629 161 OFFCURVE",
"614 161 CURVE SMOOTH",
"569 161 OFFCURVE",
"545 177 OFFCURVE",
"528 225 CURVE SMOOTH",
"520 248 OFFCURVE",
"517 263 OFFCURVE",
"512 292 CURVE",
"607 333 OFFCURVE",
"647 396 OFFCURVE",
"647 475 CURVE SMOOTH",
"647 606 OFFCURVE",
"557 688 OFFCURVE",
"338 688 CURVE SMOOTH",
"55 688 LINE",
"55 0 LINE",
"274 0 LINE",
"274 264 LINE",
"321 264 LINE",
"334 107 OFFCURVE",
"385 -16 OFFCURVE",
"576 -16 CURVE SMOOTH"
);
},
{
closed = 1;
nodes = (
"274 539 LINE",
"343 539 LINE SMOOTH",
"415 539 OFFCURVE",
"447 519 OFFCURVE",
"447 474 CURVE SMOOTH",
"447 421 OFFCURVE",
"411 401 OFFCURVE",
"312 401 CURVE SMOOTH",
"274 401 LINE"
);
}
);
width = 676;
}
);
leftKerningGroup = B;
rightKerningGroup = R;
unicode = 0052;
},
{
color = 4;
glyphname = S;
lastChange = "2023-02-01 14:54:17 +0000";
layers = (
{
anchors = (
{
name = bottom;
position = "{303, 0}";
},
{
name = top;
position = "{303, 688}";
}
);
background = {
paths = (
{
closed = 1;
nodes = (
"444 -16 OFFCURVE",
"550 71 OFFCURVE",
"550 226 CURVE SMOOTH",
"550 450 OFFCURVE",
"232 419 OFFCURVE",
"232 495 CURVE SMOOTH",
"232 521 OFFCURVE",
"262 535 OFFCURVE",
"318 535 CURVE SMOOTH",
"366 535 OFFCURVE",
"418 525 OFFCURVE",
"476 499 CURVE",
"530 649 LINE",
"484 683 OFFCURVE",
"402 703 OFFCURVE",
"324 703 CURVE SMOOTH",
"137 703 OFFCURVE",
"26 613 OFFCURVE",
"26 469 CURVE SMOOTH",
"26 239 OFFCURVE",
"346 280 OFFCURVE",
"346 202 CURVE SMOOTH",
"346 173 OFFCURVE",
"318 158 OFFCURVE",
"268 158 CURVE SMOOTH",
"208 158 OFFCURVE",
"132 173 OFFCURVE",
"73 197 CURVE",
"17 38 LINE",
"77 3 OFFCURVE",
"171 -16 OFFCURVE",
"255 -16 CURVE SMOOTH"
);
}
);
};
layerId = UUID0;
paths = (
{
closed = 1;
nodes = (
"444 -16 OFFCURVE",
"550 71 OFFCURVE",
"550 226 CURVE SMOOTH",
"550 450 OFFCURVE",
"232 419 OFFCURVE",
"232 495 CURVE SMOOTH",
"232 521 OFFCURVE",
"262 539 OFFCURVE",
"318 539 CURVE SMOOTH",
"366 539 OFFCURVE",
"418 527 OFFCURVE",
"486 499 CURVE",
"520 646 LINE",
"474 680 OFFCURVE",
"392 703 OFFCURVE",
"314 703 CURVE SMOOTH",
"137 703 OFFCURVE",
"26 613 OFFCURVE",
"26 469 CURVE SMOOTH",
"26 239 OFFCURVE",
"346 280 OFFCURVE",
"346 202 CURVE SMOOTH",
"346 173 OFFCURVE",
"318 154 OFFCURVE",
"265 154 CURVE SMOOTH",
"208 154 OFFCURVE",
"140 162 OFFCURVE",
"63 204 CURVE",
"27 41 LINE",
"87 6 OFFCURVE",
"181 -16 OFFCURVE",
"265 -16 CURVE SMOOTH"
);
}
);
width = 563;
}
);
leftKerningGroup = S;
rightKerningGroup = S;
unicode = 0053;
},
{
color = 4;
glyphname = Germandbls;
lastChange = "2023-02-01 14:55:20 +0000";
layers = (
{
background = {
paths = (
{
closed = 1;
nodes = (
"592 -29 OFFCURVE",
"711 59 OFFCURVE",
"711 188 CURVE SMOOTH",
"711 277 OFFCURVE",
"638 359 OFFCURVE",
"519 402 CURVE",
"596 449 OFFCURVE",
"626 493 OFFCURVE",
"626 554 CURVE SMOOTH",
"626 643 OFFCURVE",
"512 703 OFFCURVE",
"344 703 CURVE SMOOTH",
"248 703 OFFCURVE",
"155 689 OFFCURVE",
"55 661 CURVE",
"55 0 LINE",
"278 0 LINE",
"278 541 LINE",
"303 548 OFFCURVE",
"328 550 OFFCURVE",
"349 550 CURVE SMOOTH",
"395 550 OFFCURVE",
"419 534 OFFCURVE",
"419 510 CURVE SMOOTH",
"419 476 OFFCURVE",
"399 454 OFFCURVE",
"347 423 CURVE",
"347 321 LINE",
"436 312 OFFCURVE",
"487 269 OFFCURVE",
"487 208 CURVE SMOOTH",
"487 160 OFFCURVE",
"450 131 OFFCURVE",
"393 131 CURVE SMOOTH",
"369 131 OFFCURVE",
"351 133 OFFCURVE",
"327 138 CURVE",
"327 -18 LINE",
"348 -24 OFFCURVE",
"378 -29 OFFCURVE",
"434 -29 CURVE SMOOTH"
);
}
);
};
layerId = UUID0;
paths = (
{
closed = 1;
nodes = (
"612 -17 OFFCURVE",
"711 71 OFFCURVE",
"711 200 CURVE SMOOTH",
"711 279 OFFCURVE",
"657 365 OFFCURVE",
"519 402 CURVE",
"596 443 OFFCURVE",
"626 493 OFFCURVE",
"626 554 CURVE SMOOTH",
"626 643 OFFCURVE",
"532 703 OFFCURVE",
"344 703 CURVE SMOOTH",
"248 703 OFFCURVE",
"155 689 OFFCURVE",
"55 661 CURVE",
"55 0 LINE",
"278 0 LINE",
"278 541 LINE",
"303 548 OFFCURVE",
"328 550 OFFCURVE",
"349 550 CURVE SMOOTH",
"395 550 OFFCURVE",
"419 534 OFFCURVE",
"419 510 CURVE SMOOTH",
"419 476 OFFCURVE",
"399 454 OFFCURVE",
"346 443 CURVE",
"346 316 LINE",
"446 312 OFFCURVE",
"487 271 OFFCURVE",
"487 220 CURVE SMOOTH",
"487 172 OFFCURVE",
"450 143 OFFCURVE",
"403 143 CURVE SMOOTH",
"379 143 OFFCURVE",
"361 145 OFFCURVE",
"337 150 CURVE",
"327 -6 LINE",
"348 -12 OFFCURVE",
"378 -17 OFFCURVE",
"434 -17 CURVE SMOOTH"
);
}
);
width = 736;
}
);
unicode = 1E9E;
},
{
color = 3;
glyphname = Schwa;
lastChange = "2019-06-16 19:47:07 +0000";
layers = (
{
background = {
paths = (
{
closed = 1;
nodes = (
"585 -16 OFFCURVE",
"735 134 OFFCURVE",
"735 343 CURVE SMOOTH",
"735 557 OFFCURVE",
"585 703 OFFCURVE",
"356 703 CURVE SMOOTH",
"277 703 OFFCURVE",
"194 687 OFFCURVE",
"116 643 CURVE",
"154 489 LINE",
"223 513 OFFCURVE",
"262 522 OFFCURVE",
"323 522 CURVE SMOOTH",
"418 522 OFFCURVE",
"479 491 OFFCURVE",
"500 416 CURVE",
"29 361 LINE",
"26 350 OFFCURVE",
"26 339 OFFCURVE",
"26 325 CURVE SMOOTH",
"26 137 OFFCURVE",
"154 -18 OFFCURVE",
"367 -17 CURVE SMOOTH"
);
},
{
closed = 1;
nodes = (
"293 142 OFFCURVE",
"243 181 OFFCURVE",
"232 240 CURVE",
"510 287 LINE",
"509 201 OFFCURVE",
"465 142 OFFCURVE",
"365 142 CURVE SMOOTH"
);
}
);
};
layerId = UUID0;
paths = (
{
closed = 1;
nodes = (
"585 -16 OFFCURVE",
"735 134 OFFCURVE",
"735 343 CURVE SMOOTH",
"735 557 OFFCURVE",
"585 703 OFFCURVE",
"356 703 CURVE SMOOTH",
"277 703 OFFCURVE",
"194 687 OFFCURVE",
"116 643 CURVE",
"154 489 LINE",
"223 513 OFFCURVE",
"272 522 OFFCURVE",
"333 522 CURVE SMOOTH",
"418 522 OFFCURVE",
"479 491 OFFCURVE",
"500 416 CURVE",
"29 361 LINE",
"26 350 OFFCURVE",
"26 339 OFFCURVE",
"26 325 CURVE SMOOTH",
"26 127 OFFCURVE",
"154 -18 OFFCURVE",
"377 -17 CURVE SMOOTH"
);
},
{
closed = 1;
nodes = (
"293 142 OFFCURVE",
"243 181 OFFCURVE",
"232 240 CURVE",
"510 287 LINE",
"509 201 OFFCURVE",
"465 142 OFFCURVE",
"365 142 CURVE SMOOTH"
);
}
);
width = 761;
}
);
leftKerningGroup = C;
rightKerningGroup = O;
unicode = 018F;
},
{
color = 3;
glyphname = T;
lastChange = "2023-02-02 13:23:53 +0000";
layers = (
{
anchors = (
{
name = bottom;
position = "{280, 0}";
},
{
name = stroke;
position = "{280, 344}";
},
{
name = top;
position = "{280, 688}";
}
);
background = {
anchors = (
{
name = bottom;
position = "{280, 0}";
},
{
name = center;
position = "{280, 344}";
},
{
name = top;
position = "{280, 688}";
}
);
paths = (
{
closed = 1;
nodes = (
"396 0 LINE",
"396 536 LINE",
"539 536 LINE",
"539 688 LINE",
"20 688 LINE",
"20 536 LINE",
"163 536 LINE",
"163 0 LINE"
);
}
);
};
layerId = UUID0;
paths = (
{
closed = 1;
nodes = (
"396 0 LINE",
"396 530 LINE",
"551 530 LINE",
"551 688 LINE",
"8 688 LINE",
"8 530 LINE",
"163 530 LINE",
"163 0 LINE"
);
}
);
width = 559;
}
);
leftKerningGroup = T;
rightKerningGroup = T;
unicode = 0054;
},
{
color = 6;
glyphname = Tbar;
lastChange = "2023-02-01 10:33:45 +0000";
layers = (
{
background = {
paths = (
{
closed = 1;
nodes = (
"405 0 LINE",
"405 283 LINE",
"495 283 LINE",
"495 368 LINE",
"405 368 LINE",
"405 536 LINE",
"548 536 LINE",
"548 688 LINE",
"29 688 LINE",
"29 536 LINE",
"172 536 LINE",
"172 368 LINE",
"82 368 LINE",
"82 283 LINE",
"172 283 LINE",
"172 0 LINE"
);
}
);
};
components = (
{
name = T;
},
{
name = strokeshortcomb.case;
transform = "{1, 0, 0, 1, 85, -1}";
}
);
layerId = UUID0;
width = 559;
}
);
leftKerningGroup = T;
rightKerningGroup = T;
unicode = 0166;
},
{
color = 3;
glyphname = U;
lastChange = "2023-02-02 12:03:47 +0000";
layers = (
{
anchors = (
{
name = bottom;
position = "{381, 0}";
},
{
name = ogonek;
position = "{529, 10}";
},
{
name = top;
position = "{381, 688}";
},
{
name = topright;
position = "{760, 688}";
}
);
background = {
anchors = (
{
name = bottom;
position = "{381, 0}";
},
{
name = ogonek;
position = "{529, 10}";
},
{
name = top;
position = "{381, 688}";
},
{
name = topright;
position = "{760, 688}";
}
);
paths = (
{
closed = 1;
nodes = (
"582 -16 OFFCURVE",
"721 107 OFFCURVE",
"721 285 CURVE SMOOTH",
"721 688 LINE",
"495 688 LINE",
"495 285 LINE SMOOTH",
"495 207 OFFCURVE",
"456 165 OFFCURVE",
"381 165 CURVE SMOOTH",
"307 165 OFFCURVE",
"267 205 OFFCURVE",
"267 285 CURVE SMOOTH",
"267 688 LINE",
"41 688 LINE",
"41 285 LINE SMOOTH",
"41 107 OFFCURVE",
"180 -16 OFFCURVE",
"381 -16 CURVE SMOOTH"
);
}
);
};
layerId = UUID0;
paths = (
{
closed = 1;
nodes = (
"578 -16 OFFCURVE",
"721 107 OFFCURVE",
"721 285 CURVE SMOOTH",
"721 688 LINE",
"496 688 LINE",
"496 285 LINE SMOOTH",
"496 210 OFFCURVE",
"456 165 OFFCURVE",
"381 165 CURVE SMOOTH",
"310 165 OFFCURVE",
"263 205 OFFCURVE",
"263 295 CURVE SMOOTH",
"263 688 LINE",
"41 688 LINE",
"41 285 LINE SMOOTH",
"41 97 OFFCURVE",
"176 -16 OFFCURVE",
"377 -16 CURVE SMOOTH"
);
}
);
width = 762;
}
);
leftKerningGroup = U;
rightKerningGroup = U;
unicode = 0055;
},
{
color = 3;
glyphname = Uogonek;
lastChange = "2023-02-01 10:33:45 +0000";
layers = (
{
background = {
paths = (
{
closed = 1;
nodes = (
"578 -16 OFFCURVE",
"721 107 OFFCURVE",
"721 285 CURVE SMOOTH",
"721 688 LINE",
"496 688 LINE",
"496 285 LINE SMOOTH",
"496 210 OFFCURVE",
"456 165 OFFCURVE",
"381 165 CURVE SMOOTH",
"310 165 OFFCURVE",
"263 205 OFFCURVE",
"263 295 CURVE SMOOTH",
"263 688 LINE",
"41 688 LINE",
"41 285 LINE SMOOTH",
"41 97 OFFCURVE",
"176 -16 OFFCURVE",
"377 -16 CURVE SMOOTH"
);
}
);
};
layerId = UUID0;
paths = (
{
closed = 1;
nodes = (
"462 -238 OFFCURVE",
"495 -233 OFFCURVE",
"526 -220 CURVE",
"525 -162 LINE",
"507 -168 OFFCURVE",
"490 -171 OFFCURVE",
"478 -171 CURVE SMOOTH",
"446 -171 OFFCURVE",
"430 -157 OFFCURVE",
"430 -130 CURVE SMOOTH",
"430 -92 OFFCURVE",
"456 -33 OFFCURVE",
"575 33 CURVE SMOOTH",
"655 77 OFFCURVE",
"721 166 OFFCURVE",
"721 285 CURVE SMOOTH",
"721 688 LINE",
"496 688 LINE",
"496 285 LINE SMOOTH",
"496 210 OFFCURVE",
"456 165 OFFCURVE",
"381 165 CURVE SMOOTH",
"310 165 OFFCURVE",
"263 205 OFFCURVE",
"263 295 CURVE SMOOTH",
"263 688 LINE",
"41 688 LINE",
"41 285 LINE SMOOTH",
"41 97 OFFCURVE",
"176 -16 OFFCURVE",
"381 -16 CURVE SMOOTH",
"399 -16 LINE",
"332 -56 OFFCURVE",
"302 -102 OFFCURVE",
"302 -148 CURVE SMOOTH",
"302 -202 OFFCURVE",
"347 -238 OFFCURVE",
"433 -238 CURVE SMOOTH"
);
}
);
width = 762;
}
);
leftKerningGroup = U;
rightKerningGroup = U;
unicode = 0172;
},
{
color = 3;
glyphname = Uhorn;
lastChange = "2023-02-01 14:55:51 +0000";
layers = (
{
anchors = (
{
name = bottom;
position = "{381, 0}";
},
{
name = top;
position = "{381, 688}";
}
);
background = {
paths = (
{
closed = 1;
nodes = (
"578 -16 OFFCURVE",
"721 107 OFFCURVE",
"721 285 CURVE SMOOTH",
"721 688 LINE",
"496 688 LINE",
"496 285 LINE SMOOTH",
"496 210 OFFCURVE",
"456 165 OFFCURVE",
"381 165 CURVE SMOOTH",
"310 165 OFFCURVE",
"263 205 OFFCURVE",
"263 295 CURVE SMOOTH",
"263 688 LINE",
"41 688 LINE",
"41 285 LINE SMOOTH",
"41 97 OFFCURVE",
"176 -16 OFFCURVE",
"377 -16 CURVE SMOOTH"
);
}
);
};
layerId = UUID0;
paths = (
{
closed = 1;
nodes = (
"578 -16 OFFCURVE",
"721 107 OFFCURVE",
"721 285 CURVE SMOOTH",
"721 586 LINE",
"791 607 OFFCURVE",
"826 661 OFFCURVE",
"826 791 CURVE",
"709 791 LINE",
"709 692 OFFCURVE",
"680 688 OFFCURVE",
"605 688 CURVE SMOOTH",
"496 688 LINE",
"496 285 LINE SMOOTH",
"496 210 OFFCURVE",
"456 165 OFFCURVE",
"381 165 CURVE SMOOTH",
"310 165 OFFCURVE",
"263 205 OFFCURVE",
"263 295 CURVE SMOOTH",
"263 688 LINE",
"41 688 LINE",
"41 285 LINE SMOOTH",
"41 97 OFFCURVE",
"176 -16 OFFCURVE",
"377 -16 CURVE SMOOTH"
);
}
);
width = 782;
}
);
leftKerningGroup = U;
rightKerningGroup = U;
unicode = 01AF;
},
{
color = 3;
glyphname = V;
lastChange = "2023-02-02 12:03:26 +0000";
layers = (
{
anchors = (
{
name = bottom;
position = "{331, 0}";
},
{
name = top;
position = "{331, 688}";
}
);
background = {
anchors = (
{
name = bottom;
position = "{331, 0}";
},
{
name = top;
position = "{331, 688}";
}
);
paths = (
{
closed = 1;
nodes = (
"458 0 LINE",
"673 688 LINE",
"437 688 LINE",
"331 259 LINE",
"225 688 LINE",
"-1 688 LINE",
"203 0 LINE"
);
}
);
};
layerId = UUID0;
paths = (
{
closed = 1;
nodes = (
"458 0 LINE",
"673 688 LINE",
"447 688 LINE",
"341 259 LINE",
"235 688 LINE",
"-1 688 LINE",
"203 0 LINE"
);
}
);
width = 667;
}
);
leftKerningGroup = V;
rightKerningGroup = V;
unicode = 0056;
},
{
color = 3;
glyphname = W;
lastChange = "2023-02-01 10:33:45 +0000";
layers = (
{
anchors = (
{
name = bottom;
position = "{497, 0}";
},
{
name = top;
position = "{497, 688}";
}
);
background = {
anchors = (
{
name = bottom;
position = "{497, 0}";
},
{
name = top;
position = "{497, 688}";
}
);
paths = (
{
closed = 1;
nodes = (
"412 0 LINE",
"497 370 LINE",
"582 0 LINE",
"815 0 LINE",
"971 688 LINE",
"746 688 LINE",
"681 249 LINE",
"613 571 LINE",
"380 571 LINE",
"313 249 LINE",
"248 688 LINE",
"23 688 LINE",
"179 0 LINE"
);
}
);
};
layerId = UUID0;
paths = (
{
closed = 1;
nodes = (
"412 0 LINE",
"497 377 LINE",
"582 0 LINE",
"815 0 LINE",
"971 688 LINE",
"746 688 LINE",
"681 259 LINE",
"613 571 LINE",
"380 571 LINE",
"313 259 LINE",
"248 688 LINE",
"23 688 LINE",
"179 0 LINE"
);
}
);
width = 994;
}
);
leftKerningGroup = V;
rightKerningGroup = V;
unicode = 0057;
},
{
color = 3;
glyphname = X;
lastChange = "2023-02-01 10:33:45 +0000";
layers = (
{
anchors = (
{
name = bottom;
position = "{317, 0}";
},
{
name = top;
position = "{317, 688}";
}
);
background = {
anchors = (
{
name = bottom;
position = "{317, 0}";
},
{
name = top;
position = "{317, 688}";
}
);
paths = (
{
closed = 1;
nodes = (
"227 0 LINE",
"314 171 LINE",
"401 0 LINE",
"632 0 LINE",
"440 342 LINE",
"626 688 LINE",
"395 688 LINE",
"314 514 LINE",
"233 688 LINE",
"6 688 LINE",
"191 342 LINE",
"0 0 LINE"
);
}
);
};
layerId = UUID0;
paths = (
{
closed = 1;
nodes = (
"227 0 LINE",
"314 181 LINE",
"401 0 LINE",
"632 0 LINE",
"440 342 LINE",
"626 688 LINE",
"395 688 LINE",
"314 504 LINE",
"233 688 LINE",
"6 688 LINE",
"191 342 LINE",
"0 0 LINE"
);
}
);
width = 633;
}
);
unicode = 0058;
},
{
color = 3;
glyphname = Y;
lastChange = "2023-02-02 13:23:59 +0000";
layers = (
{
anchors = (
{
name = bottom;
position = "{296, 0}";
},
{
name = top;
position = "{296, 688}";
},
{
name = topleft;
position = "{10, 688}";
}
);
background = {
anchors = (
{
name = bottom;
position = "{296, 0}";
},
{
name = top;
position = "{296, 688}";
},
{
name = topleft;
position = "{10, 688}";
}
);
paths = (
{
closed = 1;
nodes = (
"400 0 LINE",
"400 191 LINE",
"608 688 LINE",
"388 688 LINE",
"293 379 LINE",
"196 688 LINE",
"-13 688 LINE",
"185 191 LINE",
"185 0 LINE"
);
}
);
};
layerId = UUID0;
paths = (
{
closed = 1;
nodes = (
"400 0 LINE",
"400 191 LINE",
"608 688 LINE",
"394 688 LINE",
"299 384 LINE",
"202 688 LINE",
"-13 688 LINE",
"185 191 LINE",
"185 0 LINE"
);
}
);
width = 592;
}
);
leftKerningGroup = Y;
rightKerningGroup = Y;
unicode = 0059;
},
{
color = 3;
glyphname = Z;
lastChange = "2023-02-01 10:33:45 +0000";
layers = (
{
anchors = (
{
name = bottom;
position = "{263, 0}";
},
{
name = top;
position = "{262, 688}";
}
);
background = {
anchors = (
{
name = bottom;
position = "{263, 0}";
},
{
name = top;
position = "{262, 688}";
}
);
paths = (
{
closed = 1;
nodes = (
"497 0 LINE",
"497 146 LINE",
"257 146 LINE",
"487 542 LINE",
"487 688 LINE",
"37 688 LINE",
"37 542 LINE",
"263 542 LINE",
"28 145 LINE",
"28 0 LINE"
);
}
);
};
layerId = UUID0;
paths = (
{
closed = 1;
nodes = (
"497 0 LINE",
"497 158 LINE",
"162 158 LINE",
"203 64 LINE",
"492 542 LINE",
"492 688 LINE",
"37 688 LINE",
"37 530 LINE",
"363 530 LINE",
"321 624 LINE",
"28 145 LINE",
"28 0 LINE"
);
}
);
width = 510;
}
);
leftKerningGroup = Z;
rightKerningGroup = Z;
unicode = 005A;
},
{
color = 3;
glyphname = a;
lastChange = "2023-02-01 10:33:45 +0000";
layers = (
{
anchors = (
{
name = bottom;
position = "{348, 0}";
},
{
name = ogonek;
position = "{645, 0}";
},
{
name = top;
position = "{348, 501}";
}
);
background = {
anchors = (
{
name = bottom;
position = "{348, 0}";
},
{
name = ogonek;
position = "{645, 0}";
},
{
name = top;
position = "{348, 501}";
}
);
paths = (
{
closed = 1;
nodes = (
"351 -8 OFFCURVE",
"403 28 OFFCURVE",
"435 93 CURVE",
"435 0 LINE",
"645 0 LINE",
"645 508 LINE",
"435 508 LINE",
"435 392 LINE",
"403 474 OFFCURVE",
"336 508 OFFCURVE",
"271 508 CURVE SMOOTH",
"142 508 OFFCURVE",
"25 402 OFFCURVE",
"25 253 CURVE SMOOTH",
"25 104 OFFCURVE",
"140 -8 OFFCURVE",
"271 -8 CURVE SMOOTH"
);
},
{
closed = 1;
nodes = (
"283 150 OFFCURVE",
"235 193 OFFCURVE",
"235 250 CURVE SMOOTH",
"235 304 OFFCURVE",
"279 350 OFFCURVE",
"336 350 CURVE SMOOTH",
"387 350 OFFCURVE",
"432 307 OFFCURVE",
"435 254 CURVE",
"435 246 LINE",
"432 195 OFFCURVE",
"391 150 OFFCURVE",
"336 150 CURVE SMOOTH"
);
}
);
};
layerId = UUID0;
paths = (
{
closed = 1;
nodes = (
"351 -8 OFFCURVE",
"403 28 OFFCURVE",
"435 93 CURVE",
"435 0 LINE",
"645 0 LINE",
"645 501 LINE",
"437 501 LINE",
"437 392 LINE",
"403 474 OFFCURVE",
"336 508 OFFCURVE",
"271 508 CURVE SMOOTH",
"132 508 OFFCURVE",
"25 404 OFFCURVE",
"25 253 CURVE SMOOTH",
"25 101 OFFCURVE",
"132 -8 OFFCURVE",
"271 -8 CURVE SMOOTH"
);
},
{
closed = 1;
nodes = (
"279 150 OFFCURVE",
"235 194 OFFCURVE",
"235 250 CURVE SMOOTH",
"235 306 OFFCURVE",
"279 350 OFFCURVE",
"336 350 CURVE SMOOTH",
"391 350 OFFCURVE",
"435 309 OFFCURVE",
"435 252 CURVE SMOOTH",
"435 195 OFFCURVE",
"391 150 OFFCURVE",
"336 150 CURVE SMOOTH"
);
}
);
width = 695;
}
);
leftKerningGroup = c;
rightKerningGroup = a;
unicode = 0061;
},
{
color = 3;
glyphname = ae;
lastChange = "2023-02-01 17:38:45 +0000";
layers = (
{
anchors = (
{
name = bottom;
position = "{533, 0}";
},
{
name = top;
position = "{533, 501}";
}
);
background = {
paths = (
{
closed = 1;
nodes = (
"351 -8 OFFCURVE",
"403 28 OFFCURVE",
"435 93 CURVE",
"435 0 LINE",
"615 0 LINE",
"615 501 LINE",
"437 501 LINE",
"437 392 LINE",
"403 474 OFFCURVE",
"336 508 OFFCURVE",
"271 508 CURVE SMOOTH",
"132 508 OFFCURVE",
"25 404 OFFCURVE",
"25 253 CURVE SMOOTH",
"25 101 OFFCURVE",
"132 -8 OFFCURVE",
"271 -8 CURVE SMOOTH"
);
},
{
closed = 1;
nodes = (
"279 150 OFFCURVE",
"235 194 OFFCURVE",
"235 250 CURVE SMOOTH",
"235 306 OFFCURVE",
"279 350 OFFCURVE",
"336 350 CURVE SMOOTH",
"391 350 OFFCURVE",
"435 309 OFFCURVE",
"435 252 CURVE SMOOTH",
"435 195 OFFCURVE",
"391 150 OFFCURVE",
"336 150 CURVE SMOOTH"
);
},
{
closed = 1;
nodes = (
"721 279 CURVE SMOOTH",
"720 339 OFFCURVE",
"754 387 OFFCURVE",
"811 387 CURVE SMOOTH",
"847 387 OFFCURVE",
"872 366 OFFCURVE",
"878 324 CURVE",
"703 287 LINE",
"711 196 LINE",
"1035 237 LINE",
"1035 410 OFFCURVE",
"954 508 OFFCURVE",
"804 508 CURVE SMOOTH",
"661 508 OFFCURVE",
"545 406 OFFCURVE",
"545 250 CURVE SMOOTH",
"545 98 OFFCURVE",
"644 -8 OFFCURVE",
"833 -8 CURVE SMOOTH",
"907 -8 OFFCURVE",
"963 5 OFFCURVE",
"1013 31 CURVE",
"989 160 LINE",
"943 138 OFFCURVE",
"900 132 OFFCURVE",
"861 132 CURVE SMOOTH",
"773 132 OFFCURVE",
"723 179 OFFCURVE"
);
}
);
};
layerId = UUID0;
paths = (
{
closed = 1;
nodes = (
"351 -8 OFFCURVE",
"403 28 OFFCURVE",
"435 93 CURVE",
"435 0 LINE",
"615 0 LINE",
"615 67 LINE",
"663 20 OFFCURVE",
"736 -8 OFFCURVE",
"833 -8 CURVE SMOOTH",
"907 -8 OFFCURVE",
"963 5 OFFCURVE",
"1013 31 CURVE",
"989 160 LINE",
"943 138 OFFCURVE",
"900 132 OFFCURVE",
"861 132 CURVE SMOOTH",
"801 132 OFFCURVE",
"759 154 OFFCURVE",
"737 199 CURVE",
"1035 237 LINE",
"1035 410 OFFCURVE",
"954 508 OFFCURVE",
"804 508 CURVE SMOOTH",
"729 508 OFFCURVE",
"662 480 OFFCURVE",
"615 432 CURVE",
"615 501 LINE",
"437 501 LINE",
"437 392 LINE",
"403 474 OFFCURVE",
"336 508 OFFCURVE",
"271 508 CURVE SMOOTH",
"132 508 OFFCURVE",
"25 404 OFFCURVE",
"25 253 CURVE SMOOTH",
"25 101 OFFCURVE",
"132 -8 OFFCURVE",
"271 -8 CURVE SMOOTH"
);
},
{
closed = 1;
nodes = (
"235 306 OFFCURVE",
"279 350 OFFCURVE",
"336 350 CURVE SMOOTH",
"391 350 OFFCURVE",
"435 309 OFFCURVE",
"435 252 CURVE SMOOTH",
"435 195 OFFCURVE",
"391 150 OFFCURVE",
"336 150 CURVE SMOOTH",
"279 150 OFFCURVE",
"235 194 OFFCURVE",
"235 250 CURVE SMOOTH"
);
},
{
closed = 1;
nodes = (
"725 345 OFFCURVE",
"758 387 OFFCURVE",
"811 387 CURVE SMOOTH",
"847 387 OFFCURVE",
"872 366 OFFCURVE",
"878 324 CURVE",
"721 291 LINE"
);
}
);
width = 1055;
}
);
leftKerningGroup = c;
leftMetricsKey = o;
rightKerningGroup = e;
rightMetricsKey = e;
unicode = 00E6;
},
{
color = 3;
glyphname = b;
lastChange = "2023-02-01 10:33:45 +0000";
layers = (
{
anchors = (
{
name = bottom;
position = "{347, 0}";
},
{
name = top;
position = "{347, 501}";
}
);
background = {
anchors = (
{
name = bottom;
position = "{1147, 0}";
},
{
name = top;
position = "{1147, 501}";
}
);
paths = (
{
closed = 1;
nodes = (
"1354 -8 OFFCURVE",
"1469 102 OFFCURVE",
"1469 250 CURVE SMOOTH",
"1469 398 OFFCURVE",
"1360 508 OFFCURVE",
"1224 508 CURVE SMOOTH",
"1150 508 OFFCURVE",
"1096 479 OFFCURVE",
"1062 407 CURVE",
"1062 690 LINE",
"850 659 LINE",
"850 0 LINE",
"1062 0 LINE",
"1062 93 LINE",
"1094 26 OFFCURVE",
"1149 -8 OFFCURVE",
"1225 -8 CURVE SMOOTH"
);
},
{
closed = 1;
nodes = (
"1108 150 OFFCURVE",
"1062 193 OFFCURVE",
"1062 250 CURVE SMOOTH",
"1062 254 LINE SMOOTH",
"1062 306 OFFCURVE",
"1106 350 OFFCURVE",
"1161 350 CURVE SMOOTH",
"1214 350 OFFCURVE",
"1260 307 OFFCURVE",
"1260 250 CURVE SMOOTH",
"1260 198 OFFCURVE",
"1217 150 OFFCURVE",
"1161 150 CURVE SMOOTH"
);
},
{
closed = 1;
nodes = (
"563 -8 OFFCURVE",
"670 101 OFFCURVE",
"670 253 CURVE SMOOTH",
"670 404 OFFCURVE",
"563 508 OFFCURVE",
"424 508 CURVE SMOOTH",
"359 508 OFFCURVE",
"292 474 OFFCURVE",
"260 392 CURVE",
"260 501 LINE",
"50 501 LINE",
"50 0 LINE",
"260 0 LINE",
"260 93 LINE",
"292 28 OFFCURVE",
"344 -8 OFFCURVE",
"424 -8 CURVE SMOOTH"
);
},
{
closed = 1;
nodes = (
"304 150 OFFCURVE",
"260 195 OFFCURVE",
"260 252 CURVE SMOOTH",
"260 309 OFFCURVE",
"304 350 OFFCURVE",
"359 350 CURVE SMOOTH",
"416 350 OFFCURVE",
"460 306 OFFCURVE",
"460 250 CURVE SMOOTH",
"460 194 OFFCURVE",
"416 150 OFFCURVE",
"359 150 CURVE SMOOTH"
);
}
);
};
layerId = UUID0;
paths = (
{
closed = 1;
nodes = (
"563 -8 OFFCURVE",
"670 101 OFFCURVE",
"670 253 CURVE SMOOTH",
"670 404 OFFCURVE",
"563 508 OFFCURVE",
"424 508 CURVE SMOOTH",
"359 508 OFFCURVE",
"294 474 OFFCURVE",
"262 398 CURVE",
"262 690 LINE",
"50 659 LINE",
"50 0 LINE",
"260 0 LINE",
"260 93 LINE",
"292 28 OFFCURVE",
"344 -8 OFFCURVE",
"424 -8 CURVE SMOOTH"
);
},
{
closed = 1;
nodes = (
"304 150 OFFCURVE",
"260 195 OFFCURVE",
"260 252 CURVE SMOOTH",
"260 309 OFFCURVE",
"304 350 OFFCURVE",
"359 350 CURVE SMOOTH",
"416 350 OFFCURVE",
"460 306 OFFCURVE",
"460 250 CURVE SMOOTH",
"460 194 OFFCURVE",
"416 150 OFFCURVE",
"359 150 CURVE SMOOTH"
);
}
);
width = 695;
}
);
leftKerningGroup = b;
rightKerningGroup = o;
unicode = 0062;
},
{
color = 3;
glyphname = c;
lastChange = "2023-02-01 10:33:45 +0000";
layers = (
{
anchors = (
{
name = bottom;
position = "{266, 0}";
},
{
name = top;
position = "{266, 501}";
}
);
background = {
anchors = (
{
name = bottom;
position = "{266, 0}";
},
{
name = top;
position = "{266, 501}";
}
);
paths = (
{
closed = 1;
nodes = (
"359 -8 OFFCURVE",
"402 1 OFFCURVE",
"448 24 CURVE",
"429 164 LINE",
"394 153 OFFCURVE",
"363 147 OFFCURVE",
"335 147 CURVE SMOOTH",
"273 147 OFFCURVE",
"233 188 OFFCURVE",
"233 250 CURVE SMOOTH",
"233 312 OFFCURVE",
"273 352 OFFCURVE",
"337 352 CURVE SMOOTH",
"365 352 OFFCURVE",
"394 346 OFFCURVE",
"431 335 CURVE",
"450 468 LINE",
"412 495 OFFCURVE",
"363 508 OFFCURVE",
"297 508 CURVE SMOOTH",
"143 508 OFFCURVE",
"25 396 OFFCURVE",
"25 250 CURVE SMOOTH",
"25 98 OFFCURVE",
"136 -8 OFFCURVE",
"297 -8 CURVE SMOOTH"
);
}
);
};
layerId = UUID0;
paths = (
{
closed = 1;
nodes = (
"359 -8 OFFCURVE",
"404 2 OFFCURVE",
"448 24 CURVE",
"429 164 LINE",
"394 153 OFFCURVE",
"363 147 OFFCURVE",
"335 147 CURVE SMOOTH",
"273 147 OFFCURVE",
"233 188 OFFCURVE",
"233 250 CURVE SMOOTH",
"233 312 OFFCURVE",
"273 352 OFFCURVE",
"339 352 CURVE SMOOTH",
"365 352 OFFCURVE",
"394 346 OFFCURVE",
"428 332 CURVE",
"450 468 LINE",
"412 495 OFFCURVE",
"363 508 OFFCURVE",
"297 508 CURVE SMOOTH",
"134 508 OFFCURVE",
"25 396 OFFCURVE",
"25 248 CURVE SMOOTH",
"25 98 OFFCURVE",
"129 -8 OFFCURVE",
"297 -8 CURVE SMOOTH"
);
}
);
width = 475;
}
);
leftKerningGroup = c;
rightKerningGroup = c;
unicode = 0063;
},
{
color = 4;
glyphname = d;
lastChange = "2023-02-01 17:46:40 +0000";
layers = (
{
anchors = (
{
name = bottom;
position = "{348, 0}";
},
{
name = center;
position = "{348, 251}";
},
{
name = stroke;
position = "{530, 583}";
},
{
name = top;
position = "{348, 501}";
},
{
name = topright;
position = "{704, 688}";
}
);
background = {
anchors = (
{
name = bottom;
position = "{348, 0}";
},
{
name = center;
position = "{348, 251}";
},
{
name = top;
position = "{348, 501}";
},
{
name = topright;
position = "{704, 688}";
}
);
paths = (
{
closed = 1;
nodes = (
"349 -8 OFFCURVE",
"402 26 OFFCURVE",
"433 93 CURVE",
"433 0 LINE",
"644 0 LINE",
"644 690 LINE",
"433 659 LINE",
"433 407 LINE",
"399 479 OFFCURVE",
"345 508 OFFCURVE",
"269 508 CURVE SMOOTH",
"139 508 OFFCURVE",
"25 396 OFFCURVE",
"25 250 CURVE SMOOTH",
"25 115 OFFCURVE",
"129 -8 OFFCURVE",
"268 -8 CURVE SMOOTH"
);
},
{
closed = 1;
nodes = (
"281 150 OFFCURVE",
"235 193 OFFCURVE",
"235 250 CURVE SMOOTH",
"235 303 OFFCURVE",
"277 350 OFFCURVE",
"334 350 CURVE SMOOTH",
"386 350 OFFCURVE",
"433 307 OFFCURVE",
"433 254 CURVE SMOOTH",
"433 250 LINE SMOOTH",
"433 198 OFFCURVE",
"391 150 OFFCURVE",
"334 150 CURVE SMOOTH"
);
}
);
};
layerId = UUID0;
paths = (
{
closed = 1;
nodes = (
"351 -8 OFFCURVE",
"403 28 OFFCURVE",
"435 93 CURVE",
"435 0 LINE",
"644 0 LINE",
"644 690 LINE",
"433 659 LINE",
"433 396 LINE",
"403 474 OFFCURVE",
"336 508 OFFCURVE",
"271 508 CURVE SMOOTH",
"132 508 OFFCURVE",
"25 404 OFFCURVE",
"25 253 CURVE SMOOTH",
"25 101 OFFCURVE",
"132 -8 OFFCURVE",
"271 -8 CURVE SMOOTH"
);
},
{
closed = 1;
nodes = (
"279 150 OFFCURVE",
"235 194 OFFCURVE",
"235 250 CURVE SMOOTH",
"235 306 OFFCURVE",
"279 350 OFFCURVE",
"336 350 CURVE SMOOTH",
"391 350 OFFCURVE",
"435 309 OFFCURVE",
"435 252 CURVE SMOOTH",
"435 195 OFFCURVE",
"391 150 OFFCURVE",
"336 150 CURVE SMOOTH"
);
}
);
width = 694;
}
);
leftKerningGroup = c;
unicode = 0064;
},
{
color = 4;
glyphname = dcroat;
lastChange = "2023-02-01 17:46:48 +0000";
layers = (
{
background = {
paths = (
{
closed = 1;
nodes = (
"351 -8 OFFCURVE",
"403 28 OFFCURVE",
"435 93 CURVE",
"435 0 LINE",
"645 0 LINE",
"645 690 LINE",
"433 659 LINE",
"433 396 LINE",
"403 474 OFFCURVE",
"336 508 OFFCURVE",
"271 508 CURVE SMOOTH",
"132 508 OFFCURVE",
"25 404 OFFCURVE",
"25 253 CURVE SMOOTH",
"25 101 OFFCURVE",
"132 -8 OFFCURVE",
"271 -8 CURVE SMOOTH"
);
},
{
closed = 1;
nodes = (
"279 150 OFFCURVE",
"235 194 OFFCURVE",
"235 250 CURVE SMOOTH",
"235 306 OFFCURVE",
"279 350 OFFCURVE",
"336 350 CURVE SMOOTH",
"391 350 OFFCURVE",
"435 309 OFFCURVE",
"435 252 CURVE SMOOTH",
"435 195 OFFCURVE",
"391 150 OFFCURVE",
"336 150 CURVE SMOOTH"
);
},
{
closed = 1;
nodes = (
"695 625 LINE",
"363 625 LINE",
"363 540 LINE",
"695 540 LINE"
);
}
);
};
layerId = UUID0;
paths = (
{
closed = 1;
nodes = (
"351 -8 OFFCURVE",
"403 28 OFFCURVE",
"435 93 CURVE",
"435 0 LINE",
"644 0 LINE",
"644 540 LINE",
"694 540 LINE",
"694 625 LINE",
"644 625 LINE",
"644 690 LINE",
"433 659 LINE",
"433 625 LINE",
"363 625 LINE",
"363 540 LINE",
"433 540 LINE",
"433 396 LINE",
"403 474 OFFCURVE",
"336 508 OFFCURVE",
"271 508 CURVE SMOOTH",
"132 508 OFFCURVE",
"25 404 OFFCURVE",
"25 253 CURVE SMOOTH",
"25 101 OFFCURVE",
"132 -8 OFFCURVE",
"271 -8 CURVE SMOOTH"
);
},
{
closed = 1;
nodes = (
"235 306 OFFCURVE",
"279 350 OFFCURVE",
"336 350 CURVE SMOOTH",
"391 350 OFFCURVE",
"435 309 OFFCURVE",
"435 252 CURVE SMOOTH",
"435 195 OFFCURVE",
"391 150 OFFCURVE",
"336 150 CURVE SMOOTH",
"279 150 OFFCURVE",
"235 194 OFFCURVE",
"235 250 CURVE SMOOTH"
);
}
);
width = 694;
}
);
leftKerningGroup = c;
unicode = 0111;
},
{
color = 4;
glyphname = eth;
lastChange = "2023-02-01 17:41:01 +0000";
layers = (
{
background = {
paths = (
{
closed = 1;
nodes = (
"499 -16 OFFCURVE",
"625 128 OFFCURVE",
"625 337 CURVE SMOOTH",
"625 560 OFFCURVE",
"512 703 OFFCURVE",
"305 703 CURVE SMOOTH",
"231 703 OFFCURVE",
"152 689 OFFCURVE",
"97 662 CURVE",
"116 511 LINE",
"158 542 OFFCURVE",
"213 557 OFFCURVE",
"262 557 CURVE SMOOTH",
"360 557 OFFCURVE",
"404 480 OFFCURVE",
"404 344 CURVE",
"372 406 OFFCURVE",
"323 430 OFFCURVE",
"263 430 CURVE SMOOTH",
"113 430 OFFCURVE",
"25 339 OFFCURVE",
"25 217 CURVE SMOOTH",
"25 76 OFFCURVE",
"130 -16 OFFCURVE",
"300 -16 CURVE SMOOTH"
);
},
{
closed = 1;
nodes = (
"261 137 OFFCURVE",
"234 167 OFFCURVE",
"234 208 CURVE SMOOTH",
"234 259 OFFCURVE",
"269 290 OFFCURVE",
"321 290 CURVE SMOOTH",
"349 290 OFFCURVE",
"374 285 OFFCURVE",
"403 268 CURVE",
"403 185 OFFCURVE",
"372 137 OFFCURVE",
"312 137 CURVE SMOOTH"
);
},
{
closed = 1;
nodes = (
"640 590 LINE",
"615 657 LINE",
"254 512 LINE",
"279 445 LINE"
);
}
);
};
layerId = UUID0;
paths = (
{
closed = 1;
nodes = (
"499 -16 OFFCURVE",
"625 128 OFFCURVE",
"625 337 CURVE SMOOTH",
"625 426 OFFCURVE",
"607 503 OFFCURVE",
"572 563 CURVE",
"640 590 LINE",
"615 657 LINE",
"526 621 LINE",
"473 674 OFFCURVE",
"398 703 OFFCURVE",
"305 703 CURVE SMOOTH",
"231 703 OFFCURVE",
"152 689 OFFCURVE",
"97 662 CURVE",
"116 511 LINE",
"158 542 OFFCURVE",
"213 557 OFFCURVE",
"262 557 CURVE SMOOTH",
"288 557 OFFCURVE",
"309 552 OFFCURVE",
"328 542 CURVE",
"254 512 LINE",
"279 445 LINE",
"379 485 LINE",
"396 450 OFFCURVE",
"404 402 OFFCURVE",
"404 344 CURVE",
"372 406 OFFCURVE",
"323 430 OFFCURVE",
"263 430 CURVE SMOOTH",
"113 430 OFFCURVE",
"25 339 OFFCURVE",
"25 217 CURVE SMOOTH",
"25 76 OFFCURVE",
"130 -16 OFFCURVE",
"300 -16 CURVE SMOOTH"
);
},
{
closed = 1;
nodes = (
"234 259 OFFCURVE",
"269 290 OFFCURVE",
"321 290 CURVE SMOOTH",
"349 290 OFFCURVE",
"374 285 OFFCURVE",
"403 268 CURVE",
"403 185 OFFCURVE",
"372 137 OFFCURVE",
"312 137 CURVE SMOOTH",
"261 137 OFFCURVE",
"234 167 OFFCURVE",
"234 208 CURVE SMOOTH"
);
}
);
width = 655;
}
);
unicode = 00F0;
},
{
color = 4;
glyphname = e;
lastChange = "2023-02-01 17:41:14 +0000";
layers = (
{
anchors = (
{
name = bottom;
position = "{288, 0}";
},
{
name = ogonek;
position = "{405, 0}";
},
{
name = top;
position = "{288, 501}";
}
);
background = {
paths = (
{
closed = 1;
nodes = (
"221 279 CURVE SMOOTH",
"220 339 OFFCURVE",
"254 387 OFFCURVE",
"311 387 CURVE SMOOTH",
"347 387 OFFCURVE",
"372 366 OFFCURVE",
"378 324 CURVE",
"203 287 LINE",
"211 196 LINE",
"535 237 LINE",
"535 410 OFFCURVE",
"452 508 OFFCURVE",
"302 508 CURVE SMOOTH",
"149 508 OFFCURVE",
"25 406 OFFCURVE",
"25 250 CURVE SMOOTH",
"25 98 OFFCURVE",
"131 -8 OFFCURVE",
"333 -8 CURVE SMOOTH",
"407 -8 OFFCURVE",
"463 5 OFFCURVE",
"513 31 CURVE",
"489 160 LINE",
"443 138 OFFCURVE",
"400 132 OFFCURVE",
"361 132 CURVE SMOOTH",
"273 132 OFFCURVE",
"223 179 OFFCURVE"
);
}
);
};
layerId = UUID0;
paths = (
{
closed = 1;
nodes = (
"301 132 OFFCURVE",
"259 154 OFFCURVE",
"237 199 CURVE",
"535 237 LINE",
"535 410 OFFCURVE",
"452 508 OFFCURVE",
"302 508 CURVE SMOOTH",
"149 508 OFFCURVE",
"25 406 OFFCURVE",
"25 250 CURVE SMOOTH",
"25 98 OFFCURVE",
"131 -8 OFFCURVE",
"333 -8 CURVE SMOOTH",
"407 -8 OFFCURVE",
"463 5 OFFCURVE",
"513 31 CURVE",
"489 160 LINE",
"443 138 OFFCURVE",
"400 132 OFFCURVE",
"361 132 CURVE SMOOTH"
);
},
{
closed = 1;
nodes = (
"225 345 OFFCURVE",
"258 387 OFFCURVE",
"311 387 CURVE SMOOTH",
"347 387 OFFCURVE",
"372 366 OFFCURVE",
"378 324 CURVE",
"221 291 LINE"
);
}
);
width = 555;
}
);
leftKerningGroup = c;
rightKerningGroup = e;
unicode = 0065;
},
{
color = 4;
glyphname = eogonek;
lastChange = "2023-02-01 17:41:24 +0000";
layers = (
{
anchors = (
{
name = top;
position = "{288, 501}";
}
);
background = {
paths = (
{
closed = 1;
nodes = (
"451 6 OFFCURVE",
"513 31 CURVE",
"489 160 LINE",
"443 138 OFFCURVE",
"400 132 OFFCURVE",
"361 132 CURVE SMOOTH",
"273 132 OFFCURVE",
"223 179 OFFCURVE",
"221 279 CURVE SMOOTH",
"220 339 OFFCURVE",
"254 387 OFFCURVE",
"311 387 CURVE SMOOTH",
"347 387 OFFCURVE",
"372 366 OFFCURVE",
"378 324 CURVE",
"203 287 LINE",
"211 196 LINE",
"535 237 LINE",
"535 410 OFFCURVE",
"452 508 OFFCURVE",
"302 508 CURVE SMOOTH",
"149 508 OFFCURVE",
"25 406 OFFCURVE",
"25 250 CURVE SMOOTH",
"25 106 OFFCURVE",
"120 3 OFFCURVE",
"299 -7 CURVE",
"222 -51 OFFCURVE",
"178 -104 OFFCURVE",
"178 -158 CURVE SMOOTH",
"178 -212 OFFCURVE",
"223 -248 OFFCURVE",
"309 -248 CURVE SMOOTH",
"338 -248 OFFCURVE",
"371 -243 OFFCURVE",
"402 -230 CURVE",
"401 -172 LINE",
"383 -178 OFFCURVE",
"366 -181 OFFCURVE",
"354 -181 CURVE SMOOTH",
"322 -181 OFFCURVE",
"306 -167 OFFCURVE",
"306 -140 CURVE SMOOTH",
"306 -68 OFFCURVE"
);
}
);
};
layerId = UUID0;
paths = (
{
closed = 1;
nodes = (
"306 -68 OFFCURVE",
"451 6 OFFCURVE",
"513 31 CURVE",
"489 160 LINE",
"443 138 OFFCURVE",
"400 132 OFFCURVE",
"361 132 CURVE SMOOTH",
"301 132 OFFCURVE",
"259 154 OFFCURVE",
"237 199 CURVE",
"535 237 LINE",
"535 410 OFFCURVE",
"452 508 OFFCURVE",
"302 508 CURVE SMOOTH",
"149 508 OFFCURVE",
"25 406 OFFCURVE",
"25 250 CURVE SMOOTH",
"25 106 OFFCURVE",
"120 3 OFFCURVE",
"299 -7 CURVE",
"222 -51 OFFCURVE",
"178 -104 OFFCURVE",
"178 -158 CURVE SMOOTH",
"178 -212 OFFCURVE",
"223 -248 OFFCURVE",
"309 -248 CURVE SMOOTH",
"338 -248 OFFCURVE",
"371 -243 OFFCURVE",
"402 -230 CURVE",
"401 -172 LINE",
"383 -178 OFFCURVE",
"366 -181 OFFCURVE",
"354 -181 CURVE SMOOTH",
"322 -181 OFFCURVE",
"306 -167 OFFCURVE",
"306 -140 CURVE SMOOTH"
);
},
{
closed = 1;
nodes = (
"225 345 OFFCURVE",
"258 387 OFFCURVE",
"311 387 CURVE SMOOTH",
"347 387 OFFCURVE",
"372 366 OFFCURVE",
"378 324 CURVE",
"221 291 LINE"
);
}
);
width = 555;
}
);
leftKerningGroup = c;
leftMetricsKey = o;
widthMetricsKey = e;
rightKerningGroup = e;
unicode = 0119;
},
{
color = 4;
glyphname = f;
lastChange = "2023-02-02 13:24:45 +0000";
layers = (
{
anchors = (
{
name = bottom;
position = "{169, 0}";
},
{
name = top;
position = "{237, 688}";
}
);
background = {
paths = (
{
closed = 1;
nodes = (
"874 0 LINE",
"874 377 LINE",
"991 377 LINE",
"991 501 LINE",
"860 501 LINE",
"849 523 OFFCURVE",
"843 543 OFFCURVE",
"843 561 CURVE SMOOTH",
"843 598 OFFCURVE",
"868 617 OFFCURVE",
"905 617 CURVE SMOOTH",
"931 617 OFFCURVE",
"964 612 OFFCURVE",
"995 594 CURVE",
"1009 729 LINE",
"975 755 OFFCURVE",
"927 768 OFFCURVE",
"876 768 CURVE SMOOTH",
"750 768 OFFCURVE",
"663 693 OFFCURVE",
"663 543 CURVE SMOOTH",
"663 501 LINE",
"600 501 LINE",
"600 377 LINE",
"663 377 LINE",
"663 0 LINE"
);
},
{
closed = 1;
nodes = (
"274 0 LINE",
"274 377 LINE",
"391 377 LINE",
"391 501 LINE",
"253 501 LINE",
"246 512 OFFCURVE",
"243 522 OFFCURVE",
"243 531 CURVE SMOOTH",
"243 555 OFFCURVE",
"269 568 OFFCURVE",
"305 568 CURVE SMOOTH",
"331 568 OFFCURVE",
"364 567 OFFCURVE",
"394 558 CURVE",
"409 689 LINE",
"375 701 OFFCURVE",
"327 707 OFFCURVE",
"276 707 CURVE SMOOTH",
"150 707 OFFCURVE",
"63 649 OFFCURVE",
"63 530 CURVE SMOOTH",
"63 501 LINE",
"0 501 LINE",
"0 377 LINE",
"63 377 LINE",
"63 0 LINE"
);
}
);
};
layerId = UUID0;
paths = (
{
closed = 1;
nodes = (
"274 0 LINE",
"274 377 LINE",
"391 377 LINE",
"391 501 LINE",
"250 501 LINE",
"245 510 OFFCURVE",
"243 518 OFFCURVE",
"243 527 CURVE SMOOTH",
"243 554 OFFCURVE",
"267 568 OFFCURVE",
"310 568 CURVE SMOOTH",
"336 568 OFFCURVE",
"364 565 OFFCURVE",
"394 558 CURVE",
"408 685 LINE",
"375 699 OFFCURVE",
"327 707 OFFCURVE",
"276 707 CURVE SMOOTH",
"150 707 OFFCURVE",
"63 639 OFFCURVE",
"63 530 CURVE SMOOTH",
"63 501 LINE",
"0 501 LINE",
"0 377 LINE",
"63 377 LINE",
"63 0 LINE"
);
}
);
width = 390;
}
);
leftKerningGroup = f;
unicode = 0066;
},
{
color = 4;
glyphname = g;
lastChange = "2023-02-01 17:41:49 +0000";
layers = (
{
anchors = (
{
name = bottom;
position = "{353, 0}";
},
{
name = top;
position = "{353, 501}";
}
);
background = {
paths = (
{
closed = 1;
nodes = (
"541 -195 OFFCURVE",
"651 -96 OFFCURVE",
"651 117 CURVE SMOOTH",
"651 501 LINE",
"441 501 LINE",
"441 396 LINE",
"409 475 OFFCURVE",
"342 508 OFFCURVE",
"275 508 CURVE SMOOTH",
"132 508 OFFCURVE",
"25 408 OFFCURVE",
"25 263 CURVE SMOOTH",
"25 117 OFFCURVE",
"132 12 OFFCURVE",
"275 12 CURVE SMOOTH",
"358 12 OFFCURVE",
"409 45 OFFCURVE",
"447 119 CURVE",
"447 72 LINE SMOOTH",
"447 -5 OFFCURVE",
"410 -42 OFFCURVE",
"321 -42 CURVE SMOOTH",
"294 -42 OFFCURVE",
"265 -38 OFFCURVE",
"241 -33 CURVE",
"225 -178 LINE",
"250 -188 OFFCURVE",
"297 -195 OFFCURVE",
"348 -195 CURVE SMOOTH"
);
},
{
closed = 1;
nodes = (
"279 170 OFFCURVE",
"235 210 OFFCURVE",
"235 260 CURVE SMOOTH",
"235 310 OFFCURVE",
"279 350 OFFCURVE",
"340 350 CURVE SMOOTH",
"397 350 OFFCURVE",
"441 313 OFFCURVE",
"441 262 CURVE SMOOTH",
"441 211 OFFCURVE",
"397 170 OFFCURVE",
"340 170 CURVE SMOOTH"
);
}
);
};
layerId = UUID0;
paths = (
{
closed = 1;
nodes = (
"541 -195 OFFCURVE",
"651 -96 OFFCURVE",
"651 117 CURVE SMOOTH",
"651 501 LINE",
"441 501 LINE",
"441 396 LINE",
"409 475 OFFCURVE",
"342 508 OFFCURVE",
"275 508 CURVE SMOOTH",
"132 508 OFFCURVE",
"25 408 OFFCURVE",
"25 263 CURVE SMOOTH",
"25 117 OFFCURVE",
"132 12 OFFCURVE",
"275 12 CURVE SMOOTH",
"358 12 OFFCURVE",
"409 45 OFFCURVE",
"447 119 CURVE",
"447 72 LINE SMOOTH",
"447 -5 OFFCURVE",
"410 -42 OFFCURVE",
"321 -42 CURVE SMOOTH",
"294 -42 OFFCURVE",
"265 -38 OFFCURVE",
"241 -33 CURVE",
"225 -178 LINE",
"250 -188 OFFCURVE",
"297 -195 OFFCURVE",
"348 -195 CURVE SMOOTH"
);
},
{
closed = 1;
nodes = (
"279 170 OFFCURVE",
"235 210 OFFCURVE",
"235 260 CURVE SMOOTH",
"235 310 OFFCURVE",
"279 350 OFFCURVE",
"340 350 CURVE SMOOTH",
"397 350 OFFCURVE",
"441 313 OFFCURVE",
"441 262 CURVE SMOOTH",
"441 211 OFFCURVE",
"397 170 OFFCURVE",
"340 170 CURVE SMOOTH"
);
}
);
width = 701;
}
);
leftKerningGroup = c;
rightKerningGroup = g;
unicode = 0067;
},
{
color = 3;
glyphname = h;
lastChange = "2023-02-01 10:33:46 +0000";
layers = (
{
anchors = (
{
name = bottom;
position = "{343, 0}";
},
{
name = center;
position = "{343, 251}";
},
{
name = stroke;
position = "{165, 583}";
},
{
name = top;
position = "{346, 688}";
}
);
background = {
anchors = (
{
name = bottom;
position = "{1043, 0}";
},
{
name = center;
position = "{1043, 251}";
},
{
name = top;
position = "{1046, 688}";
}
);
paths = (
{
closed = 1;
nodes = (
"961 0 LINE",
"961 234 LINE SMOOTH",
"961 312 OFFCURVE",
"1013 360 OFFCURVE",
"1060 360 CURVE SMOOTH",
"1103 360 OFFCURVE",
"1130 329 OFFCURVE",
"1130 271 CURVE SMOOTH",
"1130 0 LINE",
"1340 0 LINE",
"1340 250 LINE SMOOTH",
"1340 411 OFFCURVE",
"1263 508 OFFCURVE",
"1135 508 CURVE SMOOTH",
"1051 508 OFFCURVE",
"990 468 OFFCURVE",
"961 398 CURVE",
"961 690 LINE",
"750 659 LINE",
"750 0 LINE"
);
},
{
closed = 1;
nodes = (
"261 0 LINE",
"261 234 LINE SMOOTH",
"261 304 OFFCURVE",
"300 350 OFFCURVE",
"358 350 CURVE SMOOTH",
"405 350 OFFCURVE",
"430 321 OFFCURVE",
"430 261 CURVE SMOOTH",
"430 0 LINE",
"641 0 LINE",
"641 250 LINE SMOOTH",
"641 414 OFFCURVE",
"566 508 OFFCURVE",
"435 508 CURVE SMOOTH",
"351 508 OFFCURVE",
"289 467 OFFCURVE",
"258 392 CURVE",
"258 501 LINE",
"50 501 LINE",
"50 0 LINE"
);
}
);
};
layerId = UUID0;
paths = (
{
closed = 1;
nodes = (
"261 0 LINE",
"261 234 LINE SMOOTH",
"261 304 OFFCURVE",
"300 350 OFFCURVE",
"358 350 CURVE SMOOTH",
"405 350 OFFCURVE",
"430 321 OFFCURVE",
"430 261 CURVE SMOOTH",
"430 0 LINE",
"641 0 LINE",
"641 250 LINE SMOOTH",
"641 414 OFFCURVE",
"566 508 OFFCURVE",
"435 508 CURVE SMOOTH",
"351 508 OFFCURVE",
"289 467 OFFCURVE",
"261 398 CURVE",
"261 690 LINE",
"50 659 LINE",
"50 0 LINE"
);
}
);
width = 686;
}
);
leftKerningGroup = b;
rightKerningGroup = h;
unicode = 0068;
},
{
color = 4;
glyphname = hbar;
lastChange = "2023-02-01 17:42:44 +0000";
layers = (
{
background = {
paths = (
{
closed = 1;
nodes = (
"261 0 LINE",
"261 234 LINE SMOOTH",
"261 304 OFFCURVE",
"300 350 OFFCURVE",
"358 350 CURVE SMOOTH",
"405 350 OFFCURVE",
"430 321 OFFCURVE",
"430 261 CURVE SMOOTH",
"430 0 LINE",
"641 0 LINE",
"641 250 LINE SMOOTH",
"641 414 OFFCURVE",
"566 508 OFFCURVE",
"435 508 CURVE SMOOTH",
"351 508 OFFCURVE",
"289 467 OFFCURVE",
"261 398 CURVE",
"261 690 LINE",
"50 659 LINE",
"50 0 LINE"
);
},
{
closed = 1;
nodes = (
"332 625 LINE",
"0 625 LINE",
"0 540 LINE",
"332 540 LINE"
);
}
);
};
layerId = UUID0;
paths = (
{
closed = 1;
nodes = (
"261 0 LINE",
"261 234 LINE SMOOTH",
"261 304 OFFCURVE",
"300 350 OFFCURVE",
"358 350 CURVE SMOOTH",
"405 350 OFFCURVE",
"430 321 OFFCURVE",
"430 261 CURVE SMOOTH",
"430 0 LINE",
"641 0 LINE",
"641 250 LINE SMOOTH",
"641 414 OFFCURVE",
"566 508 OFFCURVE",
"435 508 CURVE SMOOTH",
"351 508 OFFCURVE",
"289 467 OFFCURVE",
"261 398 CURVE",
"261 540 LINE",
"332 540 LINE",
"332 625 LINE",
"261 625 LINE",
"261 690 LINE",
"50 659 LINE",
"50 625 LINE",
"0 625 LINE",
"0 540 LINE",
"50 540 LINE",
"50 0 LINE"
);
}
);
width = 686;
}
);
leftKerningGroup = b;
rightKerningGroup = h;
unicode = 0127;
},
{
color = 3;
glyphname = idotless;
lastChange = "2023-02-01 17:47:34 +0000";
layers = (
{
anchors = (
{
name = bottom;
position = "{182, 0}";
},
{
name = ogonek;
position = "{291, 0}";
},
{
name = top;
position = "{153, 501}";
}
);
background = {
anchors = (
{
name = bottom;
position = "{182, 0}";
},
{
name = ogonek;
position = "{291, 0}";
},
{
name = top;
position = "{153, 501}";
}
);
paths = (
{
closed = 1;
nodes = (
"273 -8 OFFCURVE",
"326 4 OFFCURVE",
"356 27 CURVE",
"345 166 LINE",
"331 158 OFFCURVE",
"317 154 OFFCURVE",
"304 154 CURVE SMOOTH",
"278 154 OFFCURVE",
"259 171 OFFCURVE",
"259 202 CURVE SMOOTH",
"259 501 LINE",
"47 501 LINE",
"47 193 LINE SMOOTH",
"47 71 OFFCURVE",
"111 -8 OFFCURVE",
"225 -8 CURVE SMOOTH"
);
}
);
};
layerId = UUID0;
paths = (
{
closed = 1;
nodes = (
"273 -8 OFFCURVE",
"326 4 OFFCURVE",
"356 27 CURVE",
"345 166 LINE",
"331 158 OFFCURVE",
"317 154 OFFCURVE",
"304 154 CURVE SMOOTH",
"278 154 OFFCURVE",
"258 171 OFFCURVE",
"258 202 CURVE SMOOTH",
"258 501 LINE",
"47 501 LINE",
"47 173 LINE SMOOTH",
"47 71 OFFCURVE",
"101 -8 OFFCURVE",
"235 -8 CURVE SMOOTH"
);
}
);
width = 357;
}
);
leftKerningGroup = m;
rightKerningGroup = i;
unicode = 0131;
},
{
color = 4;
glyphname = iogonek;
lastChange = "2023-02-01 17:47:36 +0000";
layers = (
{
background = {
paths = (
{
closed = 1;
nodes = (
"273 -8 OFFCURVE",
"326 4 OFFCURVE",
"356 27 CURVE",
"345 166 LINE",
"331 158 OFFCURVE",
"317 154 OFFCURVE",
"304 154 CURVE SMOOTH",
"278 154 OFFCURVE",
"259 171 OFFCURVE",
"259 202 CURVE SMOOTH",
"259 501 LINE",
"47 501 LINE",
"47 173 LINE SMOOTH",
"47 71 OFFCURVE",
"101 -8 OFFCURVE",
"235 -8 CURVE SMOOTH"
);
}
);
};
layerId = UUID0;
paths = (
{
closed = 1;
nodes = (
"224 -248 OFFCURVE",
"257 -243 OFFCURVE",
"288 -230 CURVE",
"287 -172 LINE",
"269 -178 OFFCURVE",
"252 -181 OFFCURVE",
"240 -181 CURVE SMOOTH",
"208 -181 OFFCURVE",
"192 -167 OFFCURVE",
"192 -140 CURVE SMOOTH",
"192 -101 OFFCURVE",
"223 -46 OFFCURVE",
"356 27 CURVE",
"345 166 LINE",
"331 158 OFFCURVE",
"317 154 OFFCURVE",
"304 154 CURVE SMOOTH",
"278 154 OFFCURVE",
"259 171 OFFCURVE",
"259 202 CURVE SMOOTH",
"259 501 LINE",
"47 501 LINE",
"47 173 LINE SMOOTH",
"47 71 OFFCURVE",
"97 12 OFFCURVE",
"190 -5 CURVE",
"109 -50 OFFCURVE",
"64 -104 OFFCURVE",
"64 -158 CURVE SMOOTH",
"64 -212 OFFCURVE",
"109 -248 OFFCURVE",
"195 -248 CURVE SMOOTH"
);
},
{
closed = 1;
nodes = (
"210 556 OFFCURVE",
"266 597 OFFCURVE",
"266 658 CURVE SMOOTH",
"266 712 OFFCURVE",
"214 759 OFFCURVE",
"153 759 CURVE SMOOTH",
"96 759 OFFCURVE",
"41 717 OFFCURVE",
"41 658 CURVE SMOOTH",
"41 601 OFFCURVE",
"91 556 OFFCURVE",
"153 556 CURVE SMOOTH"
);
}
);
width = 357;
}
);
leftKerningGroup = i;
rightKerningGroup = i;
unicode = 012F;
},
{
color = 6;
glyphname = j;
lastChange = "2023-02-02 12:21:27 +0000";
layers = (
{
background = {
paths = (
{
closed = 1;
nodes = (
"179 -216 OFFCURVE",
"263 -123 OFFCURVE",
"263 29 CURVE SMOOTH",
"263 501 LINE",
"52 501 LINE",
"52 29 LINE SMOOTH",
"52 -26 OFFCURVE",
"30 -54 OFFCURVE",
"-14 -54 CURVE SMOOTH",
"-30 -54 OFFCURVE",
"-53 -49 OFFCURVE",
"-83 -39 CURVE",
"-129 -163 LINE",
"-77 -198 OFFCURVE",
"-20 -216 OFFCURVE",
"42 -216 CURVE SMOOTH"
);
},
{
closed = 1;
nodes = (
"214 565 OFFCURVE",
"267 607 OFFCURVE",
"267 667 CURVE SMOOTH",
"267 716 OFFCURVE",
"222 768 OFFCURVE",
"154 768 CURVE SMOOTH",
"97 768 OFFCURVE",
"42 725 OFFCURVE",
"42 667 CURVE SMOOTH",
"42 612 OFFCURVE",
"90 565 OFFCURVE",
"154 565 CURVE SMOOTH"
);
}
);
};
components = (
{
name = jdotless;
},
{
name = dotaccentcomb;
transform = "{1, 0, 0, 1, -133, 0}";
}
);
layerId = UUID0;
width = 322;
}
);
leftKerningGroup = j;
rightKerningGroup = j;
unicode = 006A;
},
{
color = 3;
glyphname = jdotless;
lastChange = "2023-02-01 10:33:46 +0000";
layers = (
{
anchors = (
{
name = bottom;
position = "{167, -169}";
},
{
name = top;
position = "{167, 501}";
}
);
background = {
anchors = (
{
name = bottom;
position = "{167, 0}";
},
{
name = top;
position = "{167, 501}";
}
);
paths = (
{
closed = 1;
nodes = (
"188 -216 OFFCURVE",
"272 -123 OFFCURVE",
"272 29 CURVE SMOOTH",
"272 501 LINE",
"61 501 LINE",
"61 29 LINE SMOOTH",
"61 -26 OFFCURVE",
"39 -54 OFFCURVE",
"-5 -54 CURVE SMOOTH",
"-21 -54 OFFCURVE",
"-44 -49 OFFCURVE",
"-74 -39 CURVE",
"-120 -163 LINE",
"-68 -198 OFFCURVE",
"-11 -216 OFFCURVE",
"51 -216 CURVE SMOOTH"
);
}
);
};
layerId = UUID0;
paths = (
{
closed = 1;
nodes = (
"195 -195 OFFCURVE",
"272 -106 OFFCURVE",
"272 56 CURVE SMOOTH",
"272 501 LINE",
"61 501 LINE",
"61 38 LINE SMOOTH",
"61 -15 OFFCURVE",
"41 -38 OFFCURVE",
"-5 -38 CURVE SMOOTH",
"-24 -38 OFFCURVE",
"-48 -34 OFFCURVE",
"-70 -26 CURVE",
"-100 -169 LINE",
"-65 -184 OFFCURVE",
"-18 -195 OFFCURVE",
"37 -195 CURVE SMOOTH"
);
}
);
width = 322;
}
);
leftKerningGroup = j;
rightKerningGroup = j;
unicode = 0237;
},
{
color = 3;
glyphname = k;
lastChange = "2023-02-02 12:23:24 +0000";
layers = (
{
anchors = (
{
name = bottom;
position = "{319, 0}";
},
{
name = top;
position = "{157, 688}";
}
);
background = {
paths = (
{
closed = 1;
nodes = (
"261 690 LINE",
"50 659 LINE",
"50 0 LINE",
"261 0 LINE"
);
},
{
closed = 1;
nodes = (
"290 208 LINE",
"323 66 OFFCURVE",
"397 -8 OFFCURVE",
"539 -8 CURVE SMOOTH",
"557 -8 OFFCURVE",
"576 -7 OFFCURVE",
"602 -2 CURVE",
"617 159 LINE",
"600 155 OFFCURVE",
"584 153 OFFCURVE",
"574 153 CURVE SMOOTH",
"510 153 OFFCURVE",
"473 194 OFFCURVE",
"457 316 CURVE"
);
},
{
closed = 1;
nodes = (
"432 256 LINE",
"604 399 LINE",
"496 538 LINE",
"250 338 LINE",
"250 137 LINE",
"335 211 LINE"
);
}
);
};
layerId = UUID0;
paths = (
{
closed = 1;
nodes = (
"261 147 LINE",
"298 179 LINE",
"334 56 OFFCURVE",
"407 -8 OFFCURVE",
"539 -8 CURVE SMOOTH",
"557 -8 OFFCURVE",
"576 -7 OFFCURVE",
"602 -2 CURVE",
"617 159 LINE",
"600 155 OFFCURVE",
"584 153 OFFCURVE",
"574 153 CURVE SMOOTH",
"516 153 OFFCURVE",
"481 186 OFFCURVE",
"463 281 CURVE",
"604 399 LINE",
"496 538 LINE",
"261 347 LINE",
"261 690 LINE",
"50 659 LINE",
"50 0 LINE",
"261 0 LINE"
);
}
);
width = 626;
}
);
leftKerningGroup = b;
rightKerningGroup = k;
unicode = 006B;
},
{
color = 4;
glyphname = kgreenlandic;
lastChange = "2023-02-01 17:47:21 +0000";
layers = (
{
background = {
paths = (
{
closed = 1;
nodes = (
"261 501 LINE",
"50 501 LINE",
"50 0 LINE",
"261 0 LINE"
);
},
{
closed = 1;
nodes = (
"290 208 LINE",
"323 66 OFFCURVE",
"397 -8 OFFCURVE",
"539 -8 CURVE SMOOTH",
"557 -8 OFFCURVE",
"576 -7 OFFCURVE",
"602 -2 CURVE",
"617 159 LINE",
"600 155 OFFCURVE",
"584 153 OFFCURVE",
"574 153 CURVE SMOOTH",
"510 153 OFFCURVE",
"473 194 OFFCURVE",
"457 316 CURVE"
);
},
{
closed = 1;
nodes = (
"432 256 LINE",
"604 399 LINE",
"496 538 LINE",
"250 338 LINE",
"250 137 LINE",
"335 211 LINE"
);
}
);
};
layerId = UUID0;
paths = (
{
closed = 1;
nodes = (
"261 147 LINE",
"298 179 LINE",
"334 56 OFFCURVE",
"407 -8 OFFCURVE",
"539 -8 CURVE SMOOTH",
"557 -8 OFFCURVE",
"576 -7 OFFCURVE",
"602 -2 CURVE",
"617 159 LINE",
"600 155 OFFCURVE",
"584 153 OFFCURVE",
"574 153 CURVE SMOOTH",
"516 153 OFFCURVE",
"481 186 OFFCURVE",
"463 281 CURVE",
"604 399 LINE",
"496 538 LINE",
"261 347 LINE",
"261 501 LINE",
"50 501 LINE",
"50 0 LINE",
"261 0 LINE"
);
}
);
width = 626;
}
);
leftKerningGroup = m;
rightKerningGroup = k;
unicode = 0138;
},
{
color = 3;
glyphname = l;
lastChange = "2023-02-02 12:22:50 +0000";
layers = (
{
anchors = (
{
name = bottom;
position = "{211, 0}";
},
{
name = center;
position = "{400, 391}";
},
{
name = stroke;
position = "{180, 412}";
},
{
name = top;
position = "{153, 688}";
},
{
name = topright;
position = "{318, 688}";
}
);
background = {
anchors = (
{
name = bottom;
position = "{211, 0}";
},
{
name = center;
position = "{400, 391}";
},
{
name = top;
position = "{153, 688}";
},
{
name = topright;
position = "{318, 688}";
}
);
paths = (
{
closed = 1;
nodes = (
"280 -8 OFFCURVE",
"330 3 OFFCURVE",
"375 26 CURVE",
"368 166 LINE",
"352 158 OFFCURVE",
"337 154 OFFCURVE",
"319 154 CURVE SMOOTH",
"273 154 OFFCURVE",
"258 171 OFFCURVE",
"258 207 CURVE SMOOTH",
"258 690 LINE",
"47 659 LINE",
"47 192 LINE SMOOTH",
"47 69 OFFCURVE",
"111 -8 OFFCURVE",
"225 -8 CURVE SMOOTH"
);
}
);
};
layerId = UUID0;
paths = (
{
closed = 1;
nodes = (
"287 -8 OFFCURVE",
"343 4 OFFCURVE",
"375 27 CURVE",
"360 166 LINE",
"344 158 OFFCURVE",
"328 154 OFFCURVE",
"312 154 CURVE SMOOTH",
"280 154 OFFCURVE",
"258 171 OFFCURVE",
"258 202 CURVE SMOOTH",
"258 710 LINE",
"47 679 LINE",
"47 173 LINE SMOOTH",
"47 71 OFFCURVE",
"104 -8 OFFCURVE",
"247 -8 CURVE SMOOTH"
);
}
);
width = 375;
}
);
leftKerningGroup = b;
rightKerningGroup = l;
unicode = 006C;
},
{
color = 6;
glyphname = lslash;
lastChange = "2023-02-01 17:48:45 +0000";
layers = (
{
background = {
paths = (
{
closed = 1;
nodes = (
"311 -8 OFFCURVE",
"361 3 OFFCURVE",
"406 26 CURVE",
"399 166 LINE",
"383 158 OFFCURVE",
"368 154 OFFCURVE",
"350 154 CURVE SMOOTH",
"304 154 OFFCURVE",
"289 171 OFFCURVE",
"289 207 CURVE SMOOTH",
"289 390 LINE",
"375 416 LINE",
"375 501 LINE",
"289 475 LINE",
"289 690 LINE",
"78 659 LINE",
"78 410 LINE",
"-6 385 LINE",
"-6 300 LINE",
"78 325 LINE",
"78 192 LINE SMOOTH",
"78 69 OFFCURVE",
"142 -8 OFFCURVE",
"256 -8 CURVE SMOOTH"
);
}
);
};
components = (
{
name = l;
},
{
name = slashshortcomb;
transform = "{1, 0, 0, 1, -5, 11}";
}
);
layerId = UUID0;
width = 375;
}
);
leftKerningGroup = b;
rightKerningGroup = l;
unicode = 0142;
},
{
color = 3;
glyphname = m;
lastChange = "2023-02-01 10:33:46 +0000";
layers = (
{
anchors = (
{
name = bottom;
position = "{513, 0}";
},
{
name = top;
position = "{513, 501}";
}
);
background = {
anchors = (
{
name = bottom;
position = "{513, 0}";
},
{
name = top;
position = "{513, 501}";
}
);
paths = (
{
closed = 1;
nodes = (
"1361 0 LINE",
"1361 254 LINE SMOOTH",
"1361 309 OFFCURVE",
"1398 353 OFFCURVE",
"1443 353 CURVE SMOOTH",
"1485 353 OFFCURVE",
"1510 319 OFFCURVE",
"1510 250 CURVE SMOOTH",
"1510 0 LINE",
"1719 0 LINE",
"1719 254 LINE SMOOTH",
"1719 309 OFFCURVE",
"1757 353 OFFCURVE",
"1802 353 CURVE SMOOTH",
"1843 353 OFFCURVE",
"1868 319 OFFCURVE",
"1868 250 CURVE SMOOTH",
"1868 0 LINE",
"2079 0 LINE",
"2079 250 LINE SMOOTH",
"2079 411 OFFCURVE",
"2002 508 OFFCURVE",
"1886 508 CURVE SMOOTH",
"1798 508 OFFCURVE",
"1740 467 OFFCURVE",
"1700 399 CURVE",
"1672 463 OFFCURVE",
"1614 508 OFFCURVE",
"1532 508 CURVE SMOOTH",
"1451 508 OFFCURVE",
"1396 470 OFFCURVE",
"1351 392 CURVE",
"1351 494 LINE",
"1150 494 LINE",
"1150 0 LINE"
);
},
{
closed = 1;
nodes = (
"621 0 LINE",
"621 234 LINE SMOOTH",
"621 304 OFFCURVE",
"655 350 OFFCURVE",
"707 350 CURVE SMOOTH",
"748 350 OFFCURVE",
"770 321 OFFCURVE",
"770 261 CURVE SMOOTH",
"770 0 LINE",
"981 0 LINE",
"981 250 LINE SMOOTH",
"981 414 OFFCURVE",
"910 508 OFFCURVE",
"786 508 CURVE SMOOTH",
"702 508 OFFCURVE",
"647 467 OFFCURVE",
"618 392 CURVE",
"618 501 LINE",
"410 501 LINE",
"410 0 LINE"
);
}
);
};
layerId = UUID0;
paths = (
{
closed = 1;
nodes = (
"261 0 LINE",
"261 234 LINE SMOOTH",
"261 307 OFFCURVE",
"295 350 OFFCURVE",
"347 350 CURVE SMOOTH",
"388 350 OFFCURVE",
"410 324 OFFCURVE",
"410 261 CURVE SMOOTH",
"410 0 LINE",
"621 0 LINE",
"621 234 LINE SMOOTH",
"621 304 OFFCURVE",
"655 350 OFFCURVE",
"707 350 CURVE SMOOTH",
"748 350 OFFCURVE",
"770 321 OFFCURVE",
"770 261 CURVE SMOOTH",
"770 0 LINE",
"981 0 LINE",
"981 250 LINE SMOOTH",
"981 414 OFFCURVE",
"910 508 OFFCURVE",
"786 508 CURVE SMOOTH",
"698 508 OFFCURVE",
"638 467 OFFCURVE",
"593 399 CURVE",
"569 463 OFFCURVE",
"508 508 OFFCURVE",
"426 508 CURVE SMOOTH",
"342 508 OFFCURVE",
"287 467 OFFCURVE",
"258 392 CURVE",
"258 501 LINE",
"50 501 LINE",
"50 0 LINE"
);
}
);
width = 1026;
}
);
leftKerningGroup = m;
rightKerningGroup = h;
unicode = 006D;
},
{
color = 3;
glyphname = n;
lastChange = "2023-02-01 10:55:55 +0000";
layers = (
{
anchors = (
{
name = bottom;
position = "{346, 0}";
},
{
name = top;
position = "{344, 501}";
}
);
background = {
anchors = (
{
name = bottom;
position = "{1044, 0}";
},
{
name = top;
position = "{1044, 501}";
}
);
paths = (
{
closed = 1;
nodes = (
"961 0 LINE",
"961 234 LINE SMOOTH",
"961 312 OFFCURVE",
"1013 360 OFFCURVE",
"1060 360 CURVE SMOOTH",
"1103 360 OFFCURVE",
"1130 329 OFFCURVE",
"1130 271 CURVE SMOOTH",
"1130 0 LINE",
"1340 0 LINE",
"1340 250 LINE SMOOTH",
"1340 411 OFFCURVE",
"1263 508 OFFCURVE",
"1135 508 CURVE SMOOTH",
"1051 508 OFFCURVE",
"989 468 OFFCURVE",
"951 392 CURVE",
"951 494 LINE",
"750 494 LINE",
"750 0 LINE"
);
},
{
closed = 1;
nodes = (
"563 -8 OFFCURVE",
"670 101 OFFCURVE",
"670 253 CURVE SMOOTH",
"670 404 OFFCURVE",
"563 508 OFFCURVE",
"424 508 CURVE SMOOTH",
"359 508 OFFCURVE",
"292 474 OFFCURVE",
"260 392 CURVE",
"260 501 LINE",
"50 501 LINE",
"50 0 LINE",
"260 0 LINE",
"260 93 LINE",
"292 28 OFFCURVE",
"344 -8 OFFCURVE",
"424 -8 CURVE SMOOTH"
);
},
{
closed = 1;
nodes = (
"304 150 OFFCURVE",
"260 195 OFFCURVE",
"260 252 CURVE SMOOTH",
"260 309 OFFCURVE",
"304 350 OFFCURVE",
"359 350 CURVE SMOOTH",
"416 350 OFFCURVE",
"460 306 OFFCURVE",
"460 250 CURVE SMOOTH",
"460 194 OFFCURVE",
"416 150 OFFCURVE",
"359 150 CURVE SMOOTH"
);
}
);
};
layerId = UUID0;
paths = (
{
closed = 1;
nodes = (
"261 0 LINE",
"261 234 LINE SMOOTH",
"261 304 OFFCURVE",
"300 350 OFFCURVE",
"358 350 CURVE SMOOTH",
"405 350 OFFCURVE",
"430 321 OFFCURVE",
"430 261 CURVE SMOOTH",
"430 0 LINE",
"641 0 LINE",
"641 250 LINE SMOOTH",
"641 414 OFFCURVE",
"566 508 OFFCURVE",
"435 508 CURVE SMOOTH",
"351 508 OFFCURVE",
"289 467 OFFCURVE",
"258 392 CURVE",
"258 501 LINE",
"50 501 LINE",
"50 0 LINE"
);
}
);
width = 686;
}
);
leftKerningGroup = m;
rightKerningGroup = h;
unicode = 006E;
},
{
color = 3;
glyphname = eng;
lastChange = "2023-02-01 10:33:46 +0000";
layers = (
{
background = {
paths = (
{
closed = 1;
nodes = (
"558 -246 OFFCURVE",
"640 -152 OFFCURVE",
"640 0 CURVE SMOOTH",
"640 250 LINE SMOOTH",
"640 411 OFFCURVE",
"563 508 OFFCURVE",
"435 508 CURVE SMOOTH",
"351 508 OFFCURVE",
"289 468 OFFCURVE",
"251 392 CURVE",
"251 494 LINE",
"50 494 LINE",
"50 0 LINE",
"261 0 LINE",
"261 234 LINE SMOOTH",
"261 312 OFFCURVE",
"313 360 OFFCURVE",
"360 360 CURVE SMOOTH",
"403 360 OFFCURVE",
"430 329 OFFCURVE",
"430 271 CURVE SMOOTH",
"430 -10 LINE SMOOTH",
"430 -65 OFFCURVE",
"407 -93 OFFCURVE",
"362 -93 CURVE SMOOTH",
"343 -93 OFFCURVE",
"320 -89 OFFCURVE",
"294 -79 CURVE",
"248 -193 LINE",
"301 -229 OFFCURVE",
"358 -246 OFFCURVE",
"419 -246 CURVE SMOOTH"
);
}
);
};
layerId = UUID0;
paths = (
{
closed = 1;
nodes = (
"351 508 OFFCURVE",
"289 467 OFFCURVE",
"258 392 CURVE",
"258 501 LINE",
"50 501 LINE",
"50 0 LINE",
"261 0 LINE",
"261 234 LINE SMOOTH",
"261 304 OFFCURVE",
"300 350 OFFCURVE",
"358 350 CURVE SMOOTH",
"405 350 OFFCURVE",
"430 321 OFFCURVE",
"430 261 CURVE SMOOTH",
"430 38 LINE SMOOTH",
"430 -15 OFFCURVE",
"412 -38 OFFCURVE",
"369 -38 CURVE SMOOTH",
"351 -38 OFFCURVE",
"329 -34 OFFCURVE",
"309 -26 CURVE",
"279 -169 LINE",
"313 -184 OFFCURVE",
"359 -195 OFFCURVE",
"412 -195 CURVE SMOOTH",
"566 -195 OFFCURVE",
"641 -106 OFFCURVE",
"641 56 CURVE SMOOTH",
"641 250 LINE SMOOTH",
"641 414 OFFCURVE",
"566 508 OFFCURVE",
"435 508 CURVE SMOOTH"
);
}
);
width = 686;
}
);
leftKerningGroup = m;
rightKerningGroup = h;
unicode = 014B;
},
{
color = 3;
glyphname = o;
lastChange = "2023-02-02 12:39:35 +0000";
layers = (
{
anchors = (
{
name = bottom;
position = "{314, 0}";
},
{
name = center;
position = "{314, 251}";
},
{
name = ogonek;
position = "{389, 0}";
},
{
name = top;
position = "{314, 501}";
},
{
name = topright;
position = "{607, 501}";
}
);
background = {
anchors = (
{
name = bottom;
position = "{314, 0}";
},
{
name = center;
position = "{314, 251}";
},
{
name = ogonek;
position = "{389, 0}";
},
{
name = top;
position = "{314, 501}";
},
{
name = topright;
position = "{607, 501}";
}
);
paths = (
{
closed = 1;
nodes = (
"484 -8 OFFCURVE",
"602 96 OFFCURVE",
"602 251 CURVE SMOOTH",
"602 404 OFFCURVE",
"486 508 OFFCURVE",
"314 508 CURVE SMOOTH",
"146 508 OFFCURVE",
"25 406 OFFCURVE",
"25 251 CURVE SMOOTH",
"25 98 OFFCURVE",
"142 -8 OFFCURVE",
"313 -8 CURVE SMOOTH"
);
},
{
closed = 1;
nodes = (
"260 142 OFFCURVE",
"221 187 OFFCURVE",
"221 251 CURVE SMOOTH",
"221 315 OFFCURVE",
"260 360 OFFCURVE",
"315 360 CURVE SMOOTH",
"370 360 OFFCURVE",
"409 315 OFFCURVE",
"409 251 CURVE SMOOTH",
"409 187 OFFCURVE",
"370 142 OFFCURVE",
"315 142 CURVE SMOOTH"
);
}
);
};
layerId = UUID0;
paths = (
{
closed = 1;
nodes = (
"484 -8 OFFCURVE",
"602 96 OFFCURVE",
"602 251 CURVE SMOOTH",
"602 404 OFFCURVE",
"486 508 OFFCURVE",
"314 508 CURVE SMOOTH",
"146 508 OFFCURVE",
"25 406 OFFCURVE",
"25 251 CURVE SMOOTH",
"25 98 OFFCURVE",
"142 -8 OFFCURVE",
"313 -8 CURVE SMOOTH"
);
},
{
closed = 1;
nodes = (
"260 142 OFFCURVE",
"221 187 OFFCURVE",
"221 251 CURVE SMOOTH",
"221 315 OFFCURVE",
"260 360 OFFCURVE",
"317 360 CURVE SMOOTH",
"370 360 OFFCURVE",
"409 315 OFFCURVE",
"409 251 CURVE SMOOTH",
"409 187 OFFCURVE",
"370 142 OFFCURVE",
"315 142 CURVE SMOOTH"
);
}
);
width = 627;
}
);
leftKerningGroup = c;
rightKerningGroup = o;
unicode = 006F;
},
{
color = 3;
glyphname = oogonek;
lastChange = "2023-02-01 10:33:46 +0000";
layers = (
{
anchors = (
{
name = center;
position = "{314, 251}";
},
{
name = top;
position = "{314, 501}";
}
);
background = {
paths = (
{
closed = 1;
nodes = (
"484 -8 OFFCURVE",
"602 96 OFFCURVE",
"602 251 CURVE SMOOTH",
"602 404 OFFCURVE",
"486 508 OFFCURVE",
"314 508 CURVE SMOOTH",
"146 508 OFFCURVE",
"25 406 OFFCURVE",
"25 251 CURVE SMOOTH",
"25 98 OFFCURVE",
"142 -8 OFFCURVE",
"313 -8 CURVE SMOOTH"
);
},
{
closed = 1;
nodes = (
"260 142 OFFCURVE",
"221 187 OFFCURVE",
"221 251 CURVE SMOOTH",
"221 315 OFFCURVE",
"260 360 OFFCURVE",
"317 360 CURVE SMOOTH",
"370 360 OFFCURVE",
"409 315 OFFCURVE",
"409 251 CURVE SMOOTH",
"409 187 OFFCURVE",
"370 142 OFFCURVE",
"315 142 CURVE SMOOTH"
);
},
{
closed = 1;
nodes = (
"352 -248 OFFCURVE",
"385 -243 OFFCURVE",
"416 -230 CURVE",
"415 -172 LINE",
"397 -178 OFFCURVE",
"380 -181 OFFCURVE",
"368 -181 CURVE SMOOTH",
"336 -181 OFFCURVE",
"320 -167 OFFCURVE",
"320 -140 CURVE SMOOTH",
"320 -101 OFFCURVE",
"351 -56 OFFCURVE",
"419 0 CURVE",
"351 10 LINE",
"248 -37 OFFCURVE",
"192 -97 OFFCURVE",
"192 -158 CURVE SMOOTH",
"192 -212 OFFCURVE",
"237 -248 OFFCURVE",
"323 -248 CURVE SMOOTH"
);
}
);
};
layerId = UUID0;
paths = (
{
closed = 1;
nodes = (
"558 78 OFFCURVE",
"602 151 OFFCURVE",
"602 251 CURVE SMOOTH",
"602 404 OFFCURVE",
"486 508 OFFCURVE",
"314 508 CURVE SMOOTH",
"146 508 OFFCURVE",
"25 406 OFFCURVE",
"25 251 CURVE SMOOTH",
"25 98 OFFCURVE",
"142 -8 OFFCURVE",
"310 -8 CURVE",
"239 -50 OFFCURVE",
"198 -103 OFFCURVE",
"198 -158 CURVE SMOOTH",
"198 -212 OFFCURVE",
"243 -248 OFFCURVE",
"329 -248 CURVE SMOOTH",
"358 -248 OFFCURVE",
"391 -243 OFFCURVE",
"422 -230 CURVE",
"421 -172 LINE",
"403 -178 OFFCURVE",
"386 -181 OFFCURVE",
"374 -181 CURVE SMOOTH",
"342 -181 OFFCURVE",
"326 -167 OFFCURVE",
"326 -140 CURVE SMOOTH",
"326 -101 OFFCURVE",
"351 -42 OFFCURVE",
"468 26 CURVE SMOOTH"
);
},
{
closed = 1;
nodes = (
"221 315 OFFCURVE",
"260 360 OFFCURVE",
"317 360 CURVE SMOOTH",
"370 360 OFFCURVE",
"409 315 OFFCURVE",
"409 251 CURVE SMOOTH",
"409 187 OFFCURVE",
"370 142 OFFCURVE",
"315 142 CURVE SMOOTH",
"260 142 OFFCURVE",
"221 187 OFFCURVE",
"221 251 CURVE SMOOTH"
);
}
);
width = 627;
}
);
leftKerningGroup = c;
rightKerningGroup = o;
unicode = 01EB;
},
{
color = 6;
glyphname = oslash;
lastChange = "2023-02-01 10:33:46 +0000";
layers = (
{
anchors = (
{
name = top;
position = "{314, 501}";
}
);
background = {
anchors = (
{
name = top;
position = "{314, 501}";
}
);
paths = (
{
closed = 1;
nodes = (
"240 -87 LINE",
"266 -5 LINE",
"281 -7 OFFCURVE",
"297 -8 OFFCURVE",
"313 -8 CURVE SMOOTH",
"484 -8 OFFCURVE",
"602 96 OFFCURVE",
"602 251 CURVE SMOOTH",
"602 368 OFFCURVE",
"535 456 OFFCURVE",
"426 491 CURVE",
"457 587 LINE",
"387 587 LINE",
"361 505 LINE",
"346 507 OFFCURVE",
"330 508 OFFCURVE",
"314 508 CURVE SMOOTH",
"146 508 OFFCURVE",
"25 406 OFFCURVE",
"25 251 CURVE SMOOTH",
"25 134 OFFCURVE",
"93 45 OFFCURVE",
"201 9 CURVE",
"170 -87 LINE"
);
},
{
closed = 1;
nodes = (
"228 182 OFFCURVE",
"215 213 OFFCURVE",
"215 251 CURVE SMOOTH",
"215 317 OFFCURVE",
"254 362 OFFCURVE",
"314 362 CURVE SMOOTH",
"315 362 LINE",
"250 162 LINE"
);
},
{
closed = 1;
nodes = (
"377 340 LINE",
"400 320 OFFCURVE",
"413 289 OFFCURVE",
"413 251 CURVE SMOOTH",
"413 185 OFFCURVE",
"374 140 OFFCURVE",
"314 140 CURVE SMOOTH",
"313 140 LINE"
);
}
);
};
components = (
{
name = o;
},
{
name = slashlongcomb.o;
transform = "{1, 0, 0, 1, 0, 1}";
}
);
layerId = UUID0;
width = 627;
}
);
leftKerningGroup = c;
rightKerningGroup = o;
unicode = 00F8;
},
{
color = 3;
glyphname = ohorn;
lastChange = "2023-02-01 10:33:46 +0000";
layers = (
{
anchors = (
{
name = bottom;
position = "{314, 0}";
},
{
name = ogonek;
position = "{389, 0}";
},
{
name = top;
position = "{314, 501}";
}
);
background = {
anchors = (
{
name = bottom;
position = "{314, 0}";
},
{
name = ogonek;
position = "{389, 0}";
},
{
name = top;
position = "{314, 501}";
}
);
paths = (
{
closed = 1;
nodes = (
"484 -8 OFFCURVE",
"602 96 OFFCURVE",
"602 251 CURVE SMOOTH",
"602 404 OFFCURVE",
"486 508 OFFCURVE",
"314 508 CURVE SMOOTH",
"146 508 OFFCURVE",
"25 406 OFFCURVE",
"25 251 CURVE SMOOTH",
"25 98 OFFCURVE",
"142 -8 OFFCURVE",
"313 -8 CURVE SMOOTH"
);
},
{
closed = 1;
nodes = (
"260 142 OFFCURVE",
"221 187 OFFCURVE",
"221 251 CURVE SMOOTH",
"221 315 OFFCURVE",
"260 360 OFFCURVE",
"317 360 CURVE SMOOTH",
"370 360 OFFCURVE",
"409 315 OFFCURVE",
"409 251 CURVE SMOOTH",
"409 187 OFFCURVE",
"370 142 OFFCURVE",
"315 142 CURVE SMOOTH"
);
}
);
};
layerId = UUID0;
paths = (
{
closed = 1;
nodes = (
"484 -8 OFFCURVE",
"602 96 OFFCURVE",
"602 251 CURVE SMOOTH",
"602 312 OFFCURVE",
"583 366 OFFCURVE",
"538 418 CURVE",
"599 434 OFFCURVE",
"621 487 OFFCURVE",
"621 594 CURVE",
"504 594 LINE",
"504 505 OFFCURVE",
"485 498 OFFCURVE",
"430 498 CURVE SMOOTH",
"395 498 OFFCURVE",
"368 508 OFFCURVE",
"314 508 CURVE SMOOTH",
"146 508 OFFCURVE",
"25 406 OFFCURVE",
"25 251 CURVE SMOOTH",
"25 98 OFFCURVE",
"142 -8 OFFCURVE",
"313 -8 CURVE SMOOTH"
);
},
{
closed = 1;
nodes = (
"260 142 OFFCURVE",
"221 187 OFFCURVE",
"221 251 CURVE SMOOTH",
"221 315 OFFCURVE",
"260 360 OFFCURVE",
"317 360 CURVE SMOOTH",
"370 360 OFFCURVE",
"409 315 OFFCURVE",
"409 251 CURVE SMOOTH",
"409 187 OFFCURVE",
"370 142 OFFCURVE",
"315 142 CURVE SMOOTH"
);
}
);
width = 627;
}
);
leftKerningGroup = c;
rightKerningGroup = o;
unicode = 01A1;
},
{
color = 4;
glyphname = oe;
lastChange = "2023-02-01 17:49:25 +0000";
layers = (
{
anchors = (
{
name = bottom;
position = "{507, 0}";
},
{
name = top;
position = "{507, 501}";
}
);
background = {
paths = (
{
closed = 1;
nodes = (
"472 -8 OFFCURVE",
"582 96 OFFCURVE",
"582 251 CURVE SMOOTH",
"582 404 OFFCURVE",
"474 508 OFFCURVE",
"314 508 CURVE SMOOTH",
"146 508 OFFCURVE",
"25 406 OFFCURVE",
"25 251 CURVE SMOOTH",
"25 98 OFFCURVE",
"142 -8 OFFCURVE",
"313 -8 CURVE SMOOTH"
);
},
{
closed = 1;
nodes = (
"260 142 OFFCURVE",
"221 187 OFFCURVE",
"221 251 CURVE SMOOTH",
"221 315 OFFCURVE",
"260 360 OFFCURVE",
"317 360 CURVE SMOOTH",
"370 360 OFFCURVE",
"409 315 OFFCURVE",
"409 251 CURVE SMOOTH",
"409 187 OFFCURVE",
"370 142 OFFCURVE",
"315 142 CURVE SMOOTH"
);
},
{
closed = 1;
nodes = (
"605 279 CURVE SMOOTH",
"604 339 OFFCURVE",
"638 387 OFFCURVE",
"695 387 CURVE SMOOTH",
"731 387 OFFCURVE",
"756 366 OFFCURVE",
"762 324 CURVE",
"587 287 LINE",
"595 196 LINE",
"919 237 LINE",
"919 410 OFFCURVE",
"838 508 OFFCURVE",
"688 508 CURVE SMOOTH",
"545 508 OFFCURVE",
"429 406 OFFCURVE",
"429 250 CURVE SMOOTH",
"429 98 OFFCURVE",
"528 -8 OFFCURVE",
"717 -8 CURVE SMOOTH",
"791 -8 OFFCURVE",
"847 5 OFFCURVE",
"897 31 CURVE",
"873 160 LINE",
"827 138 OFFCURVE",
"784 132 OFFCURVE",
"745 132 CURVE SMOOTH",
"657 132 OFFCURVE",
"607 179 OFFCURVE"
);
}
);
};
layerId = UUID0;
paths = (
{
closed = 1;
nodes = (
"391 -8 OFFCURVE",
"458 17 OFFCURVE",
"505 61 CURVE",
"553 17 OFFCURVE",
"624 -8 OFFCURVE",
"717 -8 CURVE SMOOTH",
"791 -8 OFFCURVE",
"847 5 OFFCURVE",
"897 31 CURVE",
"873 160 LINE",
"827 138 OFFCURVE",
"784 132 OFFCURVE",
"745 132 CURVE SMOOTH",
"685 132 OFFCURVE",
"643 154 OFFCURVE",
"621 199 CURVE",
"919 237 LINE",
"919 410 OFFCURVE",
"838 508 OFFCURVE",
"688 508 CURVE SMOOTH",
"617 508 OFFCURVE",
"553 483 OFFCURVE",
"506 439 CURVE",
"459 483 OFFCURVE",
"393 508 OFFCURVE",
"314 508 CURVE SMOOTH",
"146 508 OFFCURVE",
"25 406 OFFCURVE",
"25 251 CURVE SMOOTH",
"25 98 OFFCURVE",
"142 -8 OFFCURVE",
"313 -8 CURVE SMOOTH"
);
},
{
closed = 1;
nodes = (
"221 315 OFFCURVE",
"260 360 OFFCURVE",
"317 360 CURVE SMOOTH",
"370 360 OFFCURVE",
"409 315 OFFCURVE",
"409 251 CURVE SMOOTH",
"409 187 OFFCURVE",
"370 142 OFFCURVE",
"315 142 CURVE SMOOTH",
"260 142 OFFCURVE",
"221 187 OFFCURVE",
"221 251 CURVE SMOOTH"
);
},
{
closed = 1;
nodes = (
"609 345 OFFCURVE",
"642 387 OFFCURVE",
"695 387 CURVE SMOOTH",
"731 387 OFFCURVE",
"756 366 OFFCURVE",
"762 324 CURVE",
"605 291 LINE"
);
}
);
width = 939;
}
);
leftKerningGroup = c;
leftMetricsKey = o;
rightKerningGroup = e;
rightMetricsKey = e;
unicode = 0153;
},
{
color = 3;
glyphname = p;
lastChange = "2023-02-01 10:33:46 +0000";
layers = (
{
anchors = (
{
name = bottom;
position = "{348, 0}";
},
{
name = top;
position = "{348, 501}";
}
);
background = {
anchors = (
{
name = bottom;
position = "{348, 0}";
},
{
name = top;
position = "{348, 501}";
}
);
paths = (
{
closed = 1;
nodes = (
"261 -130 LINE",
"261 93 LINE",
"294 26 OFFCURVE",
"349 -8 OFFCURVE",
"425 -8 CURVE SMOOTH",
"554 -8 OFFCURVE",
"669 101 OFFCURVE",
"669 250 CURVE SMOOTH",
"669 398 OFFCURVE",
"560 508 OFFCURVE",
"424 508 CURVE SMOOTH",
"346 508 OFFCURVE",
"293 475 OFFCURVE",
"261 407 CURVE",
"261 494 LINE",
"50 494 LINE",
"50 -170 LINE"
);
},
{
closed = 1;
nodes = (
"308 150 OFFCURVE",
"262 193 OFFCURVE",
"262 250 CURVE SMOOTH",
"262 254 LINE SMOOTH",
"262 306 OFFCURVE",
"306 350 OFFCURVE",
"361 350 CURVE SMOOTH",
"414 350 OFFCURVE",
"460 307 OFFCURVE",
"460 250 CURVE SMOOTH",
"460 198 OFFCURVE",
"417 150 OFFCURVE",
"361 150 CURVE SMOOTH"
);
}
);
};
layerId = UUID0;
paths = (
{
closed = 1;
nodes = (
"261 93 LINE",
"292 28 OFFCURVE",
"344 -8 OFFCURVE",
"424 -8 CURVE SMOOTH",
"563 -8 OFFCURVE",
"670 101 OFFCURVE",
"670 253 CURVE SMOOTH",
"670 404 OFFCURVE",
"563 508 OFFCURVE",
"424 508 CURVE SMOOTH",
"359 508 OFFCURVE",
"292 474 OFFCURVE",
"258 392 CURVE",
"258 501 LINE",
"50 501 LINE",
"50 -189 LINE",
"261 -158 LINE"
);
},
{
closed = 1;
nodes = (
"304 150 OFFCURVE",
"260 195 OFFCURVE",
"260 252 CURVE SMOOTH",
"260 309 OFFCURVE",
"304 350 OFFCURVE",
"359 350 CURVE SMOOTH",
"416 350 OFFCURVE",
"460 306 OFFCURVE",
"460 250 CURVE SMOOTH",
"460 194 OFFCURVE",
"416 150 OFFCURVE",
"359 150 CURVE SMOOTH"
);
}
);
width = 695;
}
);
leftKerningGroup = m;
rightKerningGroup = o;
unicode = 0070;
},
{
color = 3;
glyphname = thorn;
lastChange = "2023-02-01 10:33:46 +0000";
layers = (
{
background = {
paths = (
{
closed = 1;
nodes = (
"261 -249 LINE",
"261 93 LINE",
"292 26 OFFCURVE",
"347 -16 OFFCURVE",
"425 -16 CURVE SMOOTH",
"555 -16 OFFCURVE",
"669 104 OFFCURVE",
"669 250 CURVE SMOOTH",
"669 397 OFFCURVE",
"560 516 OFFCURVE",
"424 516 CURVE SMOOTH",
"349 516 OFFCURVE",
"295 479 OFFCURVE",
"261 407 CURVE",
"261 690 LINE",
"50 659 LINE",
"50 -249 LINE"
);
},
{
closed = 1;
nodes = (
"307 150 OFFCURVE",
"261 194 OFFCURVE",
"261 250 CURVE SMOOTH",
"261 254 LINE",
"263 306 OFFCURVE",
"305 350 OFFCURVE",
"360 350 CURVE SMOOTH",
"407 350 OFFCURVE",
"460 314 OFFCURVE",
"460 250 CURVE SMOOTH",
"460 197 OFFCURVE",
"416 150 OFFCURVE",
"360 150 CURVE SMOOTH"
);
}
);
};
layerId = UUID0;
paths = (
{
closed = 1;
nodes = (
"261 93 LINE",
"292 28 OFFCURVE",
"344 -8 OFFCURVE",
"424 -8 CURVE SMOOTH",
"563 -8 OFFCURVE",
"670 101 OFFCURVE",
"670 253 CURVE SMOOTH",
"670 404 OFFCURVE",
"563 508 OFFCURVE",
"424 508 CURVE SMOOTH",
"359 508 OFFCURVE",
"292 474 OFFCURVE",
"261 396 CURVE",
"261 690 LINE",
"50 659 LINE",
"50 -189 LINE",
"261 -158 LINE"
);
},
{
closed = 1;
nodes = (
"304 150 OFFCURVE",
"260 195 OFFCURVE",
"260 252 CURVE SMOOTH",
"260 309 OFFCURVE",
"304 350 OFFCURVE",
"359 350 CURVE SMOOTH",
"416 350 OFFCURVE",
"460 306 OFFCURVE",
"460 250 CURVE SMOOTH",
"460 194 OFFCURVE",
"416 150 OFFCURVE",
"359 150 CURVE SMOOTH"
);
}
);
width = 695;
}
);
leftKerningGroup = b;
rightKerningGroup = o;
unicode = 00FE;
},
{
color = 3;
glyphname = q;
lastChange = "2023-02-01 10:33:46 +0000";
layers = (
{
anchors = (
{
name = bottom;
position = "{347, 0}";
},
{
name = top;
position = "{347, 501}";
}
);
background = {
anchors = (
{
name = bottom;
position = "{347, 0}";
},
{
name = top;
position = "{347, 501}";
}
);
paths = (
{
closed = 1;
nodes = (
"1545 -130 LINE",
"1545 494 LINE",
"1334 494 LINE",
"1334 407 LINE",
"1299 479 OFFCURVE",
"1244 508 OFFCURVE",
"1170 508 CURVE SMOOTH",
"1036 508 OFFCURVE",
"925 398 OFFCURVE",
"925 250 CURVE SMOOTH",
"925 115 OFFCURVE",
"1020 -8 OFFCURVE",
"1169 -8 CURVE SMOOTH",
"1243 -8 OFFCURVE",
"1298 21 OFFCURVE",
"1334 93 CURVE",
"1334 -170 LINE"
);
},
{
closed = 1;
nodes = (
"1183 150 OFFCURVE",
"1135 193 OFFCURVE",
"1135 250 CURVE SMOOTH",
"1135 303 OFFCURVE",
"1179 350 OFFCURVE",
"1235 350 CURVE SMOOTH",
"1285 350 OFFCURVE",
"1332 307 OFFCURVE",
"1334 254 CURVE",
"1334 246 LINE",
"1332 195 OFFCURVE",
"1289 150 OFFCURVE",
"1235 150 CURVE SMOOTH"
);
},
{
closed = 1;
nodes = (
"351 -8 OFFCURVE",
"403 28 OFFCURVE",
"435 93 CURVE",
"435 0 LINE",
"645 0 LINE",
"645 501 LINE",
"437 501 LINE",
"437 392 LINE",
"403 474 OFFCURVE",
"336 508 OFFCURVE",
"271 508 CURVE SMOOTH",
"132 508 OFFCURVE",
"25 404 OFFCURVE",
"25 253 CURVE SMOOTH",
"25 101 OFFCURVE",
"132 -8 OFFCURVE",
"271 -8 CURVE SMOOTH"
);
},
{
closed = 1;
nodes = (
"279 150 OFFCURVE",
"235 194 OFFCURVE",
"235 250 CURVE SMOOTH",
"235 306 OFFCURVE",
"279 350 OFFCURVE",
"336 350 CURVE SMOOTH",
"391 350 OFFCURVE",
"435 309 OFFCURVE",
"435 252 CURVE SMOOTH",
"435 195 OFFCURVE",
"391 150 OFFCURVE",
"336 150 CURVE SMOOTH"
);
}
);
};
layerId = UUID0;
paths = (
{
closed = 1;
nodes = (
"645 -158 LINE",
"645 501 LINE",
"437 501 LINE",
"437 392 LINE",
"403 474 OFFCURVE",
"336 508 OFFCURVE",
"271 508 CURVE SMOOTH",
"132 508 OFFCURVE",
"25 404 OFFCURVE",
"25 253 CURVE SMOOTH",
"25 101 OFFCURVE",
"132 -8 OFFCURVE",
"271 -8 CURVE SMOOTH",
"351 -8 OFFCURVE",
"403 28 OFFCURVE",
"434 93 CURVE",
"434 -189 LINE"
);
},
{
closed = 1;
nodes = (
"279 150 OFFCURVE",
"235 194 OFFCURVE",
"235 250 CURVE SMOOTH",
"235 306 OFFCURVE",
"279 350 OFFCURVE",
"336 350 CURVE SMOOTH",
"391 350 OFFCURVE",
"435 309 OFFCURVE",
"435 252 CURVE SMOOTH",
"435 195 OFFCURVE",
"391 150 OFFCURVE",
"336 150 CURVE SMOOTH"
);
}
);
width = 695;
}
);
leftKerningGroup = c;
unicode = 0071;
},
{
color = 3;
glyphname = r;
lastChange = "2023-02-01 10:33:46 +0000";
layers = (
{
anchors = (
{
name = bottom;
position = "{156, 0}";
},
{
name = top;
position = "{233, 501}";
}
);
background = {
anchors = (
{
name = bottom;
position = "{156, 0}";
},
{
name = top;
position = "{233, 501}";
}
);
paths = (
{
closed = 1;
nodes = (
"261 0 LINE",
"261 260 LINE SMOOTH",
"261 319 OFFCURVE",
"318 345 OFFCURVE",
"445 345 CURVE",
"416 508 LINE",
"347 508 OFFCURVE",
"292 472 OFFCURVE",
"261 392 CURVE",
"261 494 LINE",
"50 494 LINE",
"50 0 LINE"
);
}
);
};
layerId = UUID0;
paths = (
{
closed = 1;
nodes = (
"261 0 LINE",
"261 220 LINE SMOOTH",
"261 298 OFFCURVE",
"309 334 OFFCURVE",
"400 334 CURVE SMOOTH",
"416 334 OFFCURVE",
"431 333 OFFCURVE",
"447 331 CURVE",
"422 508 LINE",
"343 508 OFFCURVE",
"284 467 OFFCURVE",
"258 376 CURVE",
"258 501 LINE",
"50 501 LINE",
"50 0 LINE"
);
}
);
width = 447;
}
);
leftKerningGroup = m;
rightKerningGroup = r;
unicode = 0072;
},
{
color = 3;
glyphname = s;
lastChange = "2023-02-01 10:33:46 +0000";
layers = (
{
anchors = (
{
name = bottom;
position = "{239, 0}";
},
{
name = top;
position = "{239, 501}";
}
);
background = {
anchors = (
{
name = bottom;
position = "{229, 0}";
},
{
name = top;
position = "{229, 501}";
}
);
paths = (
{
closed = 1;
nodes = (
"362 -8 OFFCURVE",
"436 59 OFFCURVE",
"436 162 CURVE SMOOTH",
"436 255 OFFCURVE",
"374 306 OFFCURVE",
"255 327 CURVE SMOOTH",
"226 332 OFFCURVE",
"205 341 OFFCURVE",
"205 358 CURVE SMOOTH",
"205 372 OFFCURVE",
"215 384 OFFCURVE",
"265 384 CURVE SMOOTH",
"294 384 OFFCURVE",
"345 376 OFFCURVE",
"386 361 CURVE",
"407 480 LINE",
"365 500 OFFCURVE",
"318 508 OFFCURVE",
"249 508 CURVE SMOOTH",
"115 508 OFFCURVE",
"30 451 OFFCURVE",
"25 345 CURVE",
"25 252 OFFCURVE",
"70 204 OFFCURVE",
"181 183 CURVE SMOOTH",
"236 173 OFFCURVE",
"250 162 OFFCURVE",
"250 144 CURVE SMOOTH",
"250 126 OFFCURVE",
"233 116 OFFCURVE",
"200 116 CURVE SMOOTH",
"157 116 OFFCURVE",
"107 125 OFFCURVE",
"60 142 CURVE",
"37 23 LINE",
"93 1 OFFCURVE",
"151 -8 OFFCURVE",
"221 -8 CURVE SMOOTH"
);
}
);
};
layerId = UUID0;
paths = (
{
closed = 1;
nodes = (
"353 -8 OFFCURVE",
"436 55 OFFCURVE",
"436 162 CURVE SMOOTH",
"436 342 OFFCURVE",
"214 307 OFFCURVE",
"214 351 CURVE SMOOTH",
"214 369 OFFCURVE",
"235 377 OFFCURVE",
"284 377 CURVE SMOOTH",
"321 377 OFFCURVE",
"361 369 OFFCURVE",
"395 355 CURVE",
"416 477 LINE",
"372 502 OFFCURVE",
"324 508 OFFCURVE",
"268 508 CURVE SMOOTH",
"122 508 OFFCURVE",
"34 440 OFFCURVE",
"34 335 CURVE SMOOTH",
"34 146 OFFCURVE",
"250 203 OFFCURVE",
"250 150 CURVE SMOOTH",
"250 132 OFFCURVE",
"233 123 OFFCURVE",
"200 123 CURVE SMOOTH",
"158 123 OFFCURVE",
"97 136 OFFCURVE",
"66 152 CURVE",
"37 26 LINE",
"86 4 OFFCURVE",
"151 -8 OFFCURVE",
"211 -8 CURVE SMOOTH"
);
}
);
width = 456;
}
);
leftKerningGroup = s;
rightKerningGroup = s;
unicode = 0073;
},
{
color = 3;
glyphname = germandbls;
lastChange = "2023-02-01 10:33:46 +0000";
layers = (
{
background = {
paths = (
{
closed = 1;
nodes = (
"538 -45 OFFCURVE",
"682 26 OFFCURVE",
"682 195 CURVE SMOOTH",
"682 291 OFFCURVE",
"605 371 OFFCURVE",
"510 402 CURVE",
"556 429 OFFCURVE",
"587 473 OFFCURVE",
"587 534 CURVE SMOOTH",
"587 641 OFFCURVE",
"469 703 OFFCURVE",
"335 703 CURVE SMOOTH",
"169 703 OFFCURVE",
"46 633 OFFCURVE",
"46 499 CURVE SMOOTH",
"46 -16 LINE",
"261 0 LINE",
"261 493 LINE SMOOTH",
"261 544 OFFCURVE",
"289 570 OFFCURVE",
"343 570 CURVE SMOOTH",
"380 570 OFFCURVE",
"421 552 OFFCURVE",
"421 513 CURVE SMOOTH",
"421 478 OFFCURVE",
"385 451 OFFCURVE",
"338 443 CURVE",
"338 351 LINE",
"424 331 OFFCURVE",
"468 284 OFFCURVE",
"468 229 CURVE SMOOTH",
"468 164 OFFCURVE",
"431 115 OFFCURVE",
"367 115 CURVE SMOOTH",
"351 115 OFFCURVE",
"335 116 OFFCURVE",
"318 117 CURVE",
"318 -44 LINE",
"385 -45 LINE SMOOTH"
);
}
);
};
layerId = UUID0;
paths = (
{
closed = 1;
nodes = (
"576 -9 OFFCURVE",
"679 75 OFFCURVE",
"679 211 CURVE SMOOTH",
"679 271 OFFCURVE",
"642 360 OFFCURVE",
"510 388 CURVE",
"570 417 OFFCURVE",
"597 464 OFFCURVE",
"597 522 CURVE SMOOTH",
"597 632 OFFCURVE",
"512 703 OFFCURVE",
"345 703 CURVE SMOOTH",
"167 703 OFFCURVE",
"50 605 OFFCURVE",
"50 419 CURVE SMOOTH",
"50 0 LINE",
"261 0 LINE",
"261 453 LINE SMOOTH",
"261 524 OFFCURVE",
"297 560 OFFCURVE",
"350 560 CURVE SMOOTH",
"395 560 OFFCURVE",
"416 536 OFFCURVE",
"416 503 CURVE SMOOTH",
"416 466 OFFCURVE",
"397 439 OFFCURVE",
"338 429 CURVE",
"338 337 LINE",
"429 321 OFFCURVE",
"468 273 OFFCURVE",
"468 225 CURVE SMOOTH",
"468 166 OFFCURVE",
"428 141 OFFCURVE",
"367 141 CURVE SMOOTH",
"351 141 OFFCURVE",
"335 143 OFFCURVE",
"317 146 CURVE",
"328 -1 LINE",
"349 -6 OFFCURVE",
"377 -9 OFFCURVE",
"415 -9 CURVE SMOOTH"
);
}
);
width = 700;
}
);
leftKerningGroup = f;
unicode = 00DF;
},
{
color = 3;
glyphname = schwa;
lastChange = "2023-02-01 17:51:16 +0000";
layers = (
{
background = {
paths = (
{
closed = 1;
nodes = (
"408 -8 OFFCURVE",
"532 94 OFFCURVE",
"532 250 CURVE SMOOTH",
"532 402 OFFCURVE",
"426 508 OFFCURVE",
"244 508 CURVE SMOOTH",
"160 508 OFFCURVE",
"104 495 OFFCURVE",
"44 469 CURVE",
"68 340 LINE",
"114 357 OFFCURVE",
"157 368 OFFCURVE",
"211 368 CURVE SMOOTH",
"289 368 OFFCURVE",
"349 331 OFFCURVE",
"351 231 CURVE SMOOTH",
"352 161 OFFCURVE",
"322 113 OFFCURVE",
"266 113 CURVE SMOOTH",
"225 113 OFFCURVE",
"200 134 OFFCURVE",
"194 176 CURVE",
"369 213 LINE",
"361 304 LINE",
"22 263 LINE",
"3 100 OFFCURVE",
"105 -8 OFFCURVE",
"275 -8 CURVE SMOOTH"
);
}
);
};
layerId = UUID0;
paths = (
{
closed = 1;
nodes = (
"408 -8 OFFCURVE",
"532 94 OFFCURVE",
"532 250 CURVE SMOOTH",
"532 402 OFFCURVE",
"426 508 OFFCURVE",
"244 508 CURVE SMOOTH",
"160 508 OFFCURVE",
"104 495 OFFCURVE",
"44 469 CURVE",
"68 340 LINE",
"114 357 OFFCURVE",
"157 368 OFFCURVE",
"211 368 CURVE SMOOTH",
"267 368 OFFCURVE",
"314 349 OFFCURVE",
"336 301 CURVE",
"22 263 LINE",
"3 100 OFFCURVE",
"105 -8 OFFCURVE",
"275 -8 CURVE SMOOTH"
);
},
{
closed = 1;
nodes = (
"350 209 LINE",
"345 151 OFFCURVE",
"316 113 OFFCURVE",
"266 113 CURVE SMOOTH",
"225 113 OFFCURVE",
"200 134 OFFCURVE",
"194 176 CURVE"
);
}
);
width = 557;
}
);
leftKerningGroup = c;
rightKerningGroup = o;
unicode = 0259;
},
{
color = 3;
glyphname = t;
lastChange = "2023-02-02 12:38:57 +0000";
layers = (
{
anchors = (
{
name = bottom;
position = "{227, 0}";
},
{
name = center;
position = "{187, 281}";
},
{
name = top;
position = "{169, 659}";
},
{
name = topright;
position = "{313, 828}";
}
);
background = {
anchors = (
{
name = bottom;
position = "{227, 0}";
},
{
name = center;
position = "{199, 251}";
},
{
name = top;
position = "{176, 688}";
},
{
name = topright;
position = "{313, 828}";
}
);
paths = (
{
closed = 1;
nodes = (
"899 -8 OFFCURVE",
"958 6 OFFCURVE",
"991 26 CURVE",
"983 166 LINE",
"968 158 OFFCURVE",
"952 154 OFFCURVE",
"934 154 CURVE SMOOTH",
"896 154 OFFCURVE",
"873 173 OFFCURVE",
"873 207 CURVE SMOOTH",
"873 377 LINE",
"989 377 LINE",
"989 501 LINE",
"873 501 LINE",
"873 690 LINE",
"772 690 LINE",
"679 501 LINE",
"600 501 LINE",
"600 377 LINE",
"664 377 LINE",
"664 182 LINE SMOOTH",
"664 63 OFFCURVE",
"733 -8 OFFCURVE",
"850 -8 CURVE SMOOTH"
);
},
{
closed = 1;
nodes = (
"304 -8 OFFCURVE",
"360 4 OFFCURVE",
"392 27 CURVE",
"377 166 LINE",
"361 158 OFFCURVE",
"345 154 OFFCURVE",
"329 154 CURVE SMOOTH",
"297 154 OFFCURVE",
"275 171 OFFCURVE",
"275 202 CURVE SMOOTH",
"275 710 LINE",
"64 679 LINE",
"64 173 LINE SMOOTH",
"64 71 OFFCURVE",
"121 -8 OFFCURVE",
"264 -8 CURVE SMOOTH"
);
}
);
};
layerId = UUID0;
paths = (
{
closed = 1;
nodes = (
"304 -8 OFFCURVE",
"360 4 OFFCURVE",
"392 27 CURVE",
"377 166 LINE",
"361 158 OFFCURVE",
"345 154 OFFCURVE",
"329 154 CURVE SMOOTH",
"297 154 OFFCURVE",
"275 171 OFFCURVE",
"275 202 CURVE SMOOTH",
"275 377 LINE",
"391 377 LINE",
"391 501 LINE",
"275 501 LINE",
"275 659 LINE",
"172 659 LINE",
"79 501 LINE",
"0 501 LINE",
"0 377 LINE",
"64 377 LINE",
"64 173 LINE SMOOTH",
"64 71 OFFCURVE",
"121 -8 OFFCURVE",
"264 -8 CURVE SMOOTH"
);
}
);
width = 414;
}
);
leftKerningGroup = t;
rightKerningGroup = t;
unicode = 0074;
},
{
color = 6;
glyphname = tbar;
lastChange = "2023-02-01 10:33:46 +0000";
layers = (
{
background = {
paths = (
{
closed = 1;
nodes = (
"323 -8 OFFCURVE",
"382 6 OFFCURVE",
"415 26 CURVE",
"407 166 LINE",
"392 158 OFFCURVE",
"376 154 OFFCURVE",
"358 154 CURVE SMOOTH",
"320 154 OFFCURVE",
"297 173 OFFCURVE",
"297 207 CURVE SMOOTH",
"297 253 LINE",
"403 253 LINE",
"403 338 LINE",
"297 338 LINE",
"297 377 LINE",
"413 377 LINE",
"413 501 LINE",
"297 501 LINE",
"297 690 LINE",
"196 690 LINE",
"103 501 LINE",
"24 501 LINE",
"24 377 LINE",
"88 377 LINE",
"88 338 LINE",
"34 338 LINE",
"34 253 LINE",
"88 253 LINE",
"88 182 LINE SMOOTH",
"88 63 OFFCURVE",
"157 -8 OFFCURVE",
"274 -8 CURVE SMOOTH"
);
}
);
};
components = (
{
name = t;
},
{
name = strokeshortcomb;
transform = "{1, 0, 0, 1, -144, -2}";
}
);
layerId = UUID0;
width = 414;
}
);
leftKerningGroup = t;
rightKerningGroup = t;
unicode = 0167;
},
{
color = 3;
glyphname = u;
lastChange = "2023-02-01 10:33:46 +0000";
layers = (
{
anchors = (
{
name = bottom;
position = "{313, 0}";
},
{
name = ogonek;
position = "{393, 0}";
},
{
name = top;
position = "{313, 501}";
},
{
name = topright;
position = "{607, 501}";
}
);
background = {
anchors = (
{
name = bottom;
position = "{313, 0}";
},
{
name = ogonek;
position = "{393, 0}";
},
{
name = top;
position = "{313, 501}";
},
{
name = topright;
position = "{607, 501}";
}
);
paths = (
{
closed = 1;
nodes = (
"473 -8 OFFCURVE",
"580 82 OFFCURVE",
"580 215 CURVE SMOOTH",
"580 501 LINE",
"378 501 LINE",
"378 218 LINE SMOOTH",
"378 173 OFFCURVE",
"350 148 OFFCURVE",
"316 148 CURVE SMOOTH",
"280 148 OFFCURVE",
"251 172 OFFCURVE",
"251 218 CURVE SMOOTH",
"251 501 LINE",
"45 501 LINE",
"45 215 LINE SMOOTH",
"45 83 OFFCURVE",
"155 -8 OFFCURVE",
"315 -8 CURVE SMOOTH"
);
}
);
};
layerId = UUID0;
paths = (
{
closed = 1;
nodes = (
"483 -8 OFFCURVE",
"580 82 OFFCURVE",
"580 235 CURVE SMOOTH",
"580 501 LINE",
"378 501 LINE",
"378 226 LINE SMOOTH",
"378 173 OFFCURVE",
"355 148 OFFCURVE",
"316 148 CURVE SMOOTH",
"276 148 OFFCURVE",
"251 172 OFFCURVE",
"251 226 CURVE SMOOTH",
"251 501 LINE",
"45 501 LINE",
"45 235 LINE SMOOTH",
"45 83 OFFCURVE",
"145 -8 OFFCURVE",
"315 -8 CURVE SMOOTH"
);
}
);
width = 625;
}
);
leftKerningGroup = u;
rightKerningGroup = u;
unicode = 0075;
},
{
color = 3;
glyphname = uogonek;
lastChange = "2023-02-01 10:33:46 +0000";
layers = (
{
anchors = (
{
name = top;
position = "{313, 501}";
},
{
name = topright;
position = "{607, 501}";
}
);
background = {
paths = (
{
closed = 1;
nodes = (
"483 -8 OFFCURVE",
"580 82 OFFCURVE",
"580 235 CURVE SMOOTH",
"580 501 LINE",
"378 501 LINE",
"378 226 LINE SMOOTH",
"378 173 OFFCURVE",
"355 148 OFFCURVE",
"316 148 CURVE SMOOTH",
"276 148 OFFCURVE",
"251 172 OFFCURVE",
"251 226 CURVE SMOOTH",
"251 501 LINE",
"45 501 LINE",
"45 235 LINE SMOOTH",
"45 83 OFFCURVE",
"145 -8 OFFCURVE",
"315 -8 CURVE SMOOTH"
);
},
{
closed = 1;
nodes = (
"357 -248 OFFCURVE",
"390 -243 OFFCURVE",
"421 -230 CURVE",
"420 -172 LINE",
"402 -178 OFFCURVE",
"385 -181 OFFCURVE",
"373 -181 CURVE SMOOTH",
"341 -181 OFFCURVE",
"325 -167 OFFCURVE",
"325 -140 CURVE SMOOTH",
"325 -101 OFFCURVE",
"356 -56 OFFCURVE",
"424 0 CURVE",
"356 10 LINE",
"253 -37 OFFCURVE",
"197 -97 OFFCURVE",
"197 -158 CURVE SMOOTH",
"197 -212 OFFCURVE",
"242 -248 OFFCURVE",
"328 -248 CURVE SMOOTH"
);
}
);
};
layerId = UUID0;
paths = (
{
closed = 1;
nodes = (
"378 226 LINE SMOOTH",
"378 173 OFFCURVE",
"355 148 OFFCURVE",
"316 148 CURVE SMOOTH",
"276 148 OFFCURVE",
"251 172 OFFCURVE",
"251 226 CURVE SMOOTH",
"251 501 LINE",
"45 501 LINE",
"45 235 LINE SMOOTH",
"45 83 OFFCURVE",
"145 -8 OFFCURVE",
"308 -8 CURVE",
"245 -49 OFFCURVE",
"197 -105 OFFCURVE",
"197 -158 CURVE SMOOTH",
"197 -212 OFFCURVE",
"242 -248 OFFCURVE",
"328 -248 CURVE SMOOTH",
"357 -248 OFFCURVE",
"390 -243 OFFCURVE",
"421 -230 CURVE",
"420 -172 LINE",
"402 -178 OFFCURVE",
"385 -181 OFFCURVE",
"373 -181 CURVE SMOOTH",
"341 -181 OFFCURVE",
"325 -167 OFFCURVE",
"325 -140 CURVE SMOOTH",
"325 -101 OFFCURVE",
"362 -30 OFFCURVE",
"471 27 CURVE SMOOTH",
"539 63 OFFCURVE",
"580 135 OFFCURVE",
"580 235 CURVE SMOOTH",
"580 501 LINE",
"378 501 LINE"
);
}
);
width = 625;
}
);
leftKerningGroup = u;
rightKerningGroup = u;
unicode = 0173;
},
{
color = 3;
glyphname = uhorn;
lastChange = "2023-02-01 10:33:46 +0000";
layers = (
{
anchors = (
{
name = bottom;
position = "{313, 0}";
},
{
name = top;
position = "{313, 501}";
}
);
background = {
anchors = (
{
name = bottom;
position = "{313, 0}";
},
{
name = top;
position = "{313, 501}";
}
);
paths = (
{
closed = 1;
nodes = (
"483 -8 OFFCURVE",
"580 82 OFFCURVE",
"580 235 CURVE SMOOTH",
"580 501 LINE",
"378 501 LINE",
"378 226 LINE SMOOTH",
"378 173 OFFCURVE",
"355 148 OFFCURVE",
"316 148 CURVE SMOOTH",
"276 148 OFFCURVE",
"251 172 OFFCURVE",
"251 226 CURVE SMOOTH",
"251 501 LINE",
"45 501 LINE",
"45 235 LINE SMOOTH",
"45 83 OFFCURVE",
"145 -8 OFFCURVE",
"315 -8 CURVE SMOOTH"
);
}
);
};
layerId = UUID0;
paths = (
{
closed = 1;
nodes = (
"483 -8 OFFCURVE",
"580 82 OFFCURVE",
"580 235 CURVE SMOOTH",
"580 400 LINE",
"646 420 OFFCURVE",
"675 472 OFFCURVE",
"675 594 CURVE",
"558 594 LINE",
"558 505 OFFCURVE",
"539 501 OFFCURVE",
"474 501 CURVE SMOOTH",
"378 501 LINE",
"378 226 LINE SMOOTH",
"378 173 OFFCURVE",
"355 148 OFFCURVE",
"316 148 CURVE SMOOTH",
"276 148 OFFCURVE",
"251 172 OFFCURVE",
"251 226 CURVE SMOOTH",
"251 501 LINE",
"45 501 LINE",
"45 235 LINE SMOOTH",
"45 83 OFFCURVE",
"145 -8 OFFCURVE",
"315 -8 CURVE SMOOTH"
);
}
);
width = 655;
}
);
leftKerningGroup = u;
rightKerningGroup = u;
unicode = 01B0;
},
{
color = 3;
glyphname = v;
lastChange = "2023-02-02 13:24:40 +0000";
layers = (
{
anchors = (
{
name = bottom;
position = "{288, 0}";
},
{
name = top;
position = "{288, 501}";
}
);
background = {
anchors = (
{
name = bottom;
position = "{288, 0}";
},
{
name = top;
position = "{288, 501}";
}
);
paths = (
{
closed = 1;
nodes = (
"409 0 LINE",
"568 501 LINE",
"385 501 LINE",
"310 201 LINE",
"233 501 LINE",
"1 501 LINE",
"166 0 LINE"
);
}
);
};
layerId = UUID0;
paths = (
{
closed = 1;
nodes = (
"409 0 LINE",
"578 501 LINE",
"395 501 LINE",
"310 201 LINE",
"223 501 LINE",
"-9 501 LINE",
"166 0 LINE"
);
}
);
width = 572;
}
);
leftKerningGroup = v;
rightKerningGroup = v;
unicode = 0076;
},
{
color = 3;
glyphname = w;
lastChange = "2023-02-01 10:33:46 +0000";
layers = (
{
anchors = (
{
name = bottom;
position = "{440, 0}";
},
{
name = top;
position = "{440, 501}";
}
);
background = {
anchors = (
{
name = bottom;
position = "{440, 0}";
},
{
name = top;
position = "{440, 501}";
}
);
paths = (
{
closed = 1;
nodes = (
"384 0 LINE",
"437 265 LINE",
"493 0 LINE",
"732 0 LINE",
"836 501 LINE",
"672 501 LINE",
"615 168 LINE",
"545 501 LINE",
"373 501 LINE",
"304 176 LINE",
"247 501 LINE",
"43 501 LINE",
"153 0 LINE"
);
}
);
};
layerId = UUID0;
paths = (
{
closed = 1;
nodes = (
"374 0 LINE",
"437 255 LINE",
"503 0 LINE",
"742 0 LINE",
"863 501 LINE",
"692 501 LINE",
"625 178 LINE",
"545 501 LINE",
"373 501 LINE",
"294 186 LINE",
"227 501 LINE",
"13 501 LINE",
"143 0 LINE"
);
}
);
width = 871;
}
);
leftKerningGroup = v;
rightKerningGroup = v;
unicode = 0077;
},
{
color = 3;
glyphname = x;
lastChange = "2023-02-01 10:33:46 +0000";
layers = (
{
anchors = (
{
name = bottom;
position = "{279, 0}";
},
{
name = top;
position = "{279, 501}";
}
);
background = {
anchors = (
{
name = bottom;
position = "{279, 0}";
},
{
name = top;
position = "{279, 501}";
}
);
paths = (
{
closed = 1;
nodes = (
"214 0 LINE",
"280 128 LINE",
"348 0 LINE",
"553 0 LINE",
"403 260 LINE",
"543 501 LINE",
"338 501 LINE",
"280 383 LINE",
"224 501 LINE",
"13 501 LINE",
"155 260 LINE",
"3 0 LINE"
);
}
);
};
layerId = UUID0;
paths = (
{
closed = 1;
nodes = (
"214 0 LINE",
"280 128 LINE",
"348 0 LINE",
"553 0 LINE",
"403 260 LINE",
"543 501 LINE",
"338 501 LINE",
"280 383 LINE",
"224 501 LINE",
"13 501 LINE",
"155 260 LINE",
"3 0 LINE"
);
}
);
width = 551;
}
);
unicode = 0078;
},
{
color = 4;
glyphname = y;
lastChange = "2023-02-01 17:41:58 +0000";
layers = (
{
anchors = (
{
name = bottom;
position = "{683, 0}";
},
{
name = top;
position = "{333, 501}";
}
);
background = {
paths = (
{
closed = 1;
nodes = (
"506 -195 OFFCURVE",
"616 -96 OFFCURVE",
"616 117 CURVE SMOOTH",
"616 501 LINE",
"405 501 LINE",
"405 287 LINE SMOOTH",
"405 217 OFFCURVE",
"371 171 OFFCURVE",
"319 171 CURVE SMOOTH",
"278 171 OFFCURVE",
"256 200 OFFCURVE",
"256 260 CURVE SMOOTH",
"256 501 LINE",
"45 501 LINE",
"45 271 LINE SMOOTH",
"45 107 OFFCURVE",
"116 13 OFFCURVE",
"240 13 CURVE SMOOTH",
"320 13 OFFCURVE",
"380 48 OFFCURVE",
"412 129 CURVE",
"412 72 LINE SMOOTH",
"412 -5 OFFCURVE",
"375 -42 OFFCURVE",
"296 -42 CURVE SMOOTH",
"269 -42 OFFCURVE",
"240 -38 OFFCURVE",
"216 -33 CURVE",
"200 -178 LINE",
"225 -188 OFFCURVE",
"272 -195 OFFCURVE",
"323 -195 CURVE SMOOTH"
);
}
);
};
layerId = UUID0;
paths = (
{
closed = 1;
nodes = (
"506 -195 OFFCURVE",
"616 -96 OFFCURVE",
"616 117 CURVE SMOOTH",
"616 501 LINE",
"405 501 LINE",
"405 287 LINE SMOOTH",
"405 217 OFFCURVE",
"371 171 OFFCURVE",
"319 171 CURVE SMOOTH",
"278 171 OFFCURVE",
"256 200 OFFCURVE",
"256 260 CURVE SMOOTH",
"256 501 LINE",
"45 501 LINE",
"45 271 LINE SMOOTH",
"45 107 OFFCURVE",
"116 13 OFFCURVE",
"240 13 CURVE SMOOTH",
"320 13 OFFCURVE",
"380 48 OFFCURVE",
"412 129 CURVE",
"412 72 LINE SMOOTH",
"412 -5 OFFCURVE",
"375 -42 OFFCURVE",
"286 -42 CURVE SMOOTH",
"259 -42 OFFCURVE",
"230 -38 OFFCURVE",
"206 -33 CURVE",
"190 -178 LINE",
"215 -188 OFFCURVE",
"262 -195 OFFCURVE",
"313 -195 CURVE SMOOTH"
);
}
);
width = 666;
}
);
leftKerningGroup = u;
rightKerningGroup = y;
unicode = 0079;
},
{
color = 3;
glyphname = z;
lastChange = "2023-02-01 10:33:46 +0000";
layers = (
{
anchors = (
{
name = bottom;
position = "{244, 0}";
},
{
name = top;
position = "{245, 501}";
}
);
background = {
anchors = (
{
name = bottom;
position = "{244, 0}";
},
{
name = top;
position = "{245, 501}";
}
);
paths = (
{
closed = 1;
nodes = (
"457 0 LINE",
"457 128 LINE",
"286 128 LINE",
"453 393 LINE",
"453 501 LINE",
"37 501 LINE",
"37 373 LINE",
"206 373 LINE",
"30 107 LINE",
"30 0 LINE"
);
}
);
};
layerId = UUID0;
paths = (
{
closed = 1;
nodes = (
"457 0 LINE",
"457 138 LINE",
"281 138 LINE",
"453 393 LINE",
"453 501 LINE",
"37 501 LINE",
"37 363 LINE",
"211 363 LINE",
"30 107 LINE",
"30 0 LINE"
);
}
);
width = 488;
}
);
leftKerningGroup = z;
rightKerningGroup = z;
unicode = 007A;
},
{
glyphname = Aring;
lastChange = "2023-02-01 10:52:44 +0000";
layers = (
{
background = {
paths = (
{
closed = 1;
nodes = (
"230 0 LINE",
"259 132 LINE",
"437 132 LINE",
"463 0 LINE",
"698 0 LINE",
"499 687 LINE",
"512 710 OFFCURVE",
"520 739 OFFCURVE",
"520 771 CURVE SMOOTH",
"520 867 OFFCURVE",
"456 944 OFFCURVE",
"348 944 CURVE SMOOTH",
"249 944 OFFCURVE",
"175 876 OFFCURVE",
"175 771 CURVE SMOOTH",
"175 740 OFFCURVE",
"183 712 OFFCURVE",
"195 688 CURVE",
"5 0 LINE"
);
},
{
closed = 1;
nodes = (
"348 556 LINE",
"413 255 LINE",
"280 255 LINE"
);
},
{
closed = 1;
nodes = (
"312 706 OFFCURVE",
"287 732 OFFCURVE",
"287 771 CURVE SMOOTH",
"287 813 OFFCURVE",
"311 838 OFFCURVE",
"346 838 CURVE SMOOTH",
"382 838 OFFCURVE",
"406 813 OFFCURVE",
"406 771 CURVE SMOOTH",
"406 732 OFFCURVE",
"385 706 OFFCURVE",
"348 706 CURVE SMOOTH"
);
}
);
};
components = (
{
name = A;
},
{
alignment = -1;
name = ringcomb.case;
transform = "{1, 0, 0, 1, 56, -100}";
}
);
layerId = UUID0;
width = 716;
}
);
leftKerningGroup = A;
rightKerningGroup = A;
unicode = 00C5;
},
{
color = 4;
glyphname = Iacute_J.loclNLD;
lastChange = "2023-02-01 18:03:02 +0000";
layers = (
{
background = {
paths = (
{
closed = 1;
nodes = (
"567 -16 OFFCURVE",
"681 141 OFFCURVE",
"681 317 CURVE SMOOTH",
"681 688 LINE",
"455 688 LINE",
"455 465 LINE",
"441 406 OFFCURVE",
"411 375 OFFCURVE",
"357 375 CURVE SMOOTH",
"303 375 OFFCURVE",
"267 414 OFFCURVE",
"267 485 CURVE SMOOTH",
"267 688 LINE",
"41 688 LINE",
"41 485 LINE SMOOTH",
"41 321 OFFCURVE",
"154 224 OFFCURVE",
"291 224 CURVE SMOOTH",
"385 224 OFFCURVE",
"441 259 OFFCURVE",
"469 333 CURVE",
"469 320 LINE SMOOTH",
"469 175 OFFCURVE",
"423 151 OFFCURVE",
"308 151 CURVE SMOOTH",
"255 151 OFFCURVE",
"210 170 OFFCURVE",
"161 189 CURVE",
"115 34 LINE",
"172 1 OFFCURVE",
"248 -16 OFFCURVE",
"336 -16 CURVE SMOOTH"
);
},
{
closed = 1;
nodes = (
"435 896 LINE",
"334 1075 LINE",
"41 870 LINE",
"102 763 LINE"
);
},
{
closed = 1;
nodes = (
"849 896 LINE",
"748 1075 LINE",
"455 870 LINE",
"516 763 LINE"
);
}
);
};
layerId = UUID0;
paths = (
{
closed = 1;
nodes = (
"567 -16 OFFCURVE",
"681 141 OFFCURVE",
"681 317 CURVE SMOOTH",
"681 688 LINE",
"455 688 LINE",
"455 465 LINE",
"441 406 OFFCURVE",
"411 375 OFFCURVE",
"357 375 CURVE SMOOTH",
"303 375 OFFCURVE",
"267 414 OFFCURVE",
"267 485 CURVE SMOOTH",
"267 688 LINE",
"41 688 LINE",
"41 485 LINE SMOOTH",
"41 321 OFFCURVE",
"154 224 OFFCURVE",
"291 224 CURVE SMOOTH",
"385 224 OFFCURVE",
"441 259 OFFCURVE",
"469 333 CURVE",
"469 320 LINE SMOOTH",
"469 175 OFFCURVE",
"423 151 OFFCURVE",
"308 151 CURVE SMOOTH",
"255 151 OFFCURVE",
"202 171 OFFCURVE",
"161 189 CURVE",
"115 34 LINE",
"172 1 OFFCURVE",
"248 -16 OFFCURVE",
"336 -16 CURVE SMOOTH"
);
},
{
closed = 1;
nodes = (
"435 896 LINE",
"334 1075 LINE",
"41 870 LINE",
"102 763 LINE"
);
},
{
closed = 1;
nodes = (
"849 896 LINE",
"748 1075 LINE",
"455 870 LINE",
"516 763 LINE"
);
}
);
width = 722;
}
);
leftKerningGroup = U;
rightKerningGroup = U;
},
{
color = 4;
glyphname = longs;
lastChange = "2023-02-01 10:33:46 +0000";
layers = (
{
background = {
paths = (
{
closed = 1;
nodes = (
"245 0 LINE",
"245 488 LINE",
"220 523 OFFCURVE",
"214 543 OFFCURVE",
"214 561 CURVE SMOOTH",
"214 598 OFFCURVE",
"237 617 OFFCURVE",
"276 617 CURVE SMOOTH",
"302 617 OFFCURVE",
"335 609 OFFCURVE",
"373 594 CURVE",
"380 729 LINE",
"336 755 OFFCURVE",
"288 768 OFFCURVE",
"237 768 CURVE SMOOTH",
"111 768 OFFCURVE",
"34 693 OFFCURVE",
"34 543 CURVE SMOOTH",
"34 0 LINE"
);
}
);
};
layerId = UUID0;
paths = (
{
closed = 1;
nodes = (
"261 0 LINE",
"261 429 LINE",
"236 462 OFFCURVE",
"230 482 OFFCURVE",
"230 500 CURVE SMOOTH",
"230 537 OFFCURVE",
"255 556 OFFCURVE",
"292 556 CURVE SMOOTH",
"318 556 OFFCURVE",
"351 551 OFFCURVE",
"382 533 CURVE",
"396 668 LINE",
"362 694 OFFCURVE",
"314 707 OFFCURVE",
"263 707 CURVE SMOOTH",
"137 707 OFFCURVE",
"50 632 OFFCURVE",
"50 482 CURVE SMOOTH",
"50 0 LINE"
);
}
);
width = 378;
}
);
leftKerningGroup = b;
unicode = 017F;
},
{
glyphname = ydotbelow;
lastChange = "2023-02-01 11:02:02 +0000";
layers = (
{
background = {
paths = (
{
closed = 1;
nodes = (
"509 -229 OFFCURVE",
"617 -86 OFFCURVE",
"617 127 CURVE SMOOTH",
"617 501 LINE",
"406 501 LINE",
"406 246 LINE SMOOTH",
"406 182 OFFCURVE",
"373 141 OFFCURVE",
"329 141 CURVE SMOOTH",
"284 141 OFFCURVE",
"258 176 OFFCURVE",
"258 220 CURVE SMOOTH",
"258 501 LINE",
"48 501 LINE",
"48 251 LINE SMOOTH",
"48 90 OFFCURVE",
"125 -7 OFFCURVE",
"254 -7 CURVE SMOOTH",
"338 -7 OFFCURVE",
"389 32 OFFCURVE",
"421 93 CURVE",
"419 -28 OFFCURVE",
"369 -76 OFFCURVE",
"299 -76 CURVE SMOOTH",
"282 -76 OFFCURVE",
"253 -74 OFFCURVE",
"227 -70 CURVE",
"211 -218 LINE",
"247 -226 OFFCURVE",
"285 -229 OFFCURVE",
"316 -229 CURVE SMOOTH"
);
},
{
closed = 1;
nodes = (
"661 -244 OFFCURVE",
"699 -214 OFFCURVE",
"699 -169 CURVE SMOOTH",
"699 -129 OFFCURVE",
"664 -95 OFFCURVE",
"622 -95 CURVE SMOOTH",
"583 -95 OFFCURVE",
"546 -126 OFFCURVE",
"546 -169 CURVE SMOOTH",
"546 -211 OFFCURVE",
"580 -244 OFFCURVE",
"622 -244 CURVE SMOOTH"
);
}
);
};
components = (
{
name = y;
},
{
name = dotbelowcomb;
transform = "{1, 0, 0, 1, 383, 0}";
}
);
layerId = UUID0;
width = 666;
}
);
leftKerningGroup = u;
rightKerningGroup = y;
unicode = 1EF5;
},
{
color = 4;
glyphname = iacute_j.loclNLD;
lastChange = "2023-02-01 18:05:31 +0000";
layers = (
{
background = {
components = (
{
name = y;
}
);
paths = (
{
closed = 1;
nodes = (
"412 718 LINE",
"306 888 LINE",
"48 683 LINE",
"109 576 LINE"
);
},
{
closed = 1;
nodes = (
"770 709 LINE",
"669 888 LINE",
"406 683 LINE",
"467 576 LINE"
);
}
);
};
layerId = UUID0;
paths = (
{
closed = 1;
nodes = (
"506 -195 OFFCURVE",
"616 -96 OFFCURVE",
"616 117 CURVE SMOOTH",
"616 501 LINE",
"405 501 LINE",
"405 287 LINE SMOOTH",
"405 217 OFFCURVE",
"371 171 OFFCURVE",
"319 171 CURVE SMOOTH",
"278 171 OFFCURVE",
"256 200 OFFCURVE",
"256 260 CURVE SMOOTH",
"256 501 LINE",
"45 501 LINE",
"45 271 LINE SMOOTH",
"45 107 OFFCURVE",
"116 13 OFFCURVE",
"240 13 CURVE SMOOTH",
"320 13 OFFCURVE",
"380 48 OFFCURVE",
"412 129 CURVE",
"412 72 LINE SMOOTH",
"412 -5 OFFCURVE",
"375 -42 OFFCURVE",
"296 -42 CURVE SMOOTH",
"269 -42 OFFCURVE",
"240 -38 OFFCURVE",
"216 -33 CURVE",
"200 -178 LINE",
"225 -188 OFFCURVE",
"272 -195 OFFCURVE",
"323 -195 CURVE SMOOTH"
);
},
{
closed = 1;
nodes = (
"409 719 LINE",
"316 868 LINE",
"45 663 LINE",
"111 556 LINE"
);
},
{
closed = 1;
nodes = (
"769 719 LINE",
"676 868 LINE",
"405 663 LINE",
"471 556 LINE"
);
}
);
width = 666;
}
);
leftKerningGroup = u;
leftMetricsKey = y;
widthMetricsKey = y;
rightKerningGroup = y;
},
{
color = 4;
glyphname = fi;
lastChange = "2023-02-01 18:05:46 +0000";
layers = (
{
anchors = (
{
name = caret_1;
position = "{360, 0}";
}
);
background = {
paths = (
{
closed = 1;
nodes = (
"597 576 OFFCURVE",
"653 617 OFFCURVE",
"653 678 CURVE SMOOTH",
"653 732 OFFCURVE",
"601 779 OFFCURVE",
"540 779 CURVE SMOOTH",
"483 779 OFFCURVE",
"428 737 OFFCURVE",
"428 678 CURVE SMOOTH",
"428 621 OFFCURVE",
"478 576 OFFCURVE",
"540 576 CURVE SMOOTH"
);
},
{
closed = 1;
nodes = (
"718 158 OFFCURVE",
"704 154 OFFCURVE",
"691 154 CURVE SMOOTH",
"665 154 OFFCURVE",
"645 171 OFFCURVE",
"645 202 CURVE SMOOTH",
"645 501 LINE",
"260 501 LINE",
"249 523 OFFCURVE",
"243 543 OFFCURVE",
"243 561 CURVE SMOOTH",
"243 598 OFFCURVE",
"268 617 OFFCURVE",
"305 617 CURVE SMOOTH",
"331 617 OFFCURVE",
"364 612 OFFCURVE",
"395 594 CURVE",
"409 729 LINE",
"375 755 OFFCURVE",
"327 768 OFFCURVE",
"276 768 CURVE SMOOTH",
"150 768 OFFCURVE",
"63 693 OFFCURVE",
"63 543 CURVE SMOOTH",
"63 501 LINE",
"0 501 LINE",
"0 377 LINE",
"63 377 LINE",
"63 0 LINE",
"274 0 LINE",
"274 377 LINE",
"434 377 LINE",
"434 173 LINE SMOOTH",
"434 71 OFFCURVE",
"488 -8 OFFCURVE",
"622 -8 CURVE SMOOTH",
"660 -8 OFFCURVE",
"713 4 OFFCURVE",
"743 27 CURVE",
"732 166 LINE"
);
}
);
};
layerId = UUID0;
paths = (
{
closed = 1;
nodes = (
"597 576 OFFCURVE",
"653 617 OFFCURVE",
"653 678 CURVE SMOOTH",
"653 732 OFFCURVE",
"601 779 OFFCURVE",
"540 779 CURVE SMOOTH",
"483 779 OFFCURVE",
"428 737 OFFCURVE",
"428 678 CURVE SMOOTH",
"428 621 OFFCURVE",
"478 576 OFFCURVE",
"540 576 CURVE SMOOTH"
);
},
{
closed = 1;
nodes = (
"718 158 OFFCURVE",
"704 154 OFFCURVE",
"691 154 CURVE SMOOTH",
"665 154 OFFCURVE",
"645 171 OFFCURVE",
"645 202 CURVE SMOOTH",
"645 501 LINE",
"250 501 LINE",
"245 510 OFFCURVE",
"243 518 OFFCURVE",
"243 527 CURVE SMOOTH",
"243 554 OFFCURVE",
"267 568 OFFCURVE",
"310 568 CURVE SMOOTH",
"336 568 OFFCURVE",
"364 565 OFFCURVE",
"394 558 CURVE",
"401 685 LINE",
"368 699 OFFCURVE",
"320 707 OFFCURVE",
"276 707 CURVE SMOOTH",
"150 707 OFFCURVE",
"63 639 OFFCURVE",
"63 530 CURVE SMOOTH",
"63 501 LINE",
"0 501 LINE",
"0 377 LINE",
"63 377 LINE",
"63 0 LINE",
"274 0 LINE",
"274 377 LINE",
"434 377 LINE",
"434 173 LINE SMOOTH",
"434 71 OFFCURVE",
"488 -8 OFFCURVE",
"622 -8 CURVE SMOOTH",
"660 -8 OFFCURVE",
"713 4 OFFCURVE",
"743 27 CURVE",
"732 166 LINE"
);
}
);
width = 744;
}
);
leftKerningGroup = f;
rightKerningGroup = i;
unicode = FB01;
},
{
color = 4;
glyphname = fl;
lastChange = "2023-02-01 18:05:49 +0000";
layers = (
{
anchors = (
{
name = caret_1;
position = "{360, 0}";
}
);
background = {
paths = (
{
closed = 1;
nodes = (
"274 0 LINE",
"274 377 LINE",
"391 377 LINE",
"391 501 LINE",
"250 501 LINE",
"245 510 OFFCURVE",
"243 518 OFFCURVE",
"243 527 CURVE SMOOTH",
"243 554 OFFCURVE",
"267 568 OFFCURVE",
"310 568 CURVE SMOOTH",
"336 568 OFFCURVE",
"364 565 OFFCURVE",
"394 558 CURVE",
"408 685 LINE",
"375 699 OFFCURVE",
"327 707 OFFCURVE",
"276 707 CURVE SMOOTH",
"150 707 OFFCURVE",
"63 639 OFFCURVE",
"63 530 CURVE SMOOTH",
"63 501 LINE",
"0 501 LINE",
"0 377 LINE",
"63 377 LINE",
"63 0 LINE"
);
}
);
};
layerId = UUID0;
paths = (
{
closed = 1;
nodes = (
"731 158 OFFCURVE",
"715 154 OFFCURVE",
"699 154 CURVE SMOOTH",
"667 154 OFFCURVE",
"645 171 OFFCURVE",
"645 202 CURVE SMOOTH",
"645 665 LINE",
"568 694 OFFCURVE",
"476 707 OFFCURVE",
"385 707 CURVE SMOOTH",
"160 707 OFFCURVE",
"73 593 OFFCURVE",
"63 501 CURVE",
"0 501 LINE",
"0 377 LINE",
"63 377 LINE",
"63 0 LINE",
"274 0 LINE",
"274 377 LINE",
"371 377 LINE",
"371 501 LINE",
"274 501 LINE",
"280 547 OFFCURVE",
"310 572 OFFCURVE",
"365 572 CURVE SMOOTH",
"384 572 OFFCURVE",
"413 568 OFFCURVE",
"434 560 CURVE",
"434 173 LINE SMOOTH",
"434 71 OFFCURVE",
"491 -8 OFFCURVE",
"634 -8 CURVE SMOOTH",
"674 -8 OFFCURVE",
"730 4 OFFCURVE",
"762 27 CURVE",
"747 166 LINE"
);
}
);
width = 762;
}
);
leftKerningGroup = f;
rightKerningGroup = l;
unicode = FB02;
},
{
color = 3;
glyphname = ordfeminine;
lastChange = "2023-02-01 10:33:46 +0000";
layers = (
{
background = {
paths = (
{
closed = 1;
nodes = (
"243 336 OFFCURVE",
"279 354 OFFCURVE",
"302 407 CURVE",
"302 342 LINE",
"454 342 LINE",
"454 698 LINE",
"302 698 LINE",
"302 616 LINE",
"281 683 OFFCURVE",
"232 698 OFFCURVE",
"187 698 CURVE SMOOTH",
"88 698 OFFCURVE",
"15 623 OFFCURVE",
"15 519 CURVE SMOOTH",
"15 415 OFFCURVE",
"87 336 OFFCURVE",
"187 336 CURVE SMOOTH"
);
},
{
closed = 1;
nodes = (
"204 452 OFFCURVE",
"173 477 OFFCURVE",
"173 517 CURVE SMOOTH",
"173 557 OFFCURVE",
"201 582 OFFCURVE",
"238 582 CURVE SMOOTH",
"272 582 OFFCURVE",
"300 557 OFFCURVE",
"300 517 CURVE SMOOTH",
"300 477 OFFCURVE",
"274 452 OFFCURVE",
"238 452 CURVE SMOOTH"
);
}
);
};
layerId = UUID0;
paths = (
{
closed = 1;
nodes = (
"243 336 OFFCURVE",
"279 354 OFFCURVE",
"302 407 CURVE",
"302 342 LINE",
"454 342 LINE",
"454 688 LINE",
"302 688 LINE",
"302 616 LINE",
"281 683 OFFCURVE",
"232 698 OFFCURVE",
"187 698 CURVE SMOOTH",
"88 698 OFFCURVE",
"15 623 OFFCURVE",
"15 519 CURVE SMOOTH",
"15 415 OFFCURVE",
"87 336 OFFCURVE",
"187 336 CURVE SMOOTH"
);
},
{
closed = 1;
nodes = (
"204 452 OFFCURVE",
"173 477 OFFCURVE",
"173 517 CURVE SMOOTH",
"173 557 OFFCURVE",
"201 582 OFFCURVE",
"238 582 CURVE SMOOTH",
"272 582 OFFCURVE",
"300 557 OFFCURVE",
"300 517 CURVE SMOOTH",
"300 477 OFFCURVE",
"274 452 OFFCURVE",
"238 452 CURVE SMOOTH"
);
}
);
width = 484;
}
);
leftKerningGroup = ord;
rightKerningGroup = ord;
unicode = 00AA;
},
{
color = 3;
glyphname = ordmasculine;
lastChange = "2023-02-02 12:46:28 +0000";
layers = (
{
background = {
paths = (
{
closed = 1;
nodes = (
"312 336 OFFCURVE",
"418 389 OFFCURVE",
"418 518 CURVE SMOOTH",
"418 623 OFFCURVE",
"336 698 OFFCURVE",
"217 698 CURVE SMOOTH",
"109 698 OFFCURVE",
"15 635 OFFCURVE",
"15 518 CURVE SMOOTH",
"15 410 OFFCURVE",
"96 336 OFFCURVE",
"216 336 CURVE SMOOTH"
);
},
{
closed = 1;
nodes = (
"187 451 OFFCURVE",
"160 474 OFFCURVE",
"160 518 CURVE SMOOTH",
"160 562 OFFCURVE",
"187 584 OFFCURVE",
"218 584 CURVE SMOOTH",
"249 584 OFFCURVE",
"275 562 OFFCURVE",
"275 518 CURVE SMOOTH",
"275 474 OFFCURVE",
"249 451 OFFCURVE",
"218 451 CURVE SMOOTH"
);
}
);
};
layerId = UUID0;
paths = (
{
closed = 1;
nodes = (
"312 336 OFFCURVE",
"418 389 OFFCURVE",
"418 518 CURVE SMOOTH",
"418 623 OFFCURVE",
"336 698 OFFCURVE",
"217 698 CURVE SMOOTH",
"109 698 OFFCURVE",
"15 635 OFFCURVE",
"15 518 CURVE SMOOTH",
"15 410 OFFCURVE",
"96 336 OFFCURVE",
"216 336 CURVE SMOOTH"
);
},
{
closed = 1;
nodes = (
"187 451 OFFCURVE",
"160 474 OFFCURVE",
"160 518 CURVE SMOOTH",
"160 562 OFFCURVE",
"187 584 OFFCURVE",
"218 584 CURVE SMOOTH",
"249 584 OFFCURVE",
"275 562 OFFCURVE",
"275 518 CURVE SMOOTH",
"275 474 OFFCURVE",
"249 451 OFFCURVE",
"218 451 CURVE SMOOTH"
);
}
);
width = 433;
}
);
leftKerningGroup = ord;
rightKerningGroup = ord;
unicode = 00BA;
},
{
color = 3;
glyphname = Omega;
lastChange = "2019-06-16 19:47:07 +0000";
layers = (
{
background = {
paths = (
{
closed = 1;
nodes = (
"349 0 LINE",
"349 131 LINE",
"267 206 OFFCURVE",
"255 275 OFFCURVE",
"255 355 CURVE SMOOTH",
"255 470 OFFCURVE",
"315 529 OFFCURVE",
"387 529 CURVE SMOOTH",
"459 529 OFFCURVE",
"519 470 OFFCURVE",
"519 355 CURVE SMOOTH",
"519 275 OFFCURVE",
"507 206 OFFCURVE",
"425 131 CURVE",
"425 0 LINE",
"754 0 LINE",
"754 146 LINE",
"609 146 LINE",
"713 212 OFFCURVE",
"745 305 OFFCURVE",
"745 395 CURVE SMOOTH",
"745 552 OFFCURVE",
"617 704 OFFCURVE",
"387 704 CURVE SMOOTH",
"157 704 OFFCURVE",
"29 552 OFFCURVE",
"29 395 CURVE SMOOTH",
"29 305 OFFCURVE",
"61 212 OFFCURVE",
"165 146 CURVE",
"20 146 LINE",
"20 0 LINE"
);
}
);
};
layerId = UUID0;
paths = (
{
closed = 1;
nodes = (
"349 0 LINE",
"349 131 LINE",
"267 206 OFFCURVE",
"255 275 OFFCURVE",
"255 355 CURVE SMOOTH",
"255 470 OFFCURVE",
"315 529 OFFCURVE",
"387 529 CURVE SMOOTH",
"459 529 OFFCURVE",
"519 470 OFFCURVE",
"519 355 CURVE SMOOTH",
"519 275 OFFCURVE",
"507 206 OFFCURVE",
"425 131 CURVE",
"425 0 LINE",
"754 0 LINE",
"754 146 LINE",
"609 146 LINE",
"713 212 OFFCURVE",
"745 305 OFFCURVE",
"745 395 CURVE SMOOTH",
"745 552 OFFCURVE",
"617 704 OFFCURVE",
"387 704 CURVE SMOOTH",
"157 704 OFFCURVE",
"29 552 OFFCURVE",
"29 395 CURVE SMOOTH",
"29 305 OFFCURVE",
"61 212 OFFCURVE",
"165 146 CURVE",
"20 146 LINE",
"20 0 LINE"
);
}
);
width = 774;
}
);
unicode = 03A9;
},
{
color = 3;
glyphname = mu;
lastChange = "2023-02-01 10:33:46 +0000";
layers = (
{
background = {
paths = (
{
closed = 1;
nodes = (
"230 -132 LINE",
"230 12 LINE",
"268 -6 OFFCURVE",
"306 -16 OFFCURVE",
"342 -16 CURVE SMOOTH",
"465 -16 OFFCURVE",
"560 82 OFFCURVE",
"560 215 CURVE SMOOTH",
"560 501 LINE",
"359 501 LINE",
"359 208 LINE SMOOTH",
"359 165 OFFCURVE",
"332 148 OFFCURVE",
"298 148 CURVE SMOOTH",
"276 148 OFFCURVE",
"256 155 OFFCURVE",
"236 168 CURVE",
"236 501 LINE",
"30 501 LINE",
"30 -146 LINE"
);
}
);
};
layerId = UUID0;
paths = (
{
closed = 1;
nodes = (
"50 -189 LINE",
"258 -158 LINE",
"258 79 LINE",
"287 34 OFFCURVE",
"344 -7 OFFCURVE",
"424 -7 CURVE SMOOTH",
"548 -7 OFFCURVE",
"621 87 OFFCURVE",
"621 251 CURVE SMOOTH",
"621 501 LINE",
"410 501 LINE",
"410 240 LINE SMOOTH",
"410 180 OFFCURVE",
"388 151 OFFCURVE",
"347 151 CURVE SMOOTH",
"295 151 OFFCURVE",
"261 187 OFFCURVE",
"261 267 CURVE SMOOTH",
"261 501 LINE",
"50 501 LINE"
);
}
);
width = 666;
}
);
unicode = 03BC;
},
{
color = 3;
glyphname = pi;
lastChange = "2023-02-01 10:33:46 +0000";
layers = (
{
background = {
paths = (
{
closed = 1;
nodes = (
"242 -16 OFFCURVE",
"309 60 OFFCURVE",
"309 185 CURVE SMOOTH",
"309 316 LINE",
"423 316 LINE",
"423 1 LINE",
"634 1 LINE",
"634 501 LINE",
"97 501 LINE",
"97 194 LINE SMOOTH",
"97 163 OFFCURVE",
"78 146 OFFCURVE",
"52 146 CURVE SMOOTH",
"39 146 OFFCURVE",
"25 150 OFFCURVE",
"11 158 CURVE",
"1 19 LINE",
"40 -4 OFFCURVE",
"84 -16 OFFCURVE",
"131 -16 CURVE SMOOTH"
);
}
);
};
layerId = UUID0;
paths = (
{
closed = 1;
nodes = (
"242 -16 OFFCURVE",
"309 43 OFFCURVE",
"309 168 CURVE SMOOTH",
"309 316 LINE",
"423 316 LINE",
"423 1 LINE",
"634 1 LINE",
"634 501 LINE",
"97 501 LINE",
"97 191 LINE SMOOTH",
"97 160 OFFCURVE",
"80 146 OFFCURVE",
"52 146 CURVE SMOOTH",
"39 146 OFFCURVE",
"25 150 OFFCURVE",
"11 158 CURVE",
"1 19 LINE",
"40 -4 OFFCURVE",
"84 -16 OFFCURVE",
"131 -16 CURVE SMOOTH"
);
}
);
width = 684;
}
);
unicode = 03C0;
},
{
color = 4;
glyphname = zero;
lastChange = "2023-02-01 12:47:41 +0000";
layers = (
{
background = {
paths = (
{
closed = 1;
nodes = (
"522 -8 OFFCURVE",
"653 137 OFFCURVE",
"653 338 CURVE SMOOTH",
"653 537 OFFCURVE",
"520 683 OFFCURVE",
"340 683 CURVE SMOOTH",
"158 683 OFFCURVE",
"26 538 OFFCURVE",
"26 338 CURVE SMOOTH",
"26 136 OFFCURVE",
"157 -8 OFFCURVE",
"340 -8 CURVE SMOOTH"
);
},
{
closed = 1;
nodes = (
"274 158 OFFCURVE",
"232 228 OFFCURVE",
"232 338 CURVE SMOOTH",
"232 450 OFFCURVE",
"272 517 OFFCURVE",
"340 517 CURVE SMOOTH",
"406 517 OFFCURVE",
"447 448 OFFCURVE",
"447 338 CURVE SMOOTH",
"447 225 OFFCURVE",
"407 158 OFFCURVE",
"340 158 CURVE SMOOTH"
);
}
);
};
layerId = UUID0;
paths = (
{
closed = 1;
nodes = (
"522 -8 OFFCURVE",
"653 141 OFFCURVE",
"653 348 CURVE SMOOTH",
"653 553 OFFCURVE",
"520 703 OFFCURVE",
"340 703 CURVE SMOOTH",
"158 703 OFFCURVE",
"26 554 OFFCURVE",
"26 348 CURVE SMOOTH",
"26 140 OFFCURVE",
"157 -8 OFFCURVE",
"340 -8 CURVE SMOOTH"
);
},
{
closed = 1;
nodes = (
"274 163 OFFCURVE",
"232 235 OFFCURVE",
"232 348 CURVE SMOOTH",
"232 463 OFFCURVE",
"272 532 OFFCURVE",
"340 532 CURVE SMOOTH",
"406 532 OFFCURVE",
"447 461 OFFCURVE",
"447 348 CURVE SMOOTH",
"447 232 OFFCURVE",
"407 163 OFFCURVE",
"340 163 CURVE SMOOTH"
);
}
);
width = 679;
}
);
unicode = 0030;
},
{
color = 4;
glyphname = one;
lastChange = "2023-02-02 12:44:40 +0000";
layers = (
{
background = {
paths = (
{
closed = 1;
nodes = (
"431 0 LINE",
"431 147 LINE",
"347 147 LINE",
"347 669 LINE",
"242 669 LINE",
"176 625 OFFCURVE",
"105 604 OFFCURVE",
"48 604 CURVE",
"48 474 LINE",
"132 480 LINE",
"132 147 LINE",
"48 147 LINE",
"48 0 LINE"
);
}
);
};
layerId = UUID0;
paths = (
{
closed = 1;
nodes = (
"431 0 LINE",
"431 146 LINE",
"347 146 LINE",
"347 688 LINE",
"242 688 LINE",
"176 644 OFFCURVE",
"105 623 OFFCURVE",
"48 623 CURVE",
"48 492 LINE",
"132 492 LINE",
"132 146 LINE",
"48 146 LINE",
"48 0 LINE"
);
}
);
width = 444;
}
);
unicode = 0031;
},
{
color = 4;
glyphname = two;
lastChange = "2023-02-01 12:48:48 +0000";
layers = (
{
background = {
paths = (
{
closed = 1;
nodes = (
"477 0 LINE",
"477 146 LINE",
"236 146 LINE",
"398 240 OFFCURVE",
"481 342 OFFCURVE",
"481 465 CURVE SMOOTH",
"481 586 OFFCURVE",
"393 676 OFFCURVE",
"250 676 CURVE SMOOTH",
"168 676 OFFCURVE",
"100 656 OFFCURVE",
"29 620 CURVE",
"78 471 LINE",
"119 495 OFFCURVE",
"164 510 OFFCURVE",
"207 510 CURVE SMOOTH",
"250 510 OFFCURVE",
"279 488 OFFCURVE",
"279 444 CURVE SMOOTH",
"279 376 OFFCURVE",
"190 275 OFFCURVE",
"41 141 CURVE",
"41 0 LINE"
);
}
);
};
layerId = UUID0;
paths = (
{
closed = 1;
nodes = (
"477 0 LINE",
"477 146 LINE",
"236 146 LINE",
"398 245 OFFCURVE",
"481 352 OFFCURVE",
"481 481 CURVE SMOOTH",
"481 608 OFFCURVE",
"403 703 OFFCURVE",
"240 703 CURVE SMOOTH",
"168 703 OFFCURVE",
"90 682 OFFCURVE",
"29 644 CURVE",
"78 488 LINE",
"119 515 OFFCURVE",
"164 529 OFFCURVE",
"207 529 CURVE SMOOTH",
"250 529 OFFCURVE",
"279 506 OFFCURVE",
"279 459 CURVE SMOOTH",
"279 388 OFFCURVE",
"190 282 OFFCURVE",
"41 141 CURVE",
"41 0 LINE"
);
}
);
width = 519;
}
);
unicode = 0032;
},
{
color = 4;
glyphname = three;
lastChange = "2023-02-01 12:49:33 +0000";
layers = (
{
background = {
paths = (
{
closed = 1;
nodes = (
"387 -11 OFFCURVE",
"490 69 OFFCURVE",
"490 199 CURVE SMOOTH",
"490 261 OFFCURVE",
"453 325 OFFCURVE",
"366 355 CURVE",
"425 393 OFFCURVE",
"460 449 OFFCURVE",
"460 513 CURVE SMOOTH",
"460 614 OFFCURVE",
"377 677 OFFCURVE",
"243 677 CURVE SMOOTH",
"162 677 OFFCURVE",
"87 659 OFFCURVE",
"22 623 CURVE",
"61 487 LINE",
"107 510 OFFCURVE",
"156 521 OFFCURVE",
"212 521 CURVE SMOOTH",
"260 521 OFFCURVE",
"289 504 OFFCURVE",
"289 476 CURVE SMOOTH",
"289 431 OFFCURVE",
"228 407 OFFCURVE",
"111 407 CURVE",
"111 283 LINE",
"242 283 OFFCURVE",
"293 261 OFFCURVE",
"293 207 CURVE SMOOTH",
"293 164 OFFCURVE",
"265 143 OFFCURVE",
"211 143 CURVE SMOOTH",
"167 143 OFFCURVE",
"118 154 OFFCURVE",
"64 175 CURVE",
"31 28 LINE",
"90 3 OFFCURVE",
"162 -11 OFFCURVE",
"232 -11 CURVE SMOOTH"
);
}
);
};
layerId = UUID0;
paths = (
{
closed = 1;
nodes = (
"387 -11 OFFCURVE",
"490 72 OFFCURVE",
"490 207 CURVE SMOOTH",
"490 271 OFFCURVE",
"453 338 OFFCURVE",
"366 369 CURVE",
"426 408 OFFCURVE",
"460 466 OFFCURVE",
"460 533 CURVE SMOOTH",
"460 638 OFFCURVE",
"377 703 OFFCURVE",
"243 703 CURVE SMOOTH",
"162 703 OFFCURVE",
"87 684 OFFCURVE",
"22 647 CURVE",
"61 506 LINE",
"107 530 OFFCURVE",
"156 541 OFFCURVE",
"212 541 CURVE SMOOTH",
"260 541 OFFCURVE",
"289 523 OFFCURVE",
"289 494 CURVE SMOOTH",
"289 448 OFFCURVE",
"228 423 OFFCURVE",
"111 423 CURVE",
"111 286 LINE",
"242 286 OFFCURVE",
"293 264 OFFCURVE",
"293 211 CURVE SMOOTH",
"293 170 OFFCURVE",
"265 149 OFFCURVE",
"211 149 CURVE SMOOTH",
"167 149 OFFCURVE",
"118 160 OFFCURVE",
"64 182 CURVE",
"31 29 LINE",
"90 4 OFFCURVE",
"162 -11 OFFCURVE",
"232 -11 CURVE SMOOTH"
);
}
);
width = 515;
}
);
unicode = 0033;
},
{
color = 4;
glyphname = four;
lastChange = "2023-02-01 13:01:04 +0000";
layers = (
{
background = {
paths = (
{
closed = 1;
nodes = (
"518 0 LINE",
"518 155 LINE",
"614 155 LINE",
"614 301 LINE",
"518 301 LINE",
"518 669 LINE",
"294 669 LINE",
"28 303 LINE",
"28 155 LINE",
"305 155 LINE",
"305 0 LINE"
);
},
{
closed = 1;
nodes = (
"305 499 LINE",
"305 301 LINE",
"175 301 LINE"
);
}
);
};
layerId = UUID0;
paths = (
{
closed = 1;
nodes = (
"518 0 LINE",
"518 162 LINE",
"614 162 LINE",
"614 308 LINE",
"518 308 LINE",
"518 688 LINE",
"294 688 LINE",
"28 310 LINE",
"28 162 LINE",
"305 162 LINE",
"305 0 LINE"
);
},
{
closed = 1;
nodes = (
"305 518 LINE",
"305 308 LINE",
"175 308 LINE"
);
}
);
width = 626;
}
);
unicode = 0034;
},
{
color = 4;
glyphname = five;
lastChange = "2023-02-01 13:01:01 +0000";
layers = (
{
background = {
paths = (
{
closed = 1;
nodes = (
"397 -11 OFFCURVE",
"500 72 OFFCURVE",
"500 207 CURVE SMOOTH",
"500 271 OFFCURVE",
"463 338 OFFCURVE",
"376 369 CURVE",
"436 408 OFFCURVE",
"470 466 OFFCURVE",
"470 533 CURVE SMOOTH",
"470 638 OFFCURVE",
"387 703 OFFCURVE",
"253 703 CURVE SMOOTH",
"172 703 OFFCURVE",
"97 684 OFFCURVE",
"32 647 CURVE",
"71 506 LINE",
"117 530 OFFCURVE",
"166 541 OFFCURVE",
"222 541 CURVE SMOOTH",
"270 541 OFFCURVE",
"299 523 OFFCURVE",
"299 494 CURVE SMOOTH",
"299 448 OFFCURVE",
"238 423 OFFCURVE",
"121 423 CURVE",
"121 286 LINE",
"252 286 OFFCURVE",
"303 264 OFFCURVE",
"303 211 CURVE SMOOTH",
"303 170 OFFCURVE",
"275 149 OFFCURVE",
"221 149 CURVE SMOOTH",
"177 149 OFFCURVE",
"128 160 OFFCURVE",
"74 182 CURVE",
"41 29 LINE",
"100 4 OFFCURVE",
"172 -11 OFFCURVE",
"242 -11 CURVE SMOOTH"
);
}
);
};
layerId = UUID0;
paths = (
{
closed = 1;
nodes = (
"405 -13 OFFCURVE",
"520 68 OFFCURVE",
"520 243 CURVE SMOOTH",
"520 351 OFFCURVE",
"462 449 OFFCURVE",
"327 449 CURVE SMOOTH",
"276 449 OFFCURVE",
"213 427 OFFCURVE",
"181 367 CURVE",
"214 351 LINE",
"232 538 LINE",
"460 538 LINE",
"475 688 LINE",
"82 688 LINE",
"49 298 LINE",
"157 252 LINE",
"185 280 OFFCURVE",
"216 293 OFFCURVE",
"251 293 CURVE SMOOTH",
"294 293 OFFCURVE",
"323 268 OFFCURVE",
"323 225 CURVE SMOOTH",
"323 177 OFFCURVE",
"291 148 OFFCURVE",
"219 148 CURVE SMOOTH",
"174 148 OFFCURVE",
"118 160 OFFCURVE",
"74 181 CURVE",
"42 28 LINE",
"108 -2 OFFCURVE",
"171 -13 OFFCURVE",
"232 -13 CURVE SMOOTH"
);
}
);
width = 547;
}
);
unicode = 0035;
},
{
color = 4;
glyphname = six;
lastChange = "2023-02-01 13:02:56 +0000";
layers = (
{
background = {
paths = (
{
closed = 1;
nodes = (
"471 -7 OFFCURVE",
"588 92 OFFCURVE",
"588 216 CURVE SMOOTH",
"588 339 OFFCURVE",
"509 419 OFFCURVE",
"388 419 CURVE SMOOTH",
"319 419 OFFCURVE",
"260 394 OFFCURVE",
"224 349 CURVE",
"235 470 OFFCURVE",
"279 524 OFFCURVE",
"366 524 CURVE SMOOTH",
"414 524 OFFCURVE",
"458 511 OFFCURVE",
"510 481 CURVE",
"557 612 LINE",
"490 656 OFFCURVE",
"417 679 OFFCURVE",
"343 679 CURVE SMOOTH",
"156 679 OFFCURVE",
"26 526 OFFCURVE",
"26 316 CURVE SMOOTH",
"26 119 OFFCURVE",
"144 -7 OFFCURVE",
"325 -7 CURVE SMOOTH"
);
},
{
closed = 1;
nodes = (
"265 136 OFFCURVE",
"231 183 OFFCURVE",
"228 271 CURVE",
"254 282 OFFCURVE",
"285 289 OFFCURVE",
"312 289 CURVE SMOOTH",
"369 289 OFFCURVE",
"403 261 OFFCURVE",
"403 216 CURVE SMOOTH",
"403 169 OFFCURVE",
"371 136 OFFCURVE",
"324 136 CURVE SMOOTH"
);
}
);
};
layerId = UUID0;
paths = (
{
closed = 1;
nodes = (
"26 113 OFFCURVE",
"134 -7 OFFCURVE",
"317 -7 CURVE SMOOTH",
"476 -7 OFFCURVE",
"584 90 OFFCURVE",
"584 233 CURVE SMOOTH",
"584 359 OFFCURVE",
"501 441 OFFCURVE",
"374 441 CURVE SMOOTH",
"313 441 OFFCURVE",
"255 406 OFFCURVE",
"226 353 CURVE",
"236 474 OFFCURVE",
"295 543 OFFCURVE",
"391 543 CURVE SMOOTH",
"430 543 OFFCURVE",
"472 531 OFFCURVE",
"513 510 CURVE",
"554 654 LINE",
"507 686 OFFCURVE",
"447 703 OFFCURVE",
"373 703 CURVE SMOOTH",
"167 703 OFFCURVE",
"26 546 OFFCURVE",
"26 317 CURVE SMOOTH"
);
},
{
closed = 1;
nodes = (
"252 286 OFFCURVE",
"284 295 OFFCURVE",
"318 295 CURVE SMOOTH",
"370 295 OFFCURVE",
"403 265 OFFCURVE",
"403 220 CURVE SMOOTH",
"403 170 OFFCURVE",
"369 137 OFFCURVE",
"318 137 CURVE SMOOTH",
"263 137 OFFCURVE",
"233 181 OFFCURVE",
"226 269 CURVE"
);
}
);
width = 593;
}
);
unicode = 0036;
},
{
color = 4;
glyphname = seven;
lastChange = "2023-02-02 12:44:47 +0000";
layers = (
{
background = {
paths = (
{
closed = 1;
nodes = (
"485 547 LINE",
"485 669 LINE",
"26 669 LINE",
"26 524 LINE",
"265 524 LINE",
"51 60 LINE",
"233 -17 LINE"
);
}
);
};
layerId = UUID0;
paths = (
{
closed = 1;
nodes = (
"494 566 LINE",
"494 688 LINE",
"26 688 LINE",
"26 542 LINE",
"274 542 LINE",
"51 60 LINE",
"233 -17 LINE"
);
}
);
width = 513;
}
);
unicode = 0037;
},
{
color = 4;
glyphname = eight;
lastChange = "2023-02-01 13:03:34 +0000";
layers = (
{
background = {
paths = (
{
closed = 1;
nodes = (
"1177 -13 OFFCURVE",
"1283 66 OFFCURVE",
"1283 198 CURVE SMOOTH",
"1283 283 OFFCURVE",
"1241 342 OFFCURVE",
"1149 390 CURVE",
"1207 420 OFFCURVE",
"1232 461 OFFCURVE",
"1232 523 CURVE SMOOTH",
"1232 614 OFFCURVE",
"1140 678 OFFCURVE",
"1010 678 CURVE SMOOTH",
"866 678 OFFCURVE",
"767 603 OFFCURVE",
"767 494 CURVE SMOOTH",
"767 430 OFFCURVE",
"788 387 OFFCURVE",
"843 342 CURVE",
"759 309 OFFCURVE",
"717 256 OFFCURVE",
"717 182 CURVE SMOOTH",
"717 63 OFFCURVE",
"828 -13 OFFCURVE",
"1001 -13 CURVE SMOOTH"
);
},
{
closed = 1;
nodes = (
"951 125 OFFCURVE",
"917 154 OFFCURVE",
"917 198 CURVE SMOOTH",
"917 232 OFFCURVE",
"927 257 OFFCURVE",
"949 280 CURVE",
"995 262 LINE SMOOTH",
"1061 236 OFFCURVE",
"1087 212 OFFCURVE",
"1087 178 CURVE SMOOTH",
"1087 146 OFFCURVE",
"1053 125 OFFCURVE",
"1002 125 CURVE SMOOTH"
);
},
{
closed = 1;
nodes = (
"1010 439 LINE SMOOTH",
"948 463 OFFCURVE",
"924 485 OFFCURVE",
"924 518 CURVE SMOOTH",
"924 552 OFFCURVE",
"951 570 OFFCURVE",
"1001 570 CURVE SMOOTH",
"1049 570 OFFCURVE",
"1075 544 OFFCURVE",
"1075 498 CURVE SMOOTH",
"1075 469 OFFCURVE",
"1065 446 OFFCURVE",
"1044 426 CURVE"
);
},
{
closed = 1;
nodes = (
"22 60 OFFCURVE",
"133 -13 OFFCURVE",
"301 -13 CURVE SMOOTH",
"452 -13 OFFCURVE",
"578 69 OFFCURVE",
"578 206 CURVE SMOOTH",
"578 313 OFFCURVE",
"509 367 OFFCURVE",
"431 403 CURVE",
"502 434 OFFCURVE",
"532 477 OFFCURVE",
"532 542 CURVE SMOOTH",
"532 637 OFFCURVE",
"440 703 OFFCURVE",
"310 703 CURVE SMOOTH",
"166 703 OFFCURVE",
"61 625 OFFCURVE",
"61 502 CURVE SMOOTH",
"61 415 OFFCURVE",
"103 363 OFFCURVE",
"157 329 CURVE",
"68 297 OFFCURVE",
"22 245 OFFCURVE",
"22 175 CURVE SMOOTH"
);
},
{
closed = 1;
nodes = (
"212 236 OFFCURVE",
"222 261 OFFCURVE",
"245 286 CURVE",
"321 257 OFFCURVE",
"392 239 OFFCURVE",
"392 190 CURVE SMOOTH",
"392 146 OFFCURVE",
"358 118 OFFCURVE",
"302 118 CURVE SMOOTH",
"246 118 OFFCURVE",
"212 154 OFFCURVE",
"212 206 CURVE SMOOTH"
);
},
{
closed = 1;
nodes = (
"224 567 OFFCURVE",
"252 591 OFFCURVE",
"299 591 CURVE SMOOTH",
"349 591 OFFCURVE",
"375 564 OFFCURVE",
"375 516 CURVE SMOOTH",
"375 485 OFFCURVE",
"365 461 OFFCURVE",
"342 440 CURVE",
"277 465 OFFCURVE",
"224 488 OFFCURVE",
"224 534 CURVE SMOOTH"
);
}
);
};
layerId = UUID0;
paths = (
{
closed = 1;
nodes = (
"22 60 OFFCURVE",
"133 -13 OFFCURVE",
"301 -13 CURVE SMOOTH",
"452 -13 OFFCURVE",
"578 69 OFFCURVE",
"578 206 CURVE SMOOTH",
"578 313 OFFCURVE",
"509 367 OFFCURVE",
"431 403 CURVE",
"502 434 OFFCURVE",
"532 477 OFFCURVE",
"532 542 CURVE SMOOTH",
"532 637 OFFCURVE",
"440 703 OFFCURVE",
"310 703 CURVE SMOOTH",
"166 703 OFFCURVE",
"61 625 OFFCURVE",
"61 502 CURVE SMOOTH",
"61 415 OFFCURVE",
"103 363 OFFCURVE",
"157 329 CURVE",
"68 297 OFFCURVE",
"22 245 OFFCURVE",
"22 175 CURVE SMOOTH"
);
},
{
closed = 1;
nodes = (
"212 236 OFFCURVE",
"222 261 OFFCURVE",
"245 286 CURVE",
"351 250 OFFCURVE",
"392 229 OFFCURVE",
"392 190 CURVE SMOOTH",
"392 146 OFFCURVE",
"358 118 OFFCURVE",
"302 118 CURVE SMOOTH",
"246 118 OFFCURVE",
"212 154 OFFCURVE",
"212 206 CURVE SMOOTH"
);
},
{
closed = 1;
nodes = (
"224 567 OFFCURVE",
"252 591 OFFCURVE",
"299 591 CURVE SMOOTH",
"349 591 OFFCURVE",
"375 564 OFFCURVE",
"375 516 CURVE SMOOTH",
"375 485 OFFCURVE",
"365 461 OFFCURVE",
"342 440 CURVE",
"277 465 OFFCURVE",
"224 488 OFFCURVE",
"224 534 CURVE SMOOTH"
);
}
);
width = 600;
}
);
unicode = 0038;
},
{
color = 4;
glyphname = nine;
lastChange = "2023-02-01 13:03:42 +0000";
layers = (
{
background = {
paths = (
{
closed = 1;
nodes = (
"432 -7 OFFCURVE",
"562 146 OFFCURVE",
"562 356 CURVE SMOOTH",
"562 553 OFFCURVE",
"444 679 OFFCURVE",
"263 679 CURVE SMOOTH",
"117 679 OFFCURVE",
"5 580 OFFCURVE",
"5 456 CURVE SMOOTH",
"5 333 OFFCURVE",
"79 253 OFFCURVE",
"210 253 CURVE SMOOTH",
"279 253 OFFCURVE",
"328 278 OFFCURVE",
"364 323 CURVE",
"353 202 OFFCURVE",
"309 148 OFFCURVE",
"222 148 CURVE SMOOTH",
"174 148 OFFCURVE",
"130 161 OFFCURVE",
"78 191 CURVE",
"31 60 LINE",
"98 16 OFFCURVE",
"171 -7 OFFCURVE",
"245 -7 CURVE SMOOTH"
);
},
{
closed = 1;
nodes = (
"219 378 OFFCURVE",
"185 406 OFFCURVE",
"185 454 CURVE SMOOTH",
"185 503 OFFCURVE",
"217 536 OFFCURVE",
"264 536 CURVE SMOOTH",
"323 536 OFFCURVE",
"357 489 OFFCURVE",
"360 396 CURVE",
"334 385 OFFCURVE",
"303 378 OFFCURVE",
"276 378 CURVE SMOOTH"
);
}
);
};
layerId = UUID0;
paths = (
{
closed = 1;
nodes = (
"9 339 OFFCURVE",
"90 255 OFFCURVE",
"219 255 CURVE SMOOTH",
"270 255 OFFCURVE",
"334 281 OFFCURVE",
"367 343 CURVE",
"357 224 OFFCURVE",
"299 153 OFFCURVE",
"202 153 CURVE SMOOTH",
"161 153 OFFCURVE",
"119 165 OFFCURVE",
"80 186 CURVE",
"39 42 LINE",
"87 7 OFFCURVE",
"149 -7 OFFCURVE",
"220 -7 CURVE SMOOTH",
"428 -7 OFFCURVE",
"567 152 OFFCURVE",
"567 379 CURVE SMOOTH",
"567 572 OFFCURVE",
"470 703 OFFCURVE",
"276 703 CURVE SMOOTH",
"112 703 OFFCURVE",
"9 602 OFFCURVE",
"9 463 CURVE SMOOTH"
);
},
{
closed = 1;
nodes = (
"190 525 OFFCURVE",
"223 559 OFFCURVE",
"275 559 CURVE SMOOTH",
"331 559 OFFCURVE",
"360 514 OFFCURVE",
"367 427 CURVE",
"340 409 OFFCURVE",
"307 401 OFFCURVE",
"275 401 CURVE SMOOTH",
"224 401 OFFCURVE",
"190 430 OFFCURVE",
"190 476 CURVE SMOOTH"
);
}
);
width = 593;
}
);
leftMetricsKey = "=|six";
unicode = 0039;
},
{
color = 4;
glyphname = zero.lf;
lastChange = "2023-02-01 13:47:35 +0000";
layers = (
{
background = {
paths = (
{
closed = 1;
nodes = (
"522 -8 OFFCURVE",
"653 137 OFFCURVE",
"653 338 CURVE SMOOTH",
"653 537 OFFCURVE",
"520 683 OFFCURVE",
"340 683 CURVE SMOOTH",
"158 683 OFFCURVE",
"26 538 OFFCURVE",
"26 338 CURVE SMOOTH",
"26 136 OFFCURVE",
"157 -8 OFFCURVE",
"340 -8 CURVE SMOOTH"
);
},
{
closed = 1;
nodes = (
"274 158 OFFCURVE",
"232 228 OFFCURVE",
"232 338 CURVE SMOOTH",
"232 450 OFFCURVE",
"272 517 OFFCURVE",
"340 517 CURVE SMOOTH",
"406 517 OFFCURVE",
"447 448 OFFCURVE",
"447 338 CURVE SMOOTH",
"447 225 OFFCURVE",
"407 158 OFFCURVE",
"340 158 CURVE SMOOTH"
);
}
);
};
layerId = UUID0;
paths = (
{
closed = 1;
nodes = (
"522 -8 OFFCURVE",
"653 141 OFFCURVE",
"653 348 CURVE SMOOTH",
"653 553 OFFCURVE",
"520 703 OFFCURVE",
"340 703 CURVE SMOOTH",
"158 703 OFFCURVE",
"26 554 OFFCURVE",
"26 348 CURVE SMOOTH",
"26 140 OFFCURVE",
"157 -8 OFFCURVE",
"340 -8 CURVE SMOOTH"
);
},
{
closed = 1;
nodes = (
"274 163 OFFCURVE",
"232 235 OFFCURVE",
"232 348 CURVE SMOOTH",
"232 463 OFFCURVE",
"272 532 OFFCURVE",
"340 532 CURVE SMOOTH",
"406 532 OFFCURVE",
"447 461 OFFCURVE",
"447 348 CURVE SMOOTH",
"447 232 OFFCURVE",
"407 163 OFFCURVE",
"340 163 CURVE SMOOTH"
);
}
);
width = 679;
}
);
},
{
color = 4;
glyphname = one.lf;
lastChange = "2023-02-01 13:47:35 +0000";
layers = (
{
background = {
paths = (
{
closed = 1;
nodes = (
"431 0 LINE",
"431 147 LINE",
"347 147 LINE",
"347 669 LINE",
"242 669 LINE",
"176 625 OFFCURVE",
"105 604 OFFCURVE",
"48 604 CURVE",
"48 474 LINE",
"132 480 LINE",
"132 147 LINE",
"48 147 LINE",
"48 0 LINE"
);
}
);
};
layerId = UUID0;
paths = (
{
closed = 1;
nodes = (
"431 0 LINE",
"431 146 LINE",
"347 146 LINE",
"347 688 LINE",
"242 688 LINE",
"176 644 OFFCURVE",
"105 623 OFFCURVE",
"48 623 CURVE",
"48 492 LINE",
"132 492 LINE",
"132 146 LINE",
"48 146 LINE",
"48 0 LINE"
);
}
);
width = 444;
}
);
},
{
color = 4;
glyphname = two.lf;
lastChange = "2023-02-01 13:47:35 +0000";
layers = (
{
background = {
paths = (
{
closed = 1;
nodes = (
"477 0 LINE",
"477 146 LINE",
"236 146 LINE",
"398 240 OFFCURVE",
"481 342 OFFCURVE",
"481 465 CURVE SMOOTH",
"481 586 OFFCURVE",
"393 676 OFFCURVE",
"250 676 CURVE SMOOTH",
"168 676 OFFCURVE",
"100 656 OFFCURVE",
"29 620 CURVE",
"78 471 LINE",
"119 495 OFFCURVE",
"164 510 OFFCURVE",
"207 510 CURVE SMOOTH",
"250 510 OFFCURVE",
"279 488 OFFCURVE",
"279 444 CURVE SMOOTH",
"279 376 OFFCURVE",
"190 275 OFFCURVE",
"41 141 CURVE",
"41 0 LINE"
);
}
);
};
layerId = UUID0;
paths = (
{
closed = 1;
nodes = (
"477 0 LINE",
"477 146 LINE",
"236 146 LINE",
"398 245 OFFCURVE",
"481 352 OFFCURVE",
"481 481 CURVE SMOOTH",
"481 608 OFFCURVE",
"403 703 OFFCURVE",
"240 703 CURVE SMOOTH",
"168 703 OFFCURVE",
"90 682 OFFCURVE",
"29 644 CURVE",
"78 488 LINE",
"119 515 OFFCURVE",
"164 529 OFFCURVE",
"207 529 CURVE SMOOTH",
"250 529 OFFCURVE",
"279 506 OFFCURVE",
"279 459 CURVE SMOOTH",
"279 388 OFFCURVE",
"190 282 OFFCURVE",
"41 141 CURVE",
"41 0 LINE"
);
}
);
width = 519;
}
);
},
{
color = 4;
glyphname = three.lf;
lastChange = "2023-02-01 13:47:35 +0000";
layers = (
{
background = {
paths = (
{
closed = 1;
nodes = (
"387 -11 OFFCURVE",
"490 69 OFFCURVE",
"490 199 CURVE SMOOTH",
"490 261 OFFCURVE",
"453 325 OFFCURVE",
"366 355 CURVE",
"425 393 OFFCURVE",
"460 449 OFFCURVE",
"460 513 CURVE SMOOTH",
"460 614 OFFCURVE",
"377 677 OFFCURVE",
"243 677 CURVE SMOOTH",
"162 677 OFFCURVE",
"87 659 OFFCURVE",
"22 623 CURVE",
"61 487 LINE",
"107 510 OFFCURVE",
"156 521 OFFCURVE",
"212 521 CURVE SMOOTH",
"260 521 OFFCURVE",
"289 504 OFFCURVE",
"289 476 CURVE SMOOTH",
"289 431 OFFCURVE",
"228 407 OFFCURVE",
"111 407 CURVE",
"111 283 LINE",
"242 283 OFFCURVE",
"293 261 OFFCURVE",
"293 207 CURVE SMOOTH",
"293 164 OFFCURVE",
"265 143 OFFCURVE",
"211 143 CURVE SMOOTH",
"167 143 OFFCURVE",
"118 154 OFFCURVE",
"64 175 CURVE",
"31 28 LINE",
"90 3 OFFCURVE",
"162 -11 OFFCURVE",
"232 -11 CURVE SMOOTH"
);
}
);
};
layerId = UUID0;
paths = (
{
closed = 1;
nodes = (
"387 -11 OFFCURVE",
"490 72 OFFCURVE",
"490 207 CURVE SMOOTH",
"490 271 OFFCURVE",
"453 338 OFFCURVE",
"366 369 CURVE",
"426 408 OFFCURVE",
"460 466 OFFCURVE",
"460 533 CURVE SMOOTH",
"460 638 OFFCURVE",
"377 703 OFFCURVE",
"243 703 CURVE SMOOTH",
"162 703 OFFCURVE",
"87 684 OFFCURVE",
"22 647 CURVE",
"61 506 LINE",
"107 530 OFFCURVE",
"156 541 OFFCURVE",
"212 541 CURVE SMOOTH",
"260 541 OFFCURVE",
"289 523 OFFCURVE",
"289 494 CURVE SMOOTH",
"289 448 OFFCURVE",
"228 423 OFFCURVE",
"111 423 CURVE",
"111 286 LINE",
"242 286 OFFCURVE",
"293 264 OFFCURVE",
"293 211 CURVE SMOOTH",
"293 170 OFFCURVE",
"265 149 OFFCURVE",
"211 149 CURVE SMOOTH",
"167 149 OFFCURVE",
"118 160 OFFCURVE",
"64 182 CURVE",
"31 29 LINE",
"90 4 OFFCURVE",
"162 -11 OFFCURVE",
"232 -11 CURVE SMOOTH"
);
}
);
width = 515;
}
);
},
{
color = 4;
glyphname = four.lf;
lastChange = "2023-02-01 13:47:35 +0000";
layers = (
{
background = {
paths = (
{
closed = 1;
nodes = (
"518 0 LINE",
"518 155 LINE",
"614 155 LINE",
"614 301 LINE",
"518 301 LINE",
"518 669 LINE",
"294 669 LINE",
"28 303 LINE",
"28 155 LINE",
"305 155 LINE",
"305 0 LINE"
);
},
{
closed = 1;
nodes = (
"305 499 LINE",
"305 301 LINE",
"175 301 LINE"
);
}
);
};
layerId = UUID0;
paths = (
{
closed = 1;
nodes = (
"518 0 LINE",
"518 162 LINE",
"614 162 LINE",
"614 308 LINE",
"518 308 LINE",
"518 688 LINE",
"294 688 LINE",
"28 310 LINE",
"28 162 LINE",
"305 162 LINE",
"305 0 LINE"
);
},
{
closed = 1;
nodes = (
"305 518 LINE",
"305 308 LINE",
"175 308 LINE"
);
}
);
width = 626;
}
);
},
{
color = 4;
glyphname = five.lf;
lastChange = "2023-02-01 13:47:35 +0000";
layers = (
{
background = {
paths = (
{
closed = 1;
nodes = (
"397 -11 OFFCURVE",
"500 72 OFFCURVE",
"500 207 CURVE SMOOTH",
"500 271 OFFCURVE",
"463 338 OFFCURVE",
"376 369 CURVE",
"436 408 OFFCURVE",
"470 466 OFFCURVE",
"470 533 CURVE SMOOTH",
"470 638 OFFCURVE",
"387 703 OFFCURVE",
"253 703 CURVE SMOOTH",
"172 703 OFFCURVE",
"97 684 OFFCURVE",
"32 647 CURVE",
"71 506 LINE",
"117 530 OFFCURVE",
"166 541 OFFCURVE",
"222 541 CURVE SMOOTH",
"270 541 OFFCURVE",
"299 523 OFFCURVE",
"299 494 CURVE SMOOTH",
"299 448 OFFCURVE",
"238 423 OFFCURVE",
"121 423 CURVE",
"121 286 LINE",
"252 286 OFFCURVE",
"303 264 OFFCURVE",
"303 211 CURVE SMOOTH",
"303 170 OFFCURVE",
"275 149 OFFCURVE",
"221 149 CURVE SMOOTH",
"177 149 OFFCURVE",
"128 160 OFFCURVE",
"74 182 CURVE",
"41 29 LINE",
"100 4 OFFCURVE",
"172 -11 OFFCURVE",
"242 -11 CURVE SMOOTH"
);
}
);
};
layerId = UUID0;
paths = (
{
closed = 1;
nodes = (
"405 -13 OFFCURVE",
"520 68 OFFCURVE",
"520 243 CURVE SMOOTH",
"520 351 OFFCURVE",
"462 449 OFFCURVE",
"327 449 CURVE SMOOTH",
"276 449 OFFCURVE",
"213 427 OFFCURVE",
"181 367 CURVE",
"214 351 LINE",
"232 538 LINE",
"460 538 LINE",
"475 688 LINE",
"82 688 LINE",
"49 298 LINE",
"157 252 LINE",
"185 280 OFFCURVE",
"216 293 OFFCURVE",
"251 293 CURVE SMOOTH",
"294 293 OFFCURVE",
"323 268 OFFCURVE",
"323 225 CURVE SMOOTH",
"323 177 OFFCURVE",
"291 148 OFFCURVE",
"219 148 CURVE SMOOTH",
"174 148 OFFCURVE",
"118 160 OFFCURVE",
"74 181 CURVE",
"42 28 LINE",
"108 -2 OFFCURVE",
"171 -13 OFFCURVE",
"232 -13 CURVE SMOOTH"
);
}
);
width = 547;
}
);
},
{
color = 4;
glyphname = six.lf;
lastChange = "2023-02-01 13:47:35 +0000";
layers = (
{
background = {
paths = (
{
closed = 1;
nodes = (
"471 -7 OFFCURVE",
"588 92 OFFCURVE",
"588 216 CURVE SMOOTH",
"588 339 OFFCURVE",
"509 419 OFFCURVE",
"388 419 CURVE SMOOTH",
"319 419 OFFCURVE",
"260 394 OFFCURVE",
"224 349 CURVE",
"235 470 OFFCURVE",
"279 524 OFFCURVE",
"366 524 CURVE SMOOTH",
"414 524 OFFCURVE",
"458 511 OFFCURVE",
"510 481 CURVE",
"557 612 LINE",
"490 656 OFFCURVE",
"417 679 OFFCURVE",
"343 679 CURVE SMOOTH",
"156 679 OFFCURVE",
"26 526 OFFCURVE",
"26 316 CURVE SMOOTH",
"26 119 OFFCURVE",
"144 -7 OFFCURVE",
"325 -7 CURVE SMOOTH"
);
},
{
closed = 1;
nodes = (
"265 136 OFFCURVE",
"231 183 OFFCURVE",
"228 271 CURVE",
"254 282 OFFCURVE",
"285 289 OFFCURVE",
"312 289 CURVE SMOOTH",
"369 289 OFFCURVE",
"403 261 OFFCURVE",
"403 216 CURVE SMOOTH",
"403 169 OFFCURVE",
"371 136 OFFCURVE",
"324 136 CURVE SMOOTH"
);
}
);
};
layerId = UUID0;
paths = (
{
closed = 1;
nodes = (
"26 113 OFFCURVE",
"134 -7 OFFCURVE",
"317 -7 CURVE SMOOTH",
"476 -7 OFFCURVE",
"584 90 OFFCURVE",
"584 233 CURVE SMOOTH",
"584 359 OFFCURVE",
"501 441 OFFCURVE",
"374 441 CURVE SMOOTH",
"313 441 OFFCURVE",
"255 406 OFFCURVE",
"226 353 CURVE",
"236 474 OFFCURVE",
"295 543 OFFCURVE",
"391 543 CURVE SMOOTH",
"430 543 OFFCURVE",
"472 531 OFFCURVE",
"513 510 CURVE",
"554 654 LINE",
"507 686 OFFCURVE",
"447 703 OFFCURVE",
"373 703 CURVE SMOOTH",
"167 703 OFFCURVE",
"26 546 OFFCURVE",
"26 317 CURVE SMOOTH"
);
},
{
closed = 1;
nodes = (
"252 286 OFFCURVE",
"284 295 OFFCURVE",
"318 295 CURVE SMOOTH",
"370 295 OFFCURVE",
"403 265 OFFCURVE",
"403 220 CURVE SMOOTH",
"403 170 OFFCURVE",
"369 137 OFFCURVE",
"318 137 CURVE SMOOTH",
"263 137 OFFCURVE",
"233 181 OFFCURVE",
"226 269 CURVE"
);
}
);
width = 593;
}
);
},
{
color = 4;
glyphname = seven.lf;
lastChange = "2023-02-01 13:47:35 +0000";
layers = (
{
background = {
paths = (
{
closed = 1;
nodes = (
"485 547 LINE",
"485 669 LINE",
"26 669 LINE",
"26 524 LINE",
"265 524 LINE",
"51 60 LINE",
"233 -17 LINE"
);
}
);
};
layerId = UUID0;
paths = (
{
closed = 1;
nodes = (
"494 566 LINE",
"494 688 LINE",
"26 688 LINE",
"26 542 LINE",
"274 542 LINE",
"51 60 LINE",
"233 -17 LINE"
);
}
);
width = 513;
}
);
},
{
color = 4;
glyphname = eight.lf;
lastChange = "2023-02-01 13:47:35 +0000";
layers = (
{
background = {
paths = (
{
closed = 1;
nodes = (
"1177 -13 OFFCURVE",
"1283 66 OFFCURVE",
"1283 198 CURVE SMOOTH",
"1283 283 OFFCURVE",
"1241 342 OFFCURVE",
"1149 390 CURVE",
"1207 420 OFFCURVE",
"1232 461 OFFCURVE",
"1232 523 CURVE SMOOTH",
"1232 614 OFFCURVE",
"1140 678 OFFCURVE",
"1010 678 CURVE SMOOTH",
"866 678 OFFCURVE",
"767 603 OFFCURVE",
"767 494 CURVE SMOOTH",
"767 430 OFFCURVE",
"788 387 OFFCURVE",
"843 342 CURVE",
"759 309 OFFCURVE",
"717 256 OFFCURVE",
"717 182 CURVE SMOOTH",
"717 63 OFFCURVE",
"828 -13 OFFCURVE",
"1001 -13 CURVE SMOOTH"
);
},
{
closed = 1;
nodes = (
"951 125 OFFCURVE",
"917 154 OFFCURVE",
"917 198 CURVE SMOOTH",
"917 232 OFFCURVE",
"927 257 OFFCURVE",
"949 280 CURVE",
"995 262 LINE SMOOTH",
"1061 236 OFFCURVE",
"1087 212 OFFCURVE",
"1087 178 CURVE SMOOTH",
"1087 146 OFFCURVE",
"1053 125 OFFCURVE",
"1002 125 CURVE SMOOTH"
);
},
{
closed = 1;
nodes = (
"1010 439 LINE SMOOTH",
"948 463 OFFCURVE",
"924 485 OFFCURVE",
"924 518 CURVE SMOOTH",
"924 552 OFFCURVE",
"951 570 OFFCURVE",
"1001 570 CURVE SMOOTH",
"1049 570 OFFCURVE",
"1075 544 OFFCURVE",
"1075 498 CURVE SMOOTH",
"1075 469 OFFCURVE",
"1065 446 OFFCURVE",
"1044 426 CURVE"
);
},
{
closed = 1;
nodes = (
"22 60 OFFCURVE",
"133 -13 OFFCURVE",
"301 -13 CURVE SMOOTH",
"452 -13 OFFCURVE",
"578 69 OFFCURVE",
"578 206 CURVE SMOOTH",
"578 313 OFFCURVE",
"509 367 OFFCURVE",
"431 403 CURVE",
"502 434 OFFCURVE",
"532 477 OFFCURVE",
"532 542 CURVE SMOOTH",
"532 637 OFFCURVE",
"440 703 OFFCURVE",
"310 703 CURVE SMOOTH",
"166 703 OFFCURVE",
"61 625 OFFCURVE",
"61 502 CURVE SMOOTH",
"61 415 OFFCURVE",
"103 363 OFFCURVE",
"157 329 CURVE",
"68 297 OFFCURVE",
"22 245 OFFCURVE",
"22 175 CURVE SMOOTH"
);
},
{
closed = 1;
nodes = (
"212 236 OFFCURVE",
"222 261 OFFCURVE",
"245 286 CURVE",
"321 257 OFFCURVE",
"392 239 OFFCURVE",
"392 190 CURVE SMOOTH",
"392 146 OFFCURVE",
"358 118 OFFCURVE",
"302 118 CURVE SMOOTH",
"246 118 OFFCURVE",
"212 154 OFFCURVE",
"212 206 CURVE SMOOTH"
);
},
{
closed = 1;
nodes = (
"224 567 OFFCURVE",
"252 591 OFFCURVE",
"299 591 CURVE SMOOTH",
"349 591 OFFCURVE",
"375 564 OFFCURVE",
"375 516 CURVE SMOOTH",
"375 485 OFFCURVE",
"365 461 OFFCURVE",
"342 440 CURVE",
"277 465 OFFCURVE",
"224 488 OFFCURVE",
"224 534 CURVE SMOOTH"
);
}
);
};
layerId = UUID0;
paths = (
{
closed = 1;
nodes = (
"22 60 OFFCURVE",
"133 -13 OFFCURVE",
"301 -13 CURVE SMOOTH",
"452 -13 OFFCURVE",
"578 69 OFFCURVE",
"578 206 CURVE SMOOTH",
"578 313 OFFCURVE",
"509 367 OFFCURVE",
"431 403 CURVE",
"502 434 OFFCURVE",
"532 477 OFFCURVE",
"532 542 CURVE SMOOTH",
"532 637 OFFCURVE",
"440 703 OFFCURVE",
"310 703 CURVE SMOOTH",
"166 703 OFFCURVE",
"61 625 OFFCURVE",
"61 502 CURVE SMOOTH",
"61 415 OFFCURVE",
"103 363 OFFCURVE",
"157 329 CURVE",
"68 297 OFFCURVE",
"22 245 OFFCURVE",
"22 175 CURVE SMOOTH"
);
},
{
closed = 1;
nodes = (
"212 236 OFFCURVE",
"222 261 OFFCURVE",
"245 286 CURVE",
"351 250 OFFCURVE",
"392 229 OFFCURVE",
"392 190 CURVE SMOOTH",
"392 146 OFFCURVE",
"358 118 OFFCURVE",
"302 118 CURVE SMOOTH",
"246 118 OFFCURVE",
"212 154 OFFCURVE",
"212 206 CURVE SMOOTH"
);
},
{
closed = 1;
nodes = (
"224 567 OFFCURVE",
"252 591 OFFCURVE",
"299 591 CURVE SMOOTH",
"349 591 OFFCURVE",
"375 564 OFFCURVE",
"375 516 CURVE SMOOTH",
"375 485 OFFCURVE",
"365 461 OFFCURVE",
"342 440 CURVE",
"277 465 OFFCURVE",
"224 488 OFFCURVE",
"224 534 CURVE SMOOTH"
);
}
);
width = 600;
}
);
},
{
color = 4;
glyphname = nine.lf;
lastChange = "2023-02-01 13:47:35 +0000";
layers = (
{
background = {
paths = (
{
closed = 1;
nodes = (
"432 -7 OFFCURVE",
"562 146 OFFCURVE",
"562 356 CURVE SMOOTH",
"562 553 OFFCURVE",
"444 679 OFFCURVE",
"263 679 CURVE SMOOTH",
"117 679 OFFCURVE",
"5 580 OFFCURVE",
"5 456 CURVE SMOOTH",
"5 333 OFFCURVE",
"79 253 OFFCURVE",
"210 253 CURVE SMOOTH",
"279 253 OFFCURVE",
"328 278 OFFCURVE",
"364 323 CURVE",
"353 202 OFFCURVE",
"309 148 OFFCURVE",
"222 148 CURVE SMOOTH",
"174 148 OFFCURVE",
"130 161 OFFCURVE",
"78 191 CURVE",
"31 60 LINE",
"98 16 OFFCURVE",
"171 -7 OFFCURVE",
"245 -7 CURVE SMOOTH"
);
},
{
closed = 1;
nodes = (
"219 378 OFFCURVE",
"185 406 OFFCURVE",
"185 454 CURVE SMOOTH",
"185 503 OFFCURVE",
"217 536 OFFCURVE",
"264 536 CURVE SMOOTH",
"323 536 OFFCURVE",
"357 489 OFFCURVE",
"360 396 CURVE",
"334 385 OFFCURVE",
"303 378 OFFCURVE",
"276 378 CURVE SMOOTH"
);
}
);
};
layerId = UUID0;
paths = (
{
closed = 1;
nodes = (
"9 339 OFFCURVE",
"90 255 OFFCURVE",
"219 255 CURVE SMOOTH",
"270 255 OFFCURVE",
"334 281 OFFCURVE",
"367 343 CURVE",
"357 224 OFFCURVE",
"299 153 OFFCURVE",
"202 153 CURVE SMOOTH",
"161 153 OFFCURVE",
"119 165 OFFCURVE",
"80 186 CURVE",
"39 42 LINE",
"87 7 OFFCURVE",
"149 -7 OFFCURVE",
"220 -7 CURVE SMOOTH",
"428 -7 OFFCURVE",
"567 152 OFFCURVE",
"567 379 CURVE SMOOTH",
"567 572 OFFCURVE",
"470 703 OFFCURVE",
"276 703 CURVE SMOOTH",
"112 703 OFFCURVE",
"9 602 OFFCURVE",
"9 463 CURVE SMOOTH"
);
},
{
closed = 1;
nodes = (
"190 525 OFFCURVE",
"223 559 OFFCURVE",
"275 559 CURVE SMOOTH",
"331 559 OFFCURVE",
"360 514 OFFCURVE",
"367 427 CURVE",
"340 409 OFFCURVE",
"307 401 OFFCURVE",
"275 401 CURVE SMOOTH",
"224 401 OFFCURVE",
"190 430 OFFCURVE",
"190 476 CURVE SMOOTH"
);
}
);
width = 593;
}
);
leftMetricsKey = "=|six";
},
{
color = 4;
glyphname = zero.tf;
lastChange = "2023-02-01 13:03:56 +0000";
layers = (
{
background = {
paths = (
{
closed = 1;
nodes = (
"466 -8 OFFCURVE",
"577 131 OFFCURVE",
"577 338 CURVE SMOOTH",
"577 543 OFFCURVE",
"465 683 OFFCURVE",
"300 683 CURVE SMOOTH",
"134 683 OFFCURVE",
"23 545 OFFCURVE",
"23 338 CURVE SMOOTH",
"23 131 OFFCURVE",
"134 -8 OFFCURVE",
"300 -8 CURVE SMOOTH"
);
},
{
closed = 1;
nodes = (
"247 154 OFFCURVE",
"217 221 OFFCURVE",
"217 338 CURVE SMOOTH",
"217 457 OFFCURVE",
"246 521 OFFCURVE",
"300 521 CURVE SMOOTH",
"353 521 OFFCURVE",
"383 455 OFFCURVE",
"383 338 CURVE SMOOTH",
"383 223 OFFCURVE",
"352 154 OFFCURVE",
"300 154 CURVE SMOOTH"
);
}
);
};
layerId = UUID0;
paths = (
{
closed = 1;
nodes = (
"466 -8 OFFCURVE",
"577 135 OFFCURVE",
"577 348 CURVE SMOOTH",
"577 559 OFFCURVE",
"465 703 OFFCURVE",
"300 703 CURVE SMOOTH",
"134 703 OFFCURVE",
"23 561 OFFCURVE",
"23 348 CURVE SMOOTH",
"23 135 OFFCURVE",
"134 -8 OFFCURVE",
"300 -8 CURVE SMOOTH"
);
},
{
closed = 1;
nodes = (
"247 159 OFFCURVE",
"217 222 OFFCURVE",
"217 348 CURVE SMOOTH",
"217 476 OFFCURVE",
"246 536 OFFCURVE",
"300 536 CURVE SMOOTH",
"353 536 OFFCURVE",
"383 474 OFFCURVE",
"383 348 CURVE SMOOTH",
"383 225 OFFCURVE",
"352 159 OFFCURVE",
"300 159 CURVE SMOOTH"
);
}
);
width = 600;
}
);
},
{
color = 4;
glyphname = one.tf;
lastChange = "2023-02-01 13:05:48 +0000";
layers = (
{
background = {
paths = (
{
closed = 1;
nodes = (
"532 0 LINE",
"532 147 LINE",
"428 147 LINE",
"428 669 LINE",
"323 669 LINE",
"257 625 OFFCURVE",
"196 604 OFFCURVE",
"99 604 CURVE",
"99 473 LINE",
"213 473 LINE",
"213 147 LINE",
"76 147 LINE",
"76 0 LINE"
);
}
);
};
layerId = UUID0;
paths = (
{
closed = 1;
nodes = (
"532 0 LINE",
"532 146 LINE",
"428 146 LINE",
"428 688 LINE",
"323 688 LINE",
"257 644 OFFCURVE",
"196 623 OFFCURVE",
"99 623 CURVE",
"99 492 LINE",
"213 492 LINE",
"213 146 LINE",
"76 146 LINE",
"76 0 LINE"
);
}
);
width = 600;
}
);
},
{
color = 4;
glyphname = two.tf;
lastChange = "2023-02-01 13:08:42 +0000";
layers = (
{
background = {
paths = (
{
closed = 1;
nodes = (
"542 0 LINE",
"542 146 LINE",
"262 146 LINE",
"445 240 OFFCURVE",
"534 342 OFFCURVE",
"534 465 CURVE SMOOTH",
"534 586 OFFCURVE",
"440 676 OFFCURVE",
"288 676 CURVE SMOOTH",
"200 676 OFFCURVE",
"128 656 OFFCURVE",
"52 620 CURVE",
"105 471 LINE",
"148 495 OFFCURVE",
"196 510 OFFCURVE",
"246 510 CURVE SMOOTH",
"298 510 OFFCURVE",
"329 488 OFFCURVE",
"329 444 CURVE SMOOTH",
"329 376 OFFCURVE",
"235 275 OFFCURVE",
"65 141 CURVE",
"65 0 LINE"
);
}
);
};
layerId = UUID0;
paths = (
{
closed = 1;
nodes = (
"542 0 LINE",
"542 146 LINE",
"260 146 LINE",
"446 245 OFFCURVE",
"531 352 OFFCURVE",
"531 481 CURVE SMOOTH",
"531 608 OFFCURVE",
"440 703 OFFCURVE",
"278 703 CURVE SMOOTH",
"201 703 OFFCURVE",
"118 682 OFFCURVE",
"53 644 CURVE",
"106 488 LINE",
"151 515 OFFCURVE",
"201 529 OFFCURVE",
"248 529 CURVE SMOOTH",
"304 529 OFFCURVE",
"331 506 OFFCURVE",
"331 459 CURVE SMOOTH",
"331 388 OFFCURVE",
"234 282 OFFCURVE",
"65 141 CURVE",
"65 0 LINE"
);
}
);
width = 600;
}
);
},
{
color = 4;
glyphname = three.tf;
lastChange = "2023-02-01 13:08:39 +0000";
layers = (
{
background = {
paths = (
{
closed = 1;
nodes = (
"439 -11 OFFCURVE",
"544 66 OFFCURVE",
"544 189 CURVE SMOOTH",
"544 263 OFFCURVE",
"499 326 OFFCURVE",
"414 360 CURVE",
"479 391 OFFCURVE",
"513 446 OFFCURVE",
"513 513 CURVE SMOOTH",
"513 617 OFFCURVE",
"427 677 OFFCURVE",
"299 677 CURVE SMOOTH",
"211 677 OFFCURVE",
"131 659 OFFCURVE",
"53 623 CURVE",
"88 484 LINE",
"153 511 OFFCURVE",
"206 521 OFFCURVE",
"255 521 CURVE SMOOTH",
"304 521 OFFCURVE",
"337 509 OFFCURVE",
"337 476 CURVE SMOOTH",
"337 432 OFFCURVE",
"276 407 OFFCURVE",
"148 407 CURVE",
"148 283 LINE",
"287 283 OFFCURVE",
"342 261 OFFCURVE",
"342 204 CURVE SMOOTH",
"342 164 OFFCURVE",
"313 143 OFFCURVE",
"254 143 CURVE SMOOTH",
"205 143 OFFCURVE",
"153 154 OFFCURVE",
"98 175 CURVE",
"63 28 LINE",
"128 2 OFFCURVE",
"203 -11 OFFCURVE",
"277 -11 CURVE SMOOTH"
);
}
);
};
layerId = UUID0;
paths = (
{
closed = 1;
nodes = (
"435 -11 OFFCURVE",
"541 72 OFFCURVE",
"541 207 CURVE SMOOTH",
"541 271 OFFCURVE",
"503 342 OFFCURVE",
"403 369 CURVE",
"486 408 OFFCURVE",
"511 466 OFFCURVE",
"511 533 CURVE SMOOTH",
"511 638 OFFCURVE",
"425 703 OFFCURVE",
"287 703 CURVE SMOOTH",
"203 703 OFFCURVE",
"125 684 OFFCURVE",
"58 647 CURVE",
"97 506 LINE",
"146 530 OFFCURVE",
"198 541 OFFCURVE",
"258 541 CURVE SMOOTH",
"309 541 OFFCURVE",
"340 523 OFFCURVE",
"340 494 CURVE SMOOTH",
"340 448 OFFCURVE",
"275 423 OFFCURVE",
"150 423 CURVE",
"150 282 LINE",
"290 282 OFFCURVE",
"344 261 OFFCURVE",
"344 210 CURVE SMOOTH",
"344 169 OFFCURVE",
"314 149 OFFCURVE",
"257 149 CURVE SMOOTH",
"210 149 OFFCURVE",
"158 160 OFFCURVE",
"100 182 CURVE",
"67 29 LINE",
"128 4 OFFCURVE",
"202 -11 OFFCURVE",
"275 -11 CURVE SMOOTH"
);
}
);
width = 600;
}
);
},
{
color = 4;
glyphname = four.tf;
lastChange = "2023-02-01 13:09:34 +0000";
layers = (
{
background = {
paths = (
{
closed = 1;
nodes = (
"518 0 LINE",
"518 162 LINE",
"614 162 LINE",
"614 308 LINE",
"518 308 LINE",
"518 688 LINE",
"294 688 LINE",
"28 310 LINE",
"28 162 LINE",
"305 162 LINE",
"305 0 LINE"
);
},
{
closed = 1;
nodes = (
"305 518 LINE",
"305 308 LINE",
"175 308 LINE"
);
}
);
};
layerId = UUID0;
paths = (
{
closed = 1;
nodes = (
"507 0 LINE",
"507 162 LINE",
"593 162 LINE",
"593 308 LINE",
"507 308 LINE",
"507 688 LINE",
"283 688 LINE",
"27 310 LINE",
"27 162 LINE",
"294 162 LINE",
"294 0 LINE"
);
},
{
closed = 1;
nodes = (
"294 518 LINE",
"294 308 LINE",
"174 308 LINE"
);
}
);
width = 600;
}
);
},
{
color = 4;
glyphname = five.tf;
lastChange = "2023-02-01 13:10:17 +0000";
layers = (
{
background = {
paths = (
{
closed = 1;
nodes = (
"444 -13 OFFCURVE",
"559 85 OFFCURVE",
"559 246 CURVE SMOOTH",
"559 341 OFFCURVE",
"492 436 OFFCURVE",
"364 436 CURVE SMOOTH",
"302 436 OFFCURVE",
"248 415 OFFCURVE",
"215 357 CURVE",
"241 341 LINE",
"257 523 LINE",
"501 523 LINE",
"516 669 LINE",
"113 669 LINE",
"80 290 LINE",
"191 245 LINE",
"220 272 OFFCURVE",
"253 285 OFFCURVE",
"289 285 CURVE SMOOTH",
"334 285 OFFCURVE",
"364 260 OFFCURVE",
"364 219 CURVE SMOOTH",
"364 172 OFFCURVE",
"331 140 OFFCURVE",
"245 140 CURVE SMOOTH",
"203 140 OFFCURVE",
"145 155 OFFCURVE",
"105 176 CURVE",
"73 27 LINE",
"140 -2 OFFCURVE",
"205 -13 OFFCURVE",
"267 -13 CURVE SMOOTH"
);
}
);
};
layerId = UUID0;
paths = (
{
closed = 1;
nodes = (
"445 -13 OFFCURVE",
"562 68 OFFCURVE",
"562 243 CURVE SMOOTH",
"562 351 OFFCURVE",
"503 449 OFFCURVE",
"365 449 CURVE SMOOTH",
"313 449 OFFCURVE",
"249 427 OFFCURVE",
"216 367 CURVE",
"246 351 LINE",
"264 538 LINE",
"502 538 LINE",
"517 688 LINE",
"114 688 LINE",
"81 298 LINE",
"189 252 LINE",
"219 280 OFFCURVE",
"252 293 OFFCURVE",
"289 293 CURVE SMOOTH",
"334 293 OFFCURVE",
"365 268 OFFCURVE",
"365 225 CURVE SMOOTH",
"365 177 OFFCURVE",
"331 148 OFFCURVE",
"255 148 CURVE SMOOTH",
"207 148 OFFCURVE",
"150 160 OFFCURVE",
"106 181 CURVE",
"74 28 LINE",
"141 -2 OFFCURVE",
"206 -13 OFFCURVE",
"268 -13 CURVE SMOOTH"
);
}
);
width = 600;
}
);
},
{
color = 4;
glyphname = six.tf;
lastChange = "2023-02-01 13:17:22 +0000";
layers = (
{
background = {
paths = (
{
closed = 1;
nodes = (
"209 261 LINE",
"237 283 OFFCURVE",
"274 295 OFFCURVE",
"313 295 CURVE SMOOTH",
"365 295 OFFCURVE",
"398 265 OFFCURVE",
"398 220 CURVE SMOOTH",
"398 170 OFFCURVE",
"364 137 OFFCURVE",
"313 137 CURVE SMOOTH",
"250 137 OFFCURVE",
"219 195 OFFCURVE",
"219 312 CURVE SMOOTH",
"219 459 OFFCURVE",
"280 543 OFFCURVE",
"386 543 CURVE SMOOTH",
"425 543 OFFCURVE",
"467 531 OFFCURVE",
"508 510 CURVE",
"549 654 LINE",
"502 686 OFFCURVE",
"442 703 OFFCURVE",
"368 703 CURVE SMOOTH",
"162 703 OFFCURVE",
"21 546 OFFCURVE",
"21 317 CURVE SMOOTH",
"21 113 OFFCURVE",
"129 -7 OFFCURVE",
"312 -7 CURVE SMOOTH",
"471 -7 OFFCURVE",
"579 90 OFFCURVE",
"579 233 CURVE SMOOTH",
"579 359 OFFCURVE",
"496 441 OFFCURVE",
"369 441 CURVE SMOOTH",
"299 441 OFFCURVE",
"234 396 OFFCURVE",
"210 329 CURVE"
);
}
);
};
layerId = UUID0;
paths = (
{
closed = 1;
nodes = (
"21 113 OFFCURVE",
"129 -7 OFFCURVE",
"312 -7 CURVE SMOOTH",
"471 -7 OFFCURVE",
"579 90 OFFCURVE",
"579 233 CURVE SMOOTH",
"579 359 OFFCURVE",
"496 441 OFFCURVE",
"369 441 CURVE SMOOTH",
"308 441 OFFCURVE",
"250 406 OFFCURVE",
"221 353 CURVE",
"231 474 OFFCURVE",
"290 543 OFFCURVE",
"386 543 CURVE SMOOTH",
"425 543 OFFCURVE",
"467 531 OFFCURVE",
"508 510 CURVE",
"549 654 LINE",
"502 686 OFFCURVE",
"442 703 OFFCURVE",
"368 703 CURVE SMOOTH",
"162 703 OFFCURVE",
"21 546 OFFCURVE",
"21 317 CURVE SMOOTH"
);
},
{
closed = 1;
nodes = (
"247 286 OFFCURVE",
"279 295 OFFCURVE",
"313 295 CURVE SMOOTH",
"365 295 OFFCURVE",
"398 265 OFFCURVE",
"398 220 CURVE SMOOTH",
"398 170 OFFCURVE",
"364 137 OFFCURVE",
"313 137 CURVE SMOOTH",
"258 137 OFFCURVE",
"228 181 OFFCURVE",
"221 269 CURVE"
);
}
);
width = 600;
}
);
},
{
color = 4;
glyphname = seven.tf;
lastChange = "2023-02-01 13:17:33 +0000";
layers = (
{
background = {
paths = (
{
closed = 1;
nodes = (
"550 547 LINE",
"550 669 LINE",
"71 669 LINE",
"71 524 LINE",
"330 524 LINE",
"91 60 LINE",
"273 -17 LINE"
);
}
);
};
layerId = UUID0;
paths = (
{
closed = 1;
nodes = (
"560 566 LINE",
"560 688 LINE",
"71 688 LINE",
"71 542 LINE",
"340 542 LINE",
"91 60 LINE",
"273 -17 LINE"
);
}
);
width = 600;
}
);
},
{
color = 4;
glyphname = eight.tf;
lastChange = "2023-02-01 13:17:45 +0000";
layers = (
{
background = {
paths = (
{
closed = 1;
nodes = (
"414 396 LINE",
"497 427 OFFCURVE",
"532 472 OFFCURVE",
"532 542 CURVE SMOOTH",
"532 637 OFFCURVE",
"440 703 OFFCURVE",
"310 703 CURVE SMOOTH",
"166 703 OFFCURVE",
"61 625 OFFCURVE",
"61 502 CURVE SMOOTH",
"61 257 OFFCURVE",
"392 296 OFFCURVE",
"392 190 CURVE SMOOTH",
"392 146 OFFCURVE",
"358 118 OFFCURVE",
"302 118 CURVE SMOOTH",
"246 118 OFFCURVE",
"212 154 OFFCURVE",
"212 206 CURVE SMOOTH",
"212 242 OFFCURVE",
"226 271 OFFCURVE",
"262 303 CURVE",
"176 335 LINE",
"75 304 OFFCURVE",
"22 250 OFFCURVE",
"22 175 CURVE SMOOTH",
"22 60 OFFCURVE",
"133 -13 OFFCURVE",
"301 -13 CURVE SMOOTH",
"452 -13 OFFCURVE",
"578 69 OFFCURVE",
"578 206 CURVE SMOOTH",
"578 448 OFFCURVE",
"224 416 OFFCURVE",
"224 534 CURVE SMOOTH",
"224 567 OFFCURVE",
"252 591 OFFCURVE",
"299 591 CURVE SMOOTH",
"349 591 OFFCURVE",
"375 564 OFFCURVE",
"375 516 CURVE SMOOTH",
"375 480 OFFCURVE",
"361 453 OFFCURVE",
"330 429 CURVE"
);
}
);
};
layerId = UUID0;
paths = (
{
closed = 1;
nodes = (
"22 60 OFFCURVE",
"133 -13 OFFCURVE",
"301 -13 CURVE SMOOTH",
"452 -13 OFFCURVE",
"578 69 OFFCURVE",
"578 206 CURVE SMOOTH",
"578 313 OFFCURVE",
"509 367 OFFCURVE",
"431 403 CURVE",
"502 434 OFFCURVE",
"532 477 OFFCURVE",
"532 542 CURVE SMOOTH",
"532 637 OFFCURVE",
"440 703 OFFCURVE",
"310 703 CURVE SMOOTH",
"166 703 OFFCURVE",
"61 625 OFFCURVE",
"61 502 CURVE SMOOTH",
"61 415 OFFCURVE",
"103 363 OFFCURVE",
"157 329 CURVE",
"68 297 OFFCURVE",
"22 245 OFFCURVE",
"22 175 CURVE SMOOTH"
);
},
{
closed = 1;
nodes = (
"212 236 OFFCURVE",
"222 261 OFFCURVE",
"245 286 CURVE",
"351 250 OFFCURVE",
"392 229 OFFCURVE",
"392 190 CURVE SMOOTH",
"392 146 OFFCURVE",
"358 118 OFFCURVE",
"302 118 CURVE SMOOTH",
"246 118 OFFCURVE",
"212 154 OFFCURVE",
"212 206 CURVE SMOOTH"
);
},
{
closed = 1;
nodes = (
"224 567 OFFCURVE",
"252 591 OFFCURVE",
"299 591 CURVE SMOOTH",
"349 591 OFFCURVE",
"375 564 OFFCURVE",
"375 516 CURVE SMOOTH",
"375 485 OFFCURVE",
"365 461 OFFCURVE",
"342 440 CURVE",
"277 465 OFFCURVE",
"224 488 OFFCURVE",
"224 534 CURVE SMOOTH"
);
}
);
width = 600;
}
);
},
{
color = 4;
glyphname = nine.tf;
lastChange = "2023-02-01 13:17:57 +0000";
layers = (
{
background = {
paths = (
{
closed = 1;
nodes = (
"391 435 LINE",
"363 413 OFFCURVE",
"326 401 OFFCURVE",
"287 401 CURVE SMOOTH",
"235 401 OFFCURVE",
"202 431 OFFCURVE",
"202 476 CURVE SMOOTH",
"202 526 OFFCURVE",
"236 559 OFFCURVE",
"287 559 CURVE SMOOTH",
"350 559 OFFCURVE",
"381 501 OFFCURVE",
"381 384 CURVE SMOOTH",
"381 237 OFFCURVE",
"320 153 OFFCURVE",
"214 153 CURVE SMOOTH",
"175 153 OFFCURVE",
"133 165 OFFCURVE",
"92 186 CURVE",
"51 42 LINE",
"98 10 OFFCURVE",
"158 -7 OFFCURVE",
"232 -7 CURVE SMOOTH",
"438 -7 OFFCURVE",
"579 150 OFFCURVE",
"579 379 CURVE SMOOTH",
"579 583 OFFCURVE",
"471 703 OFFCURVE",
"288 703 CURVE SMOOTH",
"129 703 OFFCURVE",
"21 606 OFFCURVE",
"21 463 CURVE SMOOTH",
"21 337 OFFCURVE",
"104 255 OFFCURVE",
"231 255 CURVE SMOOTH",
"301 255 OFFCURVE",
"366 300 OFFCURVE",
"390 367 CURVE"
);
}
);
};
layerId = UUID0;
paths = (
{
closed = 1;
nodes = (
"21 337 OFFCURVE",
"104 255 OFFCURVE",
"231 255 CURVE SMOOTH",
"292 255 OFFCURVE",
"350 290 OFFCURVE",
"379 343 CURVE",
"369 222 OFFCURVE",
"310 153 OFFCURVE",
"214 153 CURVE SMOOTH",
"175 153 OFFCURVE",
"133 165 OFFCURVE",
"92 186 CURVE",
"51 42 LINE",
"98 10 OFFCURVE",
"158 -7 OFFCURVE",
"232 -7 CURVE SMOOTH",
"438 -7 OFFCURVE",
"579 150 OFFCURVE",
"579 379 CURVE SMOOTH",
"579 583 OFFCURVE",
"471 703 OFFCURVE",
"288 703 CURVE SMOOTH",
"129 703 OFFCURVE",
"21 606 OFFCURVE",
"21 463 CURVE SMOOTH"
);
},
{
closed = 1;
nodes = (
"202 526 OFFCURVE",
"236 559 OFFCURVE",
"287 559 CURVE SMOOTH",
"342 559 OFFCURVE",
"372 515 OFFCURVE",
"379 427 CURVE",
"353 410 OFFCURVE",
"321 401 OFFCURVE",
"287 401 CURVE SMOOTH",
"235 401 OFFCURVE",
"202 431 OFFCURVE",
"202 476 CURVE SMOOTH"
);
}
);
width = 600;
}
);
},
{
color = 4;
glyphname = zero.dnom;
lastChange = "2023-02-01 18:12:00 +0000";
layers = (
{
background = {
paths = (
{
closed = 1;
nodes = (
"296 -10 OFFCURVE",
"361 79 OFFCURVE",
"361 182 CURVE SMOOTH",
"361 285 OFFCURVE",
"293 374 OFFCURVE",
"190 374 CURVE SMOOTH",
"99 374 OFFCURVE",
"18 304 OFFCURVE",
"18 182 CURVE SMOOTH",
"18 79 OFFCURVE",
"81 -10 OFFCURVE",
"190 -10 CURVE SMOOTH"
);
},
{
closed = 1;
nodes = (
"150 82 OFFCURVE",
"131 132 OFFCURVE",
"131 182 CURVE SMOOTH",
"131 236 OFFCURVE",
"150 282 OFFCURVE",
"190 282 CURVE SMOOTH",
"227 282 OFFCURVE",
"248 235 OFFCURVE",
"248 182 CURVE SMOOTH",
"248 124 OFFCURVE",
"222 82 OFFCURVE",
"190 82 CURVE SMOOTH"
);
}
);
};
layerId = UUID0;
paths = (
{
closed = 1;
nodes = (
"296 -11 OFFCURVE",
"361 80 OFFCURVE",
"361 185 CURVE SMOOTH",
"361 289 OFFCURVE",
"293 380 OFFCURVE",
"190 380 CURVE SMOOTH",
"99 380 OFFCURVE",
"18 309 OFFCURVE",
"18 185 CURVE SMOOTH",
"18 80 OFFCURVE",
"81 -11 OFFCURVE",
"190 -11 CURVE SMOOTH"
);
},
{
closed = 1;
nodes = (
"150 83 OFFCURVE",
"131 134 OFFCURVE",
"131 185 CURVE SMOOTH",
"131 239 OFFCURVE",
"150 286 OFFCURVE",
"190 286 CURVE SMOOTH",
"227 286 OFFCURVE",
"248 238 OFFCURVE",
"248 185 CURVE SMOOTH",
"248 125 OFFCURVE",
"222 83 OFFCURVE",
"190 83 CURVE SMOOTH"
);
}
);
width = 379;
}
);
},
{
color = 4;
glyphname = one.dnom;
lastChange = "2023-02-01 18:15:09 +0000";
layers = (
{
background = {
paths = (
{
closed = 1;
nodes = (
"238 0 LINE",
"238 78 LINE",
"194 78 LINE",
"194 355 LINE",
"139 355 LINE",
"108 332 OFFCURVE",
"74 320 OFFCURVE",
"37 320 CURVE",
"37 251 LINE",
"81 255 LINE",
"81 78 LINE",
"37 78 LINE",
"37 0 LINE"
);
}
);
};
layerId = UUID0;
paths = (
{
closed = 1;
nodes = (
"238 0 LINE",
"238 78 LINE",
"194 78 LINE",
"194 368 LINE",
"139 368 LINE",
"108 345 OFFCURVE",
"74 333 OFFCURVE",
"37 333 CURVE",
"37 266 LINE",
"81 266 LINE",
"81 78 LINE",
"37 78 LINE",
"37 0 LINE"
);
}
);
width = 259;
}
);
},
{
color = 4;
glyphname = two.dnom;
lastChange = "2023-02-01 18:15:16 +0000";
layers = (
{
background = {
paths = (
{
closed = 1;
nodes = (
"257 0 LINE",
"257 83 LINE",
"140 83 LINE",
"224 130 OFFCURVE",
"268 186 OFFCURVE",
"268 247 CURVE SMOOTH",
"268 320 OFFCURVE",
"218 368 OFFCURVE",
"137 368 CURVE SMOOTH",
"92 368 OFFCURVE",
"50 358 OFFCURVE",
"14 337 CURVE",
"43 252 LINE",
"60 264 OFFCURVE",
"90 273 OFFCURVE",
"111 273 CURVE SMOOTH",
"136 273 OFFCURVE",
"151 264 OFFCURVE",
"151 243 CURVE SMOOTH",
"151 216 OFFCURVE",
"122 171 OFFCURVE",
"21 79 CURVE",
"21 0 LINE"
);
}
);
};
layerId = UUID0;
paths = (
{
closed = 1;
nodes = (
"265 0 LINE",
"265 80 LINE",
"128 80 LINE",
"220 133 OFFCURVE",
"267 190 OFFCURVE",
"267 260 CURVE SMOOTH",
"267 329 OFFCURVE",
"217 380 OFFCURVE",
"130 380 CURVE SMOOTH",
"89 380 OFFCURVE",
"44 369 OFFCURVE",
"9 349 CURVE",
"37 264 LINE",
"61 279 OFFCURVE",
"86 286 OFFCURVE",
"111 286 CURVE SMOOTH",
"136 286 OFFCURVE",
"152 274 OFFCURVE",
"152 249 CURVE SMOOTH",
"152 210 OFFCURVE",
"101 153 OFFCURVE",
"16 77 CURVE",
"16 0 LINE"
);
}
);
width = 294;
}
);
},
{
color = 4;
glyphname = three.dnom;
lastChange = "2023-02-01 18:15:27 +0000";
layers = (
{
background = {
paths = (
{
closed = 1;
nodes = (
"215 -10 OFFCURVE",
"268 31 OFFCURVE",
"268 96 CURVE SMOOTH",
"268 142 OFFCURVE",
"245 175 OFFCURVE",
"200 195 CURVE",
"240 218 OFFCURVE",
"252 248 OFFCURVE",
"252 284 CURVE SMOOTH",
"252 335 OFFCURVE",
"203 373 OFFCURVE",
"139 373 CURVE SMOOTH",
"94 373 OFFCURVE",
"53 363 OFFCURVE",
"16 344 CURVE",
"35 270 LINE",
"67 282 OFFCURVE",
"96 286 OFFCURVE",
"119 286 CURVE SMOOTH",
"146 286 OFFCURVE",
"157 277 OFFCURVE",
"157 260 CURVE SMOOTH",
"157 237 OFFCURVE",
"126 224 OFFCURVE",
"61 224 CURVE",
"61 150 LINE",
"127 150 OFFCURVE",
"160 136 OFFCURVE",
"160 106 CURVE SMOOTH",
"160 86 OFFCURVE",
"145 73 OFFCURVE",
"119 73 CURVE SMOOTH",
"95 73 OFFCURVE",
"67 79 OFFCURVE",
"35 91 CURVE",
"16 14 LINE",
"53 -2 OFFCURVE",
"92 -10 OFFCURVE",
"133 -10 CURVE SMOOTH"
);
}
);
};
layerId = UUID0;
paths = (
{
closed = 1;
nodes = (
"214 -11 OFFCURVE",
"269 35 OFFCURVE",
"269 108 CURVE SMOOTH",
"269 144 OFFCURVE",
"249 179 OFFCURVE",
"202 197 CURVE",
"234 218 OFFCURVE",
"253 250 OFFCURVE",
"253 286 CURVE SMOOTH",
"253 343 OFFCURVE",
"208 380 OFFCURVE",
"136 380 CURVE SMOOTH",
"92 380 OFFCURVE",
"51 369 OFFCURVE",
"16 348 CURVE",
"37 272 LINE",
"62 284 OFFCURVE",
"89 291 OFFCURVE",
"119 291 CURVE SMOOTH",
"145 291 OFFCURVE",
"161 281 OFFCURVE",
"161 265 CURVE SMOOTH",
"161 239 OFFCURVE",
"128 226 OFFCURVE",
"64 226 CURVE",
"64 156 LINE",
"135 156 OFFCURVE",
"163 144 OFFCURVE",
"163 113 CURVE SMOOTH",
"163 89 OFFCURVE",
"148 77 OFFCURVE",
"118 77 CURVE SMOOTH",
"95 77 OFFCURVE",
"68 83 OFFCURVE",
"39 95 CURVE",
"21 11 LINE",
"53 -3 OFFCURVE",
"92 -11 OFFCURVE",
"130 -11 CURVE SMOOTH"
);
}
);
width = 294;
}
);
},
{
color = 4;
glyphname = four.dnom;
lastChange = "2023-02-01 18:15:32 +0000";
layers = (
{
background = {
paths = (
{
closed = 1;
nodes = (
"294 0 LINE",
"294 88 LINE",
"340 88 LINE",
"340 165 LINE",
"294 165 LINE",
"294 369 LINE",
"169 369 LINE",
"22 165 LINE",
"22 88 LINE",
"174 88 LINE",
"174 0 LINE"
);
},
{
closed = 1;
nodes = (
"174 273 LINE",
"174 165 LINE",
"102 165 LINE"
);
}
);
};
layerId = UUID0;
paths = (
{
closed = 1;
nodes = (
"294 0 LINE",
"294 88 LINE",
"340 88 LINE",
"340 165 LINE",
"294 165 LINE",
"294 368 LINE",
"169 368 LINE",
"22 165 LINE",
"22 88 LINE",
"174 88 LINE",
"174 0 LINE"
);
},
{
closed = 1;
nodes = (
"174 272 LINE",
"174 165 LINE",
"102 165 LINE"
);
}
);
width = 357;
}
);
},
{
color = 4;
glyphname = five.dnom;
lastChange = "2023-02-01 18:15:40 +0000";
layers = (
{
background = {
paths = (
{
closed = 1;
nodes = (
"218 -10 OFFCURVE",
"277 43 OFFCURVE",
"277 118 CURVE SMOOTH",
"277 190 OFFCURVE",
"233 241 OFFCURVE",
"165 241 CURVE SMOOTH",
"147 241 OFFCURVE",
"124 237 OFFCURVE",
"103 228 CURVE",
"111 288 LINE",
"240 288 LINE",
"248 369 LINE",
"37 369 LINE",
"23 162 LINE",
"79 137 LINE",
"99 151 OFFCURVE",
"118 159 OFFCURVE",
"133 159 CURVE SMOOTH",
"156 159 OFFCURVE",
"171 143 OFFCURVE",
"171 118 CURVE SMOOTH",
"171 89 OFFCURVE",
"151 73 OFFCURVE",
"117 73 CURVE SMOOTH",
"92 73 OFFCURVE",
"60 79 OFFCURVE",
"32 90 CURVE",
"25 10 LINE",
"63 -5 OFFCURVE",
"97 -10 OFFCURVE",
"129 -10 CURVE SMOOTH"
);
}
);
};
layerId = UUID0;
paths = (
{
closed = 1;
nodes = (
"218 -11 OFFCURVE",
"278 44 OFFCURVE",
"278 132 CURVE SMOOTH",
"278 185 OFFCURVE",
"243 238 OFFCURVE",
"177 238 CURVE SMOOTH",
"145 238 OFFCURVE",
"117 226 OFFCURVE",
"100 194 CURVE",
"115 185 LINE",
"124 286 LINE",
"248 286 LINE",
"256 368 LINE",
"47 368 LINE",
"30 156 LINE",
"87 131 LINE",
"102 146 OFFCURVE",
"118 153 OFFCURVE",
"137 153 CURVE SMOOTH",
"160 153 OFFCURVE",
"175 139 OFFCURVE",
"175 117 CURVE SMOOTH",
"175 92 OFFCURVE",
"158 74 OFFCURVE",
"120 74 CURVE SMOOTH",
"93 74 OFFCURVE",
"63 83 OFFCURVE",
"43 95 CURVE",
"26 11 LINE",
"61 -5 OFFCURVE",
"94 -11 OFFCURVE",
"127 -11 CURVE SMOOTH"
);
}
);
width = 294;
}
);
},
{
color = 4;
glyphname = six.dnom;
lastChange = "2023-02-01 18:15:00 +0000";
layers = (
{
background = {
paths = (
{
closed = 1;
nodes = (
"262 -10 OFFCURVE",
"326 46 OFFCURVE",
"326 114 CURVE SMOOTH",
"326 182 OFFCURVE",
"283 227 OFFCURVE",
"217 227 CURVE SMOOTH",
"181 227 OFFCURVE",
"151 214 OFFCURVE",
"127 188 CURVE",
"134 258 OFFCURVE",
"158 286 OFFCURVE",
"209 286 CURVE SMOOTH",
"228 286 OFFCURVE",
"254 278 OFFCURVE",
"283 262 CURVE",
"309 335 LINE",
"277 358 OFFCURVE",
"235 372 OFFCURVE",
"196 372 CURVE SMOOTH",
"94 372 OFFCURVE",
"19 287 OFFCURVE",
"19 170 CURVE SMOOTH",
"19 60 OFFCURVE",
"83 -10 OFFCURVE",
"182 -10 CURVE SMOOTH"
);
},
{
closed = 1;
nodes = (
"148 70 OFFCURVE",
"130 99 OFFCURVE",
"129 145 CURVE",
"144 151 OFFCURVE",
"159 155 OFFCURVE",
"181 155 CURVE SMOOTH",
"206 155 OFFCURVE",
"225 137 OFFCURVE",
"225 114 CURVE SMOOTH",
"225 88 OFFCURVE",
"205 70 OFFCURVE",
"182 70 CURVE SMOOTH"
);
}
);
};
layerId = UUID0;
paths = (
{
closed = 1;
nodes = (
"121 137 LINE",
"137 150 OFFCURVE",
"158 155 OFFCURVE",
"178 155 CURVE SMOOTH",
"206 155 OFFCURVE",
"225 140 OFFCURVE",
"225 114 CURVE SMOOTH",
"225 87 OFFCURVE",
"206 68 OFFCURVE",
"178 68 CURVE SMOOTH",
"143 68 OFFCURVE",
"126 101 OFFCURVE",
"126 164 CURVE SMOOTH",
"126 244 OFFCURVE",
"159 291 OFFCURVE",
"218 291 CURVE SMOOTH",
"241 291 OFFCURVE",
"264 285 OFFCURVE",
"285 274 CURVE",
"308 353 LINE",
"281 372 OFFCURVE",
"247 380 OFFCURVE",
"208 380 CURVE SMOOTH",
"94 380 OFFCURVE",
"18 292 OFFCURVE",
"18 167 CURVE SMOOTH",
"18 61 OFFCURVE",
"71 -11 OFFCURVE",
"177 -11 CURVE SMOOTH",
"267 -11 OFFCURVE",
"324 45 OFFCURVE",
"324 121 CURVE SMOOTH",
"324 189 OFFCURVE",
"280 236 OFFCURVE",
"209 236 CURVE SMOOTH",
"177 236 OFFCURVE",
"137 218 OFFCURVE",
"121 175 CURVE"
);
}
);
width = 342;
}
);
},
{
color = 4;
glyphname = seven.dnom;
lastChange = "2023-02-01 18:15:47 +0000";
layers = (
{
background = {
paths = (
{
closed = 1;
nodes = (
"251 298 LINE",
"251 369 LINE",
"22 369 LINE",
"22 289 LINE",
"136 289 LINE",
"30 30 LINE",
"131 -12 LINE"
);
}
);
};
layerId = UUID0;
paths = (
{
closed = 1;
nodes = (
"251 297 LINE",
"251 368 LINE",
"22 368 LINE",
"22 288 LINE",
"136 288 LINE",
"30 29 LINE",
"131 -13 LINE"
);
}
);
width = 267;
}
);
},
{
color = 4;
glyphname = eight.dnom;
lastChange = "2023-02-01 18:11:39 +0000";
layers = (
{
background = {
paths = (
{
closed = 1;
nodes = (
"232 213 LINE",
"278 229 OFFCURVE",
"298 253 OFFCURVE",
"298 292 CURVE SMOOTH",
"298 344 OFFCURVE",
"246 380 OFFCURVE",
"174 380 CURVE SMOOTH",
"94 380 OFFCURVE",
"36 337 OFFCURVE",
"36 270 CURVE SMOOTH",
"36 136 OFFCURVE",
"220 157 OFFCURVE",
"220 100 CURVE SMOOTH",
"220 76 OFFCURVE",
"201 61 OFFCURVE",
"170 61 CURVE SMOOTH",
"139 61 OFFCURVE",
"120 80 OFFCURVE",
"120 108 CURVE SMOOTH",
"120 128 OFFCURVE",
"127 144 OFFCURVE",
"147 161 CURVE",
"100 178 LINE",
"43 162 OFFCURVE",
"14 132 OFFCURVE",
"14 92 CURVE SMOOTH",
"14 28 OFFCURVE",
"76 -11 OFFCURVE",
"169 -11 CURVE SMOOTH",
"253 -11 OFFCURVE",
"323 33 OFFCURVE",
"323 108 CURVE SMOOTH",
"323 241 OFFCURVE",
"126 223 OFFCURVE",
"126 287 CURVE SMOOTH",
"126 305 OFFCURVE",
"142 319 OFFCURVE",
"168 319 CURVE SMOOTH",
"196 319 OFFCURVE",
"210 303 OFFCURVE",
"210 278 CURVE SMOOTH",
"210 258 OFFCURVE",
"202 243 OFFCURVE",
"185 230 CURVE"
);
}
);
};
layerId = UUID0;
paths = (
{
closed = 1;
nodes = (
"14 28 OFFCURVE",
"76 -11 OFFCURVE",
"169 -11 CURVE SMOOTH",
"253 -11 OFFCURVE",
"323 33 OFFCURVE",
"323 108 CURVE SMOOTH",
"323 167 OFFCURVE",
"284 196 OFFCURVE",
"241 216 CURVE",
"281 232 OFFCURVE",
"298 256 OFFCURVE",
"298 292 CURVE SMOOTH",
"298 344 OFFCURVE",
"246 380 OFFCURVE",
"174 380 CURVE SMOOTH",
"94 380 OFFCURVE",
"36 337 OFFCURVE",
"36 270 CURVE SMOOTH",
"36 222 OFFCURVE",
"60 194 OFFCURVE",
"90 175 CURVE",
"40 158 OFFCURVE",
"14 130 OFFCURVE",
"14 92 CURVE SMOOTH"
);
},
{
closed = 1;
nodes = (
"120 125 OFFCURVE",
"125 138 OFFCURVE",
"138 152 CURVE",
"180 136 OFFCURVE",
"220 126 OFFCURVE",
"220 100 CURVE SMOOTH",
"220 76 OFFCURVE",
"201 61 OFFCURVE",
"170 61 CURVE SMOOTH",
"139 61 OFFCURVE",
"120 80 OFFCURVE",
"120 108 CURVE SMOOTH"
);
},
{
closed = 1;
nodes = (
"126 305 OFFCURVE",
"142 319 OFFCURVE",
"168 319 CURVE SMOOTH",
"196 319 OFFCURVE",
"210 303 OFFCURVE",
"210 278 CURVE SMOOTH",
"210 261 OFFCURVE",
"204 248 OFFCURVE",
"192 236 CURVE",
"156 250 OFFCURVE",
"126 262 OFFCURVE",
"126 287 CURVE SMOOTH"
);
}
);
width = 337;
}
);
},
